<?xml version="1.0" encoding="utf-8"?>
<!-- Generator: Adobe Illustrator 17.1.0, SVG Export Plug-In . SVG Version: 6.00 Build 0)  -->
<!DOCTYPE svg PUBLIC "-//W3C//DTD SVG 1.1//EN" "http://www.w3.org/Graphics/SVG/1.1/DTD/svg11.dtd">
<svg version="1.1" id="图层_1" xmlns="http://www.w3.org/2000/svg" xmlns:xlink="http://www.w3.org/1999/xlink" x="0px" y="0px"
	 viewBox="0 0 320 568" enable-background="new 0 0 320 568" xml:space="preserve">
<g>
	<g>
		<linearGradient id="SVGID_1_" gradientUnits="userSpaceOnUse" x1="78.282" y1="588.9756" x2="241.718" y2="-20.9756">
			<stop  offset="0" style="stop-color:#248D4E"/>
			<stop  offset="0.1989" style="stop-color:#38A059"/>
			<stop  offset="0.3425" style="stop-color:#40A85F"/>
			<stop  offset="0.5695" style="stop-color:#57BD6F"/>
			<stop  offset="0.8502" style="stop-color:#7CE089"/>
			<stop  offset="0.9247" style="stop-color:#87EA91"/>
			<stop  offset="1" style="stop-color:#93F599"/>
		</linearGradient>
		<rect fill="url(#SVGID_1_)" width="320" height="568"/>
	</g>
	<g opacity="0.5">
		<linearGradient id="SVGID_2_" gradientUnits="userSpaceOnUse" x1="137.2791" y1="481.4803" x2="144.8136" y2="509.5996">
			<stop  offset="0" style="stop-color:#B1FF8D"/>
			<stop  offset="0.4469" style="stop-color:#6DCF76"/>
			<stop  offset="0.8177" style="stop-color:#3BAC65"/>
			<stop  offset="1" style="stop-color:#289E5F"/>
		</linearGradient>
		<path opacity="0.6" fill="url(#SVGID_2_)" d="M155.3,504.6l-4.9-8.1h1.2c0.7,0,0.9-0.5,0.6-1l-3.8-6.2h0.7c0.7,0,0.9-0.4,0.5-1
			l-5.3-8.1c-0.4-0.5-0.9-0.5-1.3,0l-5.3,8.1c-0.4,0.5-0.1,1,0.5,1h0.7l-3.8,6.2c-0.3,0.6-0.1,1,0.6,1h1.2l-4.9,8.1
			c-0.3,0.6-0.1,1,0.6,1h9.3v3.8h3.5v-3.8h9.3C155.4,505.6,155.6,505.2,155.3,504.6z"/>
		<linearGradient id="SVGID_3_" gradientUnits="userSpaceOnUse" x1="149.9303" y1="467.5937" x2="161.6296" y2="511.256">
			<stop  offset="0" style="stop-color:#B1FF8D"/>
			<stop  offset="0.1911" style="stop-color:#ADFD8C"/>
			<stop  offset="0.3606" style="stop-color:#A3F588"/>
			<stop  offset="0.5219" style="stop-color:#91E882"/>
			<stop  offset="0.6782" style="stop-color:#77D67A"/>
			<stop  offset="0.8309" style="stop-color:#56BF6E"/>
			<stop  offset="0.9789" style="stop-color:#2EA261"/>
			<stop  offset="1" style="stop-color:#289E5F"/>
		</linearGradient>
		<path opacity="0.8" fill="url(#SVGID_3_)" d="M177.4,502.9l-7.6-12.5h2.1c0.8,0,1.1-0.6,0.7-1.2l-5.9-9.6h1.4
			c0.8,0,1.1-0.5,0.7-1.2l-8.4-12.8c-0.4-0.7-1.1-0.7-1.6,0l-8.4,12.8c-0.4,0.7-0.1,1.2,0.7,1.2h1.4l-5.9,9.6
			c-0.4,0.7-0.1,1.2,0.7,1.2h2.1l-7.6,12.5c-0.4,0.7-0.1,1.2,0.7,1.2h14.2v6.8h5.9v-6.8h14.2C177.5,504.2,177.8,503.6,177.4,502.9z"
			/>
		<linearGradient id="SVGID_4_" gradientUnits="userSpaceOnUse" x1="167.5596" y1="477.537" x2="176.141" y2="509.5635">
			<stop  offset="0" style="stop-color:#B1FF8D"/>
			<stop  offset="0.1355" style="stop-color:#ABFA8B"/>
			<stop  offset="0.3253" style="stop-color:#98EE85"/>
			<stop  offset="0.5472" style="stop-color:#7AD87B"/>
			<stop  offset="0.7914" style="stop-color:#51BB6D"/>
			<stop  offset="1" style="stop-color:#289E5F"/>
		</linearGradient>
		<path opacity="0.9" fill="url(#SVGID_4_)" d="M188.1,503.9l-5.6-9.2h1.4c0.7,0,1-0.5,0.6-1.2l-4.3-7h0.8c0.7,0,1-0.5,0.6-1.1
			l-6-9.3c-0.4-0.6-1.1-0.6-1.5,0l-6,9.3c-0.4,0.6-0.1,1.1,0.6,1.1h0.8l-4.3,7c-0.4,0.6-0.1,1.2,0.6,1.2h1.4l-5.6,9.2
			c-0.4,0.6-0.1,1.2,0.6,1.2h10.6v4.4h4V505h10.6C188.2,505,188.4,504.5,188.1,503.9z"/>
	</g>
	
		<text transform="matrix(1 0 0 1 118.7801 530.2891)" opacity="0.8" fill="#FFFFFF" font-family="'SourceHanSansCN-ExtraLight-GBpc-EUC-H'" font-size="12">@2015  MXCHIP</text>
	
		<text transform="matrix(1 0 0 1 140.3426 203.792)" opacity="0.8" fill="#FFFFFF" font-family="'SourceHanSansCN-ExtraLight-GBpc-EUC-H'" font-size="39.3149">净</text>
	
		<text transform="matrix(1 0 0 1 148.1805 248.1172)" opacity="0.8" fill="#FFFFFF" font-family="'SourceHanSansCN-ExtraLight-GBpc-EUC-H'" font-size="12">v.1.0</text>
	
		<text transform="matrix(1 0 0 1 140.3426 135.8994)" fill="#FFFFFF" font-family="'SourceHanSansCN-ExtraLight-GBpc-EUC-H'" font-size="39.3149">空</text>
	<circle fill="#FFFFFF" cx="160" cy="155.9" r="1.7"/>
</g>
</svg>
