<?xml version="1.0" encoding="utf-8"?>
<!-- Generator: Adobe Illustrator 16.0.4, SVG Export Plug-In . SVG Version: 6.00 Build 0)  -->
<!DOCTYPE svg PUBLIC "-//W3C//DTD SVG 1.1//EN" "http://www.w3.org/Graphics/SVG/1.1/DTD/svg11.dtd">
<svg version="1.1" id="图层_1" xmlns="http://www.w3.org/2000/svg" xmlns:xlink="http://www.w3.org/1999/xlink" x="0px" y="0px"
	 width="500px" height="530px" viewBox="0 0 500 530" enable-background="new 0 0 500 530" xml:space="preserve">
<g>
	
		<radialGradient id="SVGID_1_" cx="-647.77" cy="631.293" r="68.3869" gradientTransform="matrix(2.0544 0 0 -2.6635 1575.6906 1868.7458)" gradientUnits="userSpaceOnUse">
		<stop  offset="0" style="stop-color:#FFFFC9"/>
		<stop  offset="1" style="stop-color:#FFFFBE;stop-opacity:0"/>
	</radialGradient>
	<rect y="185" opacity="0.3" fill="url(#SVGID_1_)" enable-background="new    " width="500" height="193.281"/>
	<g>
		
			<linearGradient id="SVGID_2_" gradientUnits="userSpaceOnUse" x1="-256.7935" y1="871.1807" x2="-237.01" y2="816.826" gradientTransform="matrix(2.3684 0 0 -2.3684 824.3685 2277.2632)">
			<stop  offset="0" style="stop-color:#000000"/>
			<stop  offset="0.147" style="stop-color:#000000;stop-opacity:0.853"/>
			<stop  offset="1" style="stop-color:#000000;stop-opacity:0"/>
		</linearGradient>
		<polygon opacity="0.2" fill="url(#SVGID_2_)" enable-background="new    " points="105.625,219.844 178.594,314.062 
			365.312,314.062 276.719,219.844 		"/>
		
			<linearGradient id="SVGID_3_" gradientUnits="userSpaceOnUse" x1="-279.3237" y1="862.6699" x2="-279.3237" y2="868.3045" gradientTransform="matrix(2.3684 0 0 -2.3684 824.3685 2277.2632)">
			<stop  offset="0" style="stop-color:#F19A35"/>
			<stop  offset="0.0098" style="stop-color:#F19A35"/>
			<stop  offset="1" style="stop-color:#E4782D"/>
		</linearGradient>
		<circle fill="url(#SVGID_3_)" cx="162.812" cy="227.5" r="6.719"/>
		
			<linearGradient id="SVGID_4_" gradientUnits="userSpaceOnUse" x1="-287.0425" y1="862.6699" x2="-287.0425" y2="868.3045" gradientTransform="matrix(2.3684 0 0 -2.3684 824.3685 2277.2632)">
			<stop  offset="0" style="stop-color:#F19A35"/>
			<stop  offset="0.0098" style="stop-color:#F19A35"/>
			<stop  offset="1" style="stop-color:#E4782D"/>
		</linearGradient>
		<circle fill="url(#SVGID_4_)" cx="144.531" cy="227.5" r="6.719"/>
		<g>
			
				<linearGradient id="SVGID_5_" gradientUnits="userSpaceOnUse" x1="-235.6641" y1="875.6074" x2="-234.3756" y2="882.9148" gradientTransform="matrix(2.3684 0 0 -2.3684 824.3685 2277.2632)">
				<stop  offset="0" style="stop-color:#FFE883"/>
				<stop  offset="1" style="stop-color:#FFFFB5"/>
			</linearGradient>
			<polygon fill="url(#SVGID_5_)" points="286.875,203.438 269.688,186.25 248.594,186.25 265.781,203.438 			"/>
			
				<linearGradient id="SVGID_6_" gradientUnits="userSpaceOnUse" x1="-248.3164" y1="865.9424" x2="-248.3164" y2="888.7227" gradientTransform="matrix(2.3684 0 0 -2.3684 824.3685 2277.2632)">
				<stop  offset="0" style="stop-color:#FFB73B"/>
				<stop  offset="1" style="stop-color:#FFE474"/>
			</linearGradient>
			<polygon fill="url(#SVGID_6_)" points="244.844,226.406 227.656,209.219 227.656,172.344 244.844,189.532 			"/>
			
				<linearGradient id="SVGID_7_" gradientUnits="userSpaceOnUse" x1="-244.543" y1="881.4473" x2="-243.2542" y2="888.7564" gradientTransform="matrix(2.3684 0 0 -2.3684 824.3685 2277.2632)">
				<stop  offset="0" style="stop-color:#FFE883"/>
				<stop  offset="1" style="stop-color:#FFFFB5"/>
			</linearGradient>
			<polygon fill="url(#SVGID_7_)" points="265.781,189.532 248.594,172.344 227.656,172.344 244.844,189.532 			"/>
		</g>
		<g>
			
				<linearGradient id="SVGID_8_" gradientUnits="userSpaceOnUse" x1="-250.6538" y1="867.9561" x2="-246.1577" y2="870.5519" gradientTransform="matrix(2.3684 0 0 -2.3684 824.3685 2277.2632)">
				<stop  offset="0" style="stop-color:#F19A35"/>
				<stop  offset="0.2935" style="stop-color:#F5A941"/>
				<stop  offset="1" style="stop-color:#FFCB5C"/>
			</linearGradient>
			<rect x="231.25" y="214.531" fill="url(#SVGID_8_)" width="9.531" height="7.969"/>
			
				<linearGradient id="SVGID_9_" gradientUnits="userSpaceOnUse" x1="-252.0112" y1="867.5557" x2="-252.0112" y2="874.1107" gradientTransform="matrix(2.3684 0 0 -2.3684 824.3685 2277.2632)">
				<stop  offset="0" style="stop-color:#FFB73B"/>
				<stop  offset="1" style="stop-color:#FFE474"/>
			</linearGradient>
			<polygon fill="url(#SVGID_9_)" points="231.25,222.5 223.75,215 223.75,207.032 231.25,214.531 			"/>
			
				<linearGradient id="SVGID_10_" gradientUnits="userSpaceOnUse" x1="-250.2832" y1="870.9014" x2="-249.7125" y2="874.1379" gradientTransform="matrix(2.3684 0 0 -2.3684 824.3685 2277.2632)">
				<stop  offset="0" style="stop-color:#FFE883"/>
				<stop  offset="1" style="stop-color:#FFFFB5"/>
			</linearGradient>
			<polygon fill="url(#SVGID_10_)" points="240.781,214.531 233.281,207.032 223.75,207.032 231.25,214.531 			"/>
		</g>
		<g>
			
				<linearGradient id="SVGID_11_" gradientUnits="userSpaceOnUse" x1="-301.061" y1="864.5977" x2="-301.061" y2="897.4521" gradientTransform="matrix(2.3684 0 0 -2.3684 824.3685 2277.2632)">
				<stop  offset="0" style="stop-color:#FFB73B"/>
				<stop  offset="1" style="stop-color:#FFE474"/>
			</linearGradient>
			<polygon fill="url(#SVGID_11_)" points="100,206.875 122.656,229.531 122.656,174.375 100,151.719 			"/>
			
				<linearGradient id="SVGID_12_" gradientUnits="userSpaceOnUse" x1="-277.5762" y1="887.6104" x2="-275.4042" y2="899.9286" gradientTransform="matrix(2.3684 0 0 -2.3684 824.3685 2277.2632)">
				<stop  offset="0" style="stop-color:#FFE883"/>
				<stop  offset="1" style="stop-color:#FFFFB5"/>
			</linearGradient>
			<polygon fill="url(#SVGID_12_)" points="100,151.719 122.656,174.375 238.125,174.375 215.625,151.719 			"/>
		</g>
		
			<linearGradient id="SVGID_13_" gradientUnits="userSpaceOnUse" x1="-234.0669" y1="864.0186" x2="-234.0669" y2="869.6542" gradientTransform="matrix(2.3684 0 0 -2.3684 824.3685 2277.2632)">
			<stop  offset="0" style="stop-color:#F19A35"/>
			<stop  offset="0.0098" style="stop-color:#F19A35"/>
			<stop  offset="1" style="stop-color:#E4782D"/>
		</linearGradient>
		<circle fill="url(#SVGID_13_)" cx="270" cy="224.219" r="6.719"/>
		
			<linearGradient id="SVGID_14_" gradientUnits="userSpaceOnUse" x1="-245.8325" y1="867.8506" x2="-228.3069" y2="877.9689" gradientTransform="matrix(2.3684 0 0 -2.3684 824.3685 2277.2632)">
			<stop  offset="0" style="stop-color:#F19A35"/>
			<stop  offset="0.2935" style="stop-color:#F5A941"/>
			<stop  offset="1" style="stop-color:#FFCB5C"/>
		</linearGradient>
		<path fill="url(#SVGID_14_)" d="M265.781,203.438v-13.906h-21.094v36.718h21.094h1.875c0,3.75,2.969,6.719,6.718,6.719
			c3.75,0,6.719-2.969,6.719-6.719h5.781v-22.969h-21.094V203.438z"/>
		
			<linearGradient id="SVGID_15_" gradientUnits="userSpaceOnUse" x1="-295.2095" y1="862.7471" x2="-248.5453" y2="889.6887" gradientTransform="matrix(2.3684 0 0 -2.3684 824.3685 2277.2632)">
			<stop  offset="0" style="stop-color:#F19A35"/>
			<stop  offset="0.2935" style="stop-color:#F5A941"/>
			<stop  offset="1" style="stop-color:#FFCB5C"/>
		</linearGradient>
		<path fill="url(#SVGID_15_)" d="M122.656,174.375v55.156h19.219c0,3.75,2.969,6.719,6.718,6.719c3.75,0,6.719-2.969,6.719-6.719
			h4.375c0,3.75,2.969,6.719,6.718,6.719c3.75,0,6.719-2.969,6.719-6.719h65.312v-55.156H122.656z"/>
	</g>
	<g>
		
			<linearGradient id="SVGID_16_" gradientUnits="userSpaceOnUse" x1="-194.479" y1="869.2119" x2="-185.6671" y2="845.0015" gradientTransform="matrix(2.3684 0 0 -2.3684 824.3685 2277.2632)">
			<stop  offset="0" style="stop-color:#000000"/>
			<stop  offset="0.147" style="stop-color:#000000;stop-opacity:0.853"/>
			<stop  offset="1" style="stop-color:#000000;stop-opacity:0"/>
		</linearGradient>
		<polygon opacity="0.2" fill="url(#SVGID_16_)" enable-background="new    " points="314.531,221.25 347.031,263.125 
			430.156,263.125 390.781,221.25 		"/>
		
			<linearGradient id="SVGID_17_" gradientUnits="userSpaceOnUse" x1="-204.3794" y1="863.9258" x2="-204.3794" y2="868.4229" gradientTransform="matrix(2.3684 0 0 -2.3684 824.3685 2277.2632)">
			<stop  offset="0" style="stop-color:#F19A35"/>
			<stop  offset="0.0098" style="stop-color:#F19A35"/>
			<stop  offset="1" style="stop-color:#E4782D"/>
		</linearGradient>
		<circle fill="url(#SVGID_17_)" cx="340.312" cy="225.781" r="5.312"/>
		
			<linearGradient id="SVGID_18_" gradientUnits="userSpaceOnUse" x1="-185.0493" y1="863.9258" x2="-185.0493" y2="868.4229" gradientTransform="matrix(2.3684 0 0 -2.3684 824.3685 2277.2632)">
			<stop  offset="0" style="stop-color:#F19A35"/>
			<stop  offset="0.0098" style="stop-color:#F19A35"/>
			<stop  offset="1" style="stop-color:#E4782D"/>
		</linearGradient>
		<circle fill="url(#SVGID_18_)" cx="386.094" cy="225.781" r="5.312"/>
		
			<linearGradient id="SVGID_19_" gradientUnits="userSpaceOnUse" x1="-188.5732" y1="876.2109" x2="-187.5269" y2="882.145" gradientTransform="matrix(2.3684 0 0 -2.3684 824.3685 2277.2632)">
			<stop  offset="0" style="stop-color:#FFE883"/>
			<stop  offset="1" style="stop-color:#FFFFB5"/>
		</linearGradient>
		<polygon fill="url(#SVGID_19_)" points="378.906,202.188 364.375,187.813 379.219,187.813 393.594,202.188 		"/>
		
			<linearGradient id="SVGID_20_" gradientUnits="userSpaceOnUse" x1="-189.2876" y1="867.4092" x2="-179.0077" y2="873.3443" gradientTransform="matrix(2.3684 0 0 -2.3684 824.3685 2277.2632)">
			<stop  offset="0" style="stop-color:#F19A35"/>
			<stop  offset="0.2935" style="stop-color:#F5A941"/>
			<stop  offset="1" style="stop-color:#FFCB5C"/>
		</linearGradient>
		<path fill="url(#SVGID_20_)" d="M393.594,202.188h-14.688v25.625h5.625c0,2.812,2.344,5.156,5.156,5.156s5.156-2.344,5.156-5.156
			h5.625v-18.75L393.594,202.188z"/>
		
			<linearGradient id="SVGID_21_" gradientUnits="userSpaceOnUse" x1="-209.8301" y1="866.4219" x2="-187.489" y2="879.3205" gradientTransform="matrix(2.3684 0 0 -2.3684 824.3685 2277.2632)">
			<stop  offset="0" style="stop-color:#F19A35"/>
			<stop  offset="0.2935" style="stop-color:#F5A941"/>
			<stop  offset="1" style="stop-color:#FFCB5C"/>
		</linearGradient>
		<path fill="url(#SVGID_21_)" d="M328.906,192.188v35.625h10c0,2.812,2.343,5.156,5.156,5.156s5.156-2.344,5.156-5.156h29.375
			v-35.625H328.906z"/>
		
			<linearGradient id="SVGID_22_" gradientUnits="userSpaceOnUse" x1="-212.2295" y1="865.3232" x2="-212.2295" y2="886.4766" gradientTransform="matrix(2.3684 0 0 -2.3684 824.3685 2277.2632)">
			<stop  offset="0" style="stop-color:#FFB73B"/>
			<stop  offset="1" style="stop-color:#FFE474"/>
		</linearGradient>
		<polygon fill="url(#SVGID_22_)" points="328.906,227.812 314.531,213.438 314.531,177.657 328.906,192.188 		"/>
		
			<linearGradient id="SVGID_23_" gradientUnits="userSpaceOnUse" x1="-202.4224" y1="879.1943" x2="-200.9277" y2="887.6708" gradientTransform="matrix(2.3684 0 0 -2.3684 824.3685 2277.2632)">
			<stop  offset="0" style="stop-color:#FFE883"/>
			<stop  offset="1" style="stop-color:#FFFFB5"/>
		</linearGradient>
		<polygon fill="url(#SVGID_23_)" points="328.906,192.188 314.531,177.657 364.375,177.657 378.906,192.188 		"/>
	</g>
	
		<linearGradient id="SVGID_24_" gradientUnits="userSpaceOnUse" x1="-2393.2925" y1="38.5029" x2="-2351.5549" y2="49.0628" gradientTransform="matrix(-1.6979 1.651 -1.651 -1.6979 -3900.3667 4195.2432)">
		<stop  offset="0" style="stop-color:#FFFFBA"/>
		<stop  offset="1" style="stop-color:#FFFFC2;stop-opacity:0"/>
	</linearGradient>
	<path opacity="0.5" fill="url(#SVGID_24_)" enable-background="new    " d="M11.25,170c0.312-1.875,1.093-3.75,2.656-5.313
		c3.594-3.438,9.375-3.438,12.812,0.157c0,0,0,0,0,0.156c0.312-0.312,0.625-0.781,0.938-1.094c3.906-3.75,10.156-3.906,14.062-0.156
		c2.5-1.25,5.625-0.782,7.5,1.25c0.938,0.938,1.562,2.188,1.718,3.438c2.031,0.156,4.219,0.938,5.782,2.656
		c2.5,2.656,3.125,6.406,1.719,9.531c0.938,0.156,1.875,0.625,2.656,1.406c1.25,1.25,1.718,2.969,1.25,4.688
		c2.5-1.093,5.468-0.468,7.344,1.406c0.469,0.625,0.938,1.25,1.25,1.875c2.188-1.093,5-0.781,6.875,1.094
		c0.312,0.312,0.625,0.782,0.938,1.25c0.156-0.156,0.156-0.312,0.312-0.312c2.344-2.187,5.938-2.187,8.125,0.157
		c1.406,1.406,1.875,3.281,1.562,5c2.344-0.468,4.844,0.156,6.562,1.875c1.875,1.875,2.344,4.688,1.719,7.031
		c1.25,0,2.656,0.313,3.594,1.406c1.406,1.406,1.719,3.438,0.938,5.157c1.875-1.094,4.375-0.782,5.938,0.937
		c0.156,0.156,0.156,0.312,0.312,0.312c0.312-0.625,0.625-1.406,1.25-1.875c1.875-1.875,5-1.875,7.031,0.156
		c0.312,0.312,0.468,0.469,0.625,0.781c1.406,0.156,2.969,0.938,4.062,2.031c1.875,1.875,2.344,4.531,1.718,6.719l0.313,7.031H11.25
		V170z"/>
	
		<linearGradient id="SVGID_25_" gradientUnits="userSpaceOnUse" x1="-212.4126" y1="875.3867" x2="-227.6063" y2="866.6146" gradientTransform="matrix(2.3684 0 0 -2.3684 824.3685 2277.2632)">
		<stop  offset="0" style="stop-color:#FFFFC2"/>
		<stop  offset="1" style="stop-color:#FFFFAA;stop-opacity:0"/>
	</linearGradient>
	<path opacity="0.5" fill="url(#SVGID_25_)" enable-background="new    " d="M287.188,196.407c0.625-1.562,2.344-2.813,4.219-2.813
		c2.5,0,4.531,2.031,4.531,4.532c1.875,0,3.281,1.562,3.281,3.281c0,0.781-0.312,1.406-0.625,2.031
		c1.094-0.781,2.5-1.406,4.062-1.406c2.656,0,4.844,1.562,5.938,3.75c0.781-2.188,2.812-3.75,5.312-3.75
		c1.25,0,2.344,0.312,3.125,0.937c0.469-0.469,1.094-0.625,1.875-0.625c1.562,0,2.812,1.25,2.812,2.812
		c0,0.625-0.156,1.25-0.625,1.719c2.187,0.625,3.75,2.656,3.75,5c0,0.625-0.156,1.25-0.312,1.719c2.5,0.156,4.531,2.188,4.531,4.844
		c0,0.469,0,0.938-0.156,1.406l0.156,7.969h-41.719v-31.406H287.188z"/>
	<g>
		
			<linearGradient id="SVGID_26_" gradientUnits="userSpaceOnUse" x1="-255.3721" y1="855.0488" x2="-247.9989" y2="834.7911" gradientTransform="matrix(2.3684 0 0 -2.3684 824.3685 2277.2632)">
			<stop  offset="0" style="stop-color:#000000"/>
			<stop  offset="0.147" style="stop-color:#000000;stop-opacity:0.853"/>
			<stop  offset="1" style="stop-color:#000000;stop-opacity:0"/>
		</linearGradient>
		<polygon opacity="0.2" fill="url(#SVGID_26_)" enable-background="new    " points="178.281,254.375 205.625,289.375 
			275.156,289.375 242.188,254.375 		"/>
		
			<linearGradient id="SVGID_27_" gradientUnits="userSpaceOnUse" x1="-247.7886" y1="849.9268" x2="-247.7886" y2="854.1917" gradientTransform="matrix(2.3684 0 0 -2.3684 824.3685 2277.2632)">
			<stop  offset="0" style="stop-color:#F19A35"/>
			<stop  offset="0.0098" style="stop-color:#F19A35"/>
			<stop  offset="1" style="stop-color:#E4782D"/>
		</linearGradient>
		<circle fill="url(#SVGID_27_)" cx="237.5" cy="259.219" r="5"/>
		
			<linearGradient id="SVGID_28_" gradientUnits="userSpaceOnUse" x1="-265.5352" y1="849.9268" x2="-265.5352" y2="854.1917" gradientTransform="matrix(2.3684 0 0 -2.3684 824.3685 2277.2632)">
			<stop  offset="0" style="stop-color:#F19A35"/>
			<stop  offset="0.0098" style="stop-color:#F19A35"/>
			<stop  offset="1" style="stop-color:#E4782D"/>
		</linearGradient>
		<circle fill="url(#SVGID_28_)" cx="195.469" cy="259.219" r="5"/>
		
			<linearGradient id="SVGID_29_" gradientUnits="userSpaceOnUse" x1="-248.9795" y1="856.5615" x2="-248.3759" y2="859.984" gradientTransform="matrix(2.3684 0 0 -2.3684 824.3685 2277.2632)">
			<stop  offset="0" style="stop-color:#FFE883"/>
			<stop  offset="1" style="stop-color:#FFFFB5"/>
		</linearGradient>
		<polygon fill="url(#SVGID_29_)" points="249.219,250.781 239.375,241.094 221.562,238.281 231.25,247.97 		"/>
		
			<linearGradient id="SVGID_30_" gradientUnits="userSpaceOnUse" x1="-270.9448" y1="851.5049" x2="-270.9448" y2="860.5536" gradientTransform="matrix(2.3684 0 0 -2.3684 824.3685 2277.2632)">
			<stop  offset="0" style="stop-color:#FFB73B"/>
			<stop  offset="1" style="stop-color:#FFE474"/>
		</linearGradient>
		<polygon fill="url(#SVGID_30_)" points="187.5,260.469 177.812,250.781 177.812,239.063 187.5,248.906 		"/>
		
			<linearGradient id="SVGID_31_" gradientUnits="userSpaceOnUse" x1="-269.7979" y1="856.5977" x2="-269.0615" y2="860.7736" gradientTransform="matrix(2.3684 0 0 -2.3684 824.3685 2277.2632)">
			<stop  offset="0" style="stop-color:#FFE883"/>
			<stop  offset="1" style="stop-color:#FFFFB5"/>
		</linearGradient>
		<polygon fill="url(#SVGID_31_)" points="187.5,248.906 177.812,239.063 184.843,238.125 194.688,247.97 		"/>
		
			<linearGradient id="SVGID_32_" gradientUnits="userSpaceOnUse" x1="-267.02" y1="856.8223" x2="-267.02" y2="864.5938" gradientTransform="matrix(2.3684 0 0 -2.3684 824.3685 2277.2632)">
			<stop  offset="0" style="stop-color:#FFB73B"/>
			<stop  offset="1" style="stop-color:#FFE474"/>
		</linearGradient>
		<polygon fill="url(#SVGID_32_)" points="194.688,247.97 185,238.125 189.219,229.531 198.906,239.219 		"/>
		
			<linearGradient id="SVGID_33_" gradientUnits="userSpaceOnUse" x1="-261.0161" y1="859.9375" x2="-260.1007" y2="865.1288" gradientTransform="matrix(2.3684 0 0 -2.3684 824.3685 2277.2632)">
			<stop  offset="0" style="stop-color:#FFE883"/>
			<stop  offset="1" style="stop-color:#FFFFB5"/>
		</linearGradient>
		<polygon fill="url(#SVGID_33_)" points="225.312,239.219 215.469,229.531 189.219,229.531 198.906,239.219 		"/>
		
			<linearGradient id="SVGID_34_" gradientUnits="userSpaceOnUse" x1="-266.916" y1="848.1016" x2="-245.6214" y2="860.3961" gradientTransform="matrix(2.3684 0 0 -2.3684 824.3685 2277.2632)">
			<stop  offset="0" style="stop-color:#F19A35"/>
			<stop  offset="0.2935" style="stop-color:#F5A941"/>
			<stop  offset="1" style="stop-color:#FFCB5C"/>
		</linearGradient>
		<path fill="url(#SVGID_34_)" d="M231.25,247.97l-5.938-8.594h-26.406l-4.219,8.594l-7.187,0.78v11.719h5.156c0,2.812,2.188,5,5,5
			s5-2.188,5-5h28.594h3.906c0,2.812,2.188,5,5,5s5-2.188,5-5h3.906v-9.844L231.25,247.97z"/>
	</g>
	<g>
		
			<linearGradient id="SVGID_35_" gradientUnits="userSpaceOnUse" x1="-178.3867" y1="855.7148" x2="-171.0134" y2="835.4569" gradientTransform="matrix(2.3684 0 0 -2.3684 824.3685 2277.2632)">
			<stop  offset="0" style="stop-color:#000000"/>
			<stop  offset="0.147" style="stop-color:#000000;stop-opacity:0.853"/>
			<stop  offset="1" style="stop-color:#000000;stop-opacity:0"/>
		</linearGradient>
		<polygon opacity="0.2" fill="url(#SVGID_35_)" enable-background="new    " points="360.625,252.812 387.812,287.812 
			457.5,287.812 424.531,252.812 		"/>
		
			<linearGradient id="SVGID_36_" gradientUnits="userSpaceOnUse" x1="-170.7993" y1="850.5898" x2="-170.7993" y2="854.8557" gradientTransform="matrix(2.3684 0 0 -2.3684 824.3685 2277.2632)">
			<stop  offset="0" style="stop-color:#F19A35"/>
			<stop  offset="0.0098" style="stop-color:#F19A35"/>
			<stop  offset="1" style="stop-color:#E4782D"/>
		</linearGradient>
		<circle fill="url(#SVGID_36_)" cx="419.844" cy="257.656" r="5"/>
		
			<linearGradient id="SVGID_37_" gradientUnits="userSpaceOnUse" x1="-188.5454" y1="850.5898" x2="-188.5454" y2="854.8557" gradientTransform="matrix(2.3684 0 0 -2.3684 824.3685 2277.2632)">
			<stop  offset="0" style="stop-color:#F19A35"/>
			<stop  offset="0.0098" style="stop-color:#F19A35"/>
			<stop  offset="1" style="stop-color:#E4782D"/>
		</linearGradient>
		<circle fill="url(#SVGID_37_)" cx="377.812" cy="257.656" r="5"/>
		
			<linearGradient id="SVGID_38_" gradientUnits="userSpaceOnUse" x1="-172.021" y1="857.2295" x2="-171.4175" y2="860.652" gradientTransform="matrix(2.3684 0 0 -2.3684 824.3685 2277.2632)">
			<stop  offset="0" style="stop-color:#FFE883"/>
			<stop  offset="1" style="stop-color:#FFFFB5"/>
		</linearGradient>
		<polygon fill="url(#SVGID_38_)" points="431.406,249.219 421.719,239.531 403.906,236.719 413.594,246.406 		"/>
		
			<linearGradient id="SVGID_39_" gradientUnits="userSpaceOnUse" x1="-193.9556" y1="852.1689" x2="-193.9556" y2="861.217" gradientTransform="matrix(2.3684 0 0 -2.3684 824.3685 2277.2632)">
			<stop  offset="0" style="stop-color:#FFB73B"/>
			<stop  offset="1" style="stop-color:#FFE474"/>
		</linearGradient>
		<polygon fill="url(#SVGID_39_)" points="369.844,258.906 360.156,249.219 360.156,237.5 369.844,247.344 		"/>
		
			<linearGradient id="SVGID_40_" gradientUnits="userSpaceOnUse" x1="-192.8394" y1="857.2637" x2="-192.1032" y2="861.4384" gradientTransform="matrix(2.3684 0 0 -2.3684 824.3685 2277.2632)">
			<stop  offset="0" style="stop-color:#FFE883"/>
			<stop  offset="1" style="stop-color:#FFFFB5"/>
		</linearGradient>
		<polygon fill="url(#SVGID_40_)" points="369.844,247.344 360,237.5 367.188,236.562 377.031,246.406 		"/>
		
			<linearGradient id="SVGID_41_" gradientUnits="userSpaceOnUse" x1="-190.0298" y1="857.4863" x2="-190.0298" y2="865.2579" gradientTransform="matrix(2.3684 0 0 -2.3684 824.3685 2277.2632)">
			<stop  offset="0" style="stop-color:#FFB73B"/>
			<stop  offset="1" style="stop-color:#FFE474"/>
		</linearGradient>
		<polygon fill="url(#SVGID_41_)" points="377.031,246.406 367.344,236.562 371.563,227.969 381.25,237.656 		"/>
		
			<linearGradient id="SVGID_42_" gradientUnits="userSpaceOnUse" x1="-184.0576" y1="860.6055" x2="-183.1422" y2="865.7968" gradientTransform="matrix(2.3684 0 0 -2.3684 824.3685 2277.2632)">
			<stop  offset="0" style="stop-color:#FFE883"/>
			<stop  offset="1" style="stop-color:#FFFFB5"/>
		</linearGradient>
		<polygon fill="url(#SVGID_42_)" points="407.656,237.656 397.812,227.969 371.406,227.969 381.25,237.656 		"/>
		
			<linearGradient id="SVGID_43_" gradientUnits="userSpaceOnUse" x1="-189.9277" y1="848.7607" x2="-168.6332" y2="861.0552" gradientTransform="matrix(2.3684 0 0 -2.3684 824.3685 2277.2632)">
			<stop  offset="0" style="stop-color:#F19A35"/>
			<stop  offset="0.2935" style="stop-color:#F5A941"/>
			<stop  offset="1" style="stop-color:#FFCB5C"/>
		</linearGradient>
		<path fill="url(#SVGID_43_)" d="M413.594,246.406l-5.938-8.594H381.25l-4.219,8.594l-7.188,0.781v11.719H375c0,2.812,2.188,5,5,5
			s5-2.188,5-5h28.594h3.906c0,2.812,2.188,5,5,5s5-2.188,5-5h3.906v-9.844L413.594,246.406z"/>
	</g>
	<g>
		
			<linearGradient id="SVGID_44_" gradientUnits="userSpaceOnUse" x1="-213.6582" y1="855.6387" x2="-206.184" y2="835.1035" gradientTransform="matrix(2.3684 0 0 -2.3684 824.3685 2277.2632)">
			<stop  offset="0" style="stop-color:#000000"/>
			<stop  offset="0.147" style="stop-color:#000000;stop-opacity:0.853"/>
			<stop  offset="1" style="stop-color:#000000;stop-opacity:0"/>
		</linearGradient>
		<polygon opacity="0.2" fill="url(#SVGID_44_)" enable-background="new    " points="276.563,252.969 304.219,288.594 
			374.688,288.594 341.25,252.969 		"/>
		
			<linearGradient id="SVGID_45_" gradientUnits="userSpaceOnUse" x1="-223.7749" y1="850.9766" x2="-223.7749" y2="855.4731" gradientTransform="matrix(2.3684 0 0 -2.3684 824.3685 2277.2632)">
			<stop  offset="0" style="stop-color:#F19A35"/>
			<stop  offset="0.0098" style="stop-color:#F19A35"/>
			<stop  offset="1" style="stop-color:#E4782D"/>
		</linearGradient>
		<circle fill="url(#SVGID_45_)" cx="294.375" cy="256.406" r="5.312"/>
		
			<linearGradient id="SVGID_46_" gradientUnits="userSpaceOnUse" x1="-205.9624" y1="850.9766" x2="-205.9624" y2="855.4731" gradientTransform="matrix(2.3684 0 0 -2.3684 824.3685 2277.2632)">
			<stop  offset="0" style="stop-color:#F19A35"/>
			<stop  offset="0.0098" style="stop-color:#F19A35"/>
			<stop  offset="1" style="stop-color:#E4782D"/>
		</linearGradient>
		<circle fill="url(#SVGID_46_)" cx="336.562" cy="256.406" r="5.312"/>
		
			<linearGradient id="SVGID_47_" gradientUnits="userSpaceOnUse" x1="-207.1489" y1="859.1475" x2="-206.4253" y2="863.2514" gradientTransform="matrix(2.3684 0 0 -2.3684 824.3685 2277.2632)">
			<stop  offset="0" style="stop-color:#FFE883"/>
			<stop  offset="1" style="stop-color:#FFFFB5"/>
		</linearGradient>
		<polygon fill="url(#SVGID_47_)" points="348.594,243.594 338.125,233.126 320.625,231.562 331.094,242.032 		"/>
		
			<linearGradient id="SVGID_48_" gradientUnits="userSpaceOnUse" x1="-228.6567" y1="859.3564" x2="-228.6567" y2="868.1973" gradientTransform="matrix(2.3684 0 0 -2.3684 824.3685 2277.2632)">
			<stop  offset="0" style="stop-color:#FFBA50"/>
			<stop  offset="1" style="stop-color:#FFEC86"/>
		</linearGradient>
		<polygon fill="url(#SVGID_48_)" points="286.719,241.875 276.25,231.406 278.906,220.938 289.375,231.406 		"/>
		
			<linearGradient id="SVGID_49_" gradientUnits="userSpaceOnUse" x1="-229.2173" y1="852.8994" x2="-229.2173" y2="863.769" gradientTransform="matrix(2.3684 0 0 -2.3684 824.3685 2277.2632)">
			<stop  offset="0" style="stop-color:#FFB73B"/>
			<stop  offset="1" style="stop-color:#FFE474"/>
		</linearGradient>
		<polygon fill="url(#SVGID_49_)" points="286.719,242.032 276.25,231.562 276.25,246.719 286.719,257.188 		"/>
		
			<linearGradient id="SVGID_50_" gradientUnits="userSpaceOnUse" x1="-221.3745" y1="862.9824" x2="-220.3141" y2="868.9961" gradientTransform="matrix(2.3684 0 0 -2.3684 824.3685 2277.2632)">
			<stop  offset="0" style="stop-color:#FFE883"/>
			<stop  offset="1" style="stop-color:#FFFFB5"/>
		</linearGradient>
		<polygon fill="url(#SVGID_50_)" points="289.375,231.406 278.906,220.938 313.281,220.938 323.75,231.406 		"/>
		
			<linearGradient id="SVGID_51_" gradientUnits="userSpaceOnUse" x1="-225.8174" y1="850.8115" x2="-203.7266" y2="863.5656" gradientTransform="matrix(2.3684 0 0 -2.3684 824.3685 2277.2632)">
			<stop  offset="0" style="stop-color:#F19A35"/>
			<stop  offset="0.2935" style="stop-color:#F5A941"/>
			<stop  offset="1" style="stop-color:#FFCB5C"/>
		</linearGradient>
		<path fill="url(#SVGID_51_)" d="M348.594,243.75l-17.656-1.718l0,0l-7.188-10.47h-34.375l-2.812,10.47v15.312h5l0,0
			c0,3.125,2.5,5.625,5.625,5.625c3.125,0,5.625-2.5,5.625-5.625l0,0h28.125h3.281l0,0c0,3.125,2.5,5.625,5.625,5.625
			s5.625-2.5,5.625-5.625l0,0h3.281V243.75H348.594z"/>
	</g>
	
		<linearGradient id="SVGID_52_" gradientUnits="userSpaceOnUse" x1="-192.3574" y1="858.8105" x2="-201.4409" y2="853.5662" gradientTransform="matrix(2.3684 0 0 -2.3684 824.3685 2277.2632)">
		<stop  offset="0" style="stop-color:#FFF3C3"/>
		<stop  offset="1" style="stop-color:#FFFFBC;stop-opacity:0"/>
	</linearGradient>
	<path opacity="0.5" fill="url(#SVGID_52_)" enable-background="new    " d="M369.844,256.094c0-1.719-1.406-2.969-2.969-2.969
		c-1.406,0-2.656,1.095-2.969,2.344c-0.625-2.344-2.812-4.218-5.312-4.218c-0.938,0-1.719,0.155-2.5,0.624
		c-0.156-0.938-0.938-1.719-2.032-1.719c-0.156,0-0.312,0-0.468,0c1.094-0.625,1.875-1.719,1.875-3.125
		c0-1.25-0.625-2.344-1.562-2.969c0.156-0.469,0.312-0.938,0.312-1.406c0-2.188-1.719-3.906-3.906-3.906
		c-1.562,0-2.969,0.938-3.594,2.344c-0.312-0.312-0.781-0.469-1.25-0.469c-1.094,0-2.031,0.938-2.031,2.031v16.25H370v-2.812
		H369.844z"/>
	
		<linearGradient id="SVGID_53_" gradientUnits="userSpaceOnUse" x1="-227.4688" y1="859.4951" x2="-236.5525" y2="854.2506" gradientTransform="matrix(2.3684 0 0 -2.3684 824.3685 2277.2632)">
		<stop  offset="0" style="stop-color:#FFF3C3"/>
		<stop  offset="1" style="stop-color:#FFFFBC;stop-opacity:0"/>
	</linearGradient>
	<path opacity="0.5" fill="url(#SVGID_53_)" enable-background="new    " d="M286.719,254.375c0-1.719-1.406-2.969-2.969-2.969
		c-1.406,0-2.656,1.094-2.969,2.344c-0.625-2.344-2.812-4.219-5.312-4.219c-0.938,0-1.719,0.156-2.5,0.625
		c-0.156-0.938-0.938-1.719-2.032-1.719c-0.156,0-0.312,0-0.468,0c1.094-0.625,1.875-1.719,1.875-3.124
		c0-1.251-0.625-2.345-1.562-2.969c0.156-0.47,0.312-0.938,0.312-1.407c0-2.188-1.719-3.906-3.906-3.906
		c-1.562,0-2.969,0.938-3.594,2.345c-0.312-0.312-0.781-0.47-1.25-0.47c-1.094,0-2.031,0.938-2.031,2.031v16.406h26.562v-2.969
		H286.719z"/>
	
		<linearGradient id="SVGID_54_" gradientUnits="userSpaceOnUse" x1="-269.3418" y1="858.1543" x2="-278.4252" y2="852.91" gradientTransform="matrix(2.3684 0 0 -2.3684 824.3685 2277.2632)">
		<stop  offset="0" style="stop-color:#FFF3C3"/>
		<stop  offset="1" style="stop-color:#FFFFBC;stop-opacity:0"/>
	</linearGradient>
	<path opacity="0.5" fill="url(#SVGID_54_)" enable-background="new    " d="M187.5,257.656c0-1.719-1.407-2.969-2.969-2.969
		c-1.407,0-2.657,1.094-2.969,2.344c-0.625-2.344-2.813-4.219-5.313-4.219c-0.938,0-1.719,0.156-2.5,0.625
		c-0.156-0.938-0.938-1.719-2.031-1.719c-0.156,0-0.312,0-0.469,0c1.093-0.625,1.875-1.719,1.875-3.125
		c0-1.25-0.625-2.344-1.562-2.969c0.156-0.469,0.312-0.938,0.312-1.406c0-2.187-1.719-3.906-3.906-3.906
		c-1.563,0-2.969,0.938-3.594,2.344c-0.313-0.312-0.781-0.469-1.25-0.469c-1.094,0-2.032,0.938-2.032,2.031v16.25h26.563v-2.812
		H187.5z"/>
</g>
</svg>
