<?xml version="1.0" encoding="utf-8"?>
<!-- Generator: Adobe Illustrator 16.0.4, SVG Export Plug-In . SVG Version: 6.00 Build 0)  -->
<!DOCTYPE svg PUBLIC "-//W3C//DTD SVG 1.1//EN" "http://www.w3.org/Graphics/SVG/1.1/DTD/svg11.dtd">
<svg version="1.1" id="图层_1" xmlns="http://www.w3.org/2000/svg" xmlns:xlink="http://www.w3.org/1999/xlink" x="0px" y="0px"
	 width="500px" height="530px" viewBox="0 0 500 530" enable-background="new 0 0 500 530" xml:space="preserve">
<g>
	
		<radialGradient id="SVGID_1_" cx="-292.8428" cy="1047.5771" r="102.223" gradientTransform="matrix(1.5566 0 0 -0.8981 700.7852 1126.38)" gradientUnits="userSpaceOnUse">
		<stop  offset="0" style="stop-color:#81DCFF"/>
		<stop  offset="1" style="stop-color:#53CDFF;stop-opacity:0"/>
	</radialGradient>
	<path opacity="0.3" fill="url(#SVGID_1_)" enable-background="new    " d="M500,351.797v-85.938
		c-49.531-49.063-142.812-82.188-250-82.188S49.531,216.796,0,265.859v85.938H500z"/>
	
		<linearGradient id="SVGID_2_" gradientUnits="userSpaceOnUse" x1="-265.7832" y1="848.6201" x2="-238.0959" y2="800.6644" gradientTransform="matrix(2.3684 0 0 -2.3684 824.3685 2277.2632)">
		<stop  offset="0" style="stop-color:#000000"/>
		<stop  offset="0.1443" style="stop-color:#000000;stop-opacity:0.8557"/>
		<stop  offset="1" style="stop-color:#000000;stop-opacity:0"/>
	</linearGradient>
	<polygon opacity="0.2" fill="url(#SVGID_2_)" enable-background="new    " points="193.438,268.203 243.594,375.234 
		270.625,375.078 207.812,268.203 	"/>
	
		<linearGradient id="SVGID_3_" gradientUnits="userSpaceOnUse" x1="-221.7539" y1="870.666" x2="-165.4968" y2="773.2259" gradientTransform="matrix(2.3684 0 0 -2.3684 824.3685 2277.2632)">
		<stop  offset="0" style="stop-color:#000000"/>
		<stop  offset="0.1443" style="stop-color:#000000;stop-opacity:0.8557"/>
		<stop  offset="1" style="stop-color:#000000;stop-opacity:0"/>
	</linearGradient>
	<polygon opacity="0.2" fill="url(#SVGID_3_)" enable-background="new    " points="250.312,243.359 374.219,417.891 
		481.25,417.734 360.625,277.734 	"/>
	
		<linearGradient id="SVGID_4_" gradientUnits="userSpaceOnUse" x1="-238.959" y1="873.8926" x2="-214.8572" y2="832.147" gradientTransform="matrix(2.3684 0 0 -2.3684 824.3685 2277.2632)">
		<stop  offset="0" style="stop-color:#000000"/>
		<stop  offset="0.1443" style="stop-color:#000000;stop-opacity:0.8557"/>
		<stop  offset="1" style="stop-color:#000000;stop-opacity:0"/>
	</linearGradient>
	<polygon opacity="0.2" fill="url(#SVGID_4_)" enable-background="new    " points="249.375,212.734 302.5,301.172 324.531,301.172 
		260.469,212.734 	"/>
	<g>
		
			<linearGradient id="SVGID_5_" gradientUnits="userSpaceOnUse" x1="-241.752" y1="870.5234" x2="-239.3546" y2="879.4704" gradientTransform="matrix(2.3684 0 0 -2.3684 824.3685 2277.2632)">
			<stop  offset="0" style="stop-color:#7FE7FF"/>
			<stop  offset="0.1477" style="stop-color:#76E1FD"/>
			<stop  offset="0.3919" style="stop-color:#5DD0F6"/>
			<stop  offset="0.7004" style="stop-color:#34B5EC"/>
			<stop  offset="1" style="stop-color:#0697E1"/>
		</linearGradient>
		<path fill="url(#SVGID_5_)" d="M249.531,195.078v17.812c0,1.719,2.344,3.281,5.312,3.281s5.312-1.406,5.312-3.281v-17.812H249.531
			z"/>
		
			<linearGradient id="SVGID_6_" gradientUnits="userSpaceOnUse" x1="-242.3252" y1="876.0469" x2="-234.3416" y2="905.842" gradientTransform="matrix(2.3684 0 0 -2.3684 824.3685 2277.2632)">
			<stop  offset="0" style="stop-color:#7FE7FF"/>
			<stop  offset="1" style="stop-color:#0697E1"/>
		</linearGradient>
		<path fill="url(#SVGID_6_)" d="M227.5,185.391c0,0,3.906,16.719,27.344,16.719s27.657-16.719,27.657-16.719l-27.5-57.5
			L227.5,185.391z"/>
		
			<linearGradient id="SVGID_7_" gradientUnits="userSpaceOnUse" x1="-241.9624" y1="885.5068" x2="-235.5688" y2="909.3682" gradientTransform="matrix(2.3684 0 0 -2.3684 824.3685 2277.2632)">
			<stop  offset="0" style="stop-color:#7FE7FF"/>
			<stop  offset="1" style="stop-color:#0697E1"/>
		</linearGradient>
		<path fill="url(#SVGID_7_)" d="M232.969,166.484c0,0,3.125,13.281,21.875,13.281c18.75,0,22.031-13.281,22.031-13.281
			l-22.031-46.094L232.969,166.484z"/>
		
			<linearGradient id="SVGID_8_" gradientUnits="userSpaceOnUse" x1="-241.7236" y1="894.0352" x2="-236.5973" y2="913.1669" gradientTransform="matrix(2.3684 0 0 -2.3684 824.3685 2277.2632)">
			<stop  offset="0" style="stop-color:#7FE7FF"/>
			<stop  offset="1" style="stop-color:#CBF2F8"/>
		</linearGradient>
		<path fill="url(#SVGID_8_)" d="M237.188,148.984c0,0,2.5,10.625,17.5,10.625c15.156,0,17.656-10.625,17.656-10.625l-17.656-36.875
			L237.188,148.984z"/>
	</g>
	<g>
		
			<linearGradient id="SVGID_9_" gradientUnits="userSpaceOnUse" x1="-265.0332" y1="846.6953" x2="-261.9451" y2="858.2204" gradientTransform="matrix(2.3684 0 0 -2.3684 824.3685 2277.2632)">
			<stop  offset="0" style="stop-color:#7FE7FF"/>
			<stop  offset="0.1477" style="stop-color:#76E1FD"/>
			<stop  offset="0.3919" style="stop-color:#5DD0F6"/>
			<stop  offset="0.7004" style="stop-color:#34B5EC"/>
			<stop  offset="1" style="stop-color:#0697E1"/>
		</linearGradient>
		<path fill="url(#SVGID_9_)" d="M193.75,245.547v22.812c0,2.344,3.125,4.219,6.875,4.219s6.875-1.875,6.875-4.219v-22.812H193.75z"
			/>
		
			<linearGradient id="SVGID_10_" gradientUnits="userSpaceOnUse" x1="-265.8701" y1="853.8701" x2="-255.3918" y2="892.976" gradientTransform="matrix(2.3684 0 0 -2.3684 824.3685 2277.2632)">
			<stop  offset="0" style="stop-color:#7FE7FF"/>
			<stop  offset="1" style="stop-color:#0697E1"/>
		</linearGradient>
		<path fill="url(#SVGID_10_)" d="M165.312,232.734c0,0,5,21.875,35.156,21.875s35.469-21.875,35.469-21.875l-35.312-75.469
			L165.312,232.734z"/>
		
			<linearGradient id="SVGID_11_" gradientUnits="userSpaceOnUse" x1="-265.3701" y1="865.6992" x2="-256.9921" y2="896.9664" gradientTransform="matrix(2.3684 0 0 -2.3684 824.3685 2277.2632)">
			<stop  offset="0" style="stop-color:#7FE7FF"/>
			<stop  offset="1" style="stop-color:#0697E1"/>
		</linearGradient>
		<path fill="url(#SVGID_11_)" d="M172.343,209.141c0,0,3.907,17.5,28.125,17.5s28.438-17.5,28.438-17.5l-28.281-60.313
			L172.343,209.141z"/>
		
			<linearGradient id="SVGID_12_" gradientUnits="userSpaceOnUse" x1="-264.9644" y1="874.667" x2="-258.252" y2="899.7179" gradientTransform="matrix(2.3684 0 0 -2.3684 824.3685 2277.2632)">
			<stop  offset="0" style="stop-color:#7FE7FF"/>
			<stop  offset="1" style="stop-color:#0697E1"/>
		</linearGradient>
		<path fill="url(#SVGID_12_)" d="M177.969,191.484c0,0,3.125,14.062,22.5,14.062c19.375,0,22.812-14.062,22.812-14.062
			l-22.656-48.281L177.969,191.484z"/>
		
			<linearGradient id="SVGID_13_" gradientUnits="userSpaceOnUse" x1="-264.6709" y1="881.8379" x2="-259.0404" y2="902.851" gradientTransform="matrix(2.3684 0 0 -2.3684 824.3685 2277.2632)">
			<stop  offset="0" style="stop-color:#7FE7FF"/>
			<stop  offset="1" style="stop-color:#CBF2F8"/>
		</linearGradient>
		<path fill="url(#SVGID_13_)" d="M181.719,176.797c0,0,2.656,11.719,18.906,11.719c16.25,0,19.062-11.719,19.062-11.719
			l-19.062-40.469L181.719,176.797z"/>
	</g>
	<g>
		
			<linearGradient id="SVGID_14_" gradientUnits="userSpaceOnUse" x1="-206.957" y1="843.2178" x2="-200.7443" y2="866.4042" gradientTransform="matrix(2.3684 0 0 -2.3684 824.3685 2277.2632)">
			<stop  offset="0" style="stop-color:#42C3F5"/>
			<stop  offset="1" style="stop-color:#0697E1"/>
		</linearGradient>
		<polygon fill="url(#SVGID_14_)" points="322.656,277.734 360.625,277.734 322.656,227.109 		"/>
		
			<linearGradient id="SVGID_15_" gradientUnits="userSpaceOnUse" x1="-529.0303" y1="709.0996" x2="-515.672" y2="719.1493" gradientTransform="matrix(4.1895 0 0 -3.2151 2498.8408 2555.4739)">
			<stop  offset="0" style="stop-color:#42C3F5"/>
			<stop  offset="1" style="stop-color:#0697E1"/>
		</linearGradient>
		<polygon fill="url(#SVGID_15_)" points="322.656,277.734 322.656,227.109 284.531,277.734 		"/>
		
			<linearGradient id="SVGID_16_" gradientUnits="userSpaceOnUse" x1="-210.1753" y1="847.1709" x2="-214.4602" y2="849.6448" gradientTransform="matrix(2.3684 0 0 -2.3684 824.3685 2277.2632)">
			<stop  offset="0" style="stop-color:#3BA8F5"/>
			<stop  offset="1" style="stop-color:#098BBE"/>
		</linearGradient>
		<polygon fill="url(#SVGID_16_)" points="322.656,277.734 322.656,254.297 313.906,277.734 		"/>
		
			<linearGradient id="SVGID_17_" gradientUnits="userSpaceOnUse" x1="-222.6748" y1="845.6543" x2="-231.5245" y2="878.6816" gradientTransform="matrix(2.3684 0 0 -2.3684 824.3685 2277.2632)">
			<stop  offset="0" style="stop-color:#3AC7F2"/>
			<stop  offset="1" style="stop-color:#A9EDFF"/>
		</linearGradient>
		<polygon fill="url(#SVGID_17_)" points="284.531,277.734 250.312,243.359 288.281,192.891 322.656,227.109 		"/>
		
			<linearGradient id="SVGID_18_" gradientUnits="userSpaceOnUse" x1="-216.0845" y1="850.582" x2="-211.1505" y2="847.7335" gradientTransform="matrix(2.3684 0 0 -2.3684 824.3685 2277.2632)">
			<stop  offset="0" style="stop-color:#63D2F5"/>
			<stop  offset="1" style="stop-color:#0697E1"/>
		</linearGradient>
		<polyline fill="url(#SVGID_18_)" points="322.656,254.297 310.156,271.328 313.906,277.734 		"/>
	</g>
</g>
</svg>
