<?xml version="1.0" encoding="utf-8"?>
<!-- Generator: Adobe Illustrator 17.0.0, SVG Export Plug-In . SVG Version: 6.00 Build 0)  -->
<!DOCTYPE svg PUBLIC "-//W3C//DTD SVG 1.1//EN" "http://www.w3.org/Graphics/SVG/1.1/DTD/svg11.dtd">
<svg version="1.1" id="图层_1" xmlns="http://www.w3.org/2000/svg" xmlns:xlink="http://www.w3.org/1999/xlink" x="0px" y="0px"
	 width="72px" height="72px" viewBox="0 0 72 72" enable-background="new 0 0 72 72" xml:space="preserve">
<g opacity="0.2">
	<path d="M36,24c-7.7,0-14,6.3-14,14c0,7.7,6.3,14,14,14c7.7,0,14-6.3,14-14C50,30.2,43.7,24,36,24z M44.5,46.5
		C42.3,48.7,39.3,50,36,50c-3.3,0-6.3-1.3-8.5-3.5C25.3,44.3,24,41.3,24,38c0-3.3,1.3-6.3,3.5-8.5c2.2-2.2,5.2-3.5,8.5-3.5
		c3.3,0,6.3,1.3,8.5,3.5c2.2,2.2,3.5,5.2,3.5,8.5C48,41.3,46.7,44.3,44.5,46.5z"/>
	<path d="M40.6,32.4c-0.3,0-0.5,0.1-0.7,0.3l-3.1,3.1c-0.2-0.1-0.5-0.1-0.7-0.1c-1.2,0-2.2,1-2.2,2.3c0,1.2,1,2.2,2.2,2.2
		c1.2,0,2.2-1,2.3-2.2c0-0.3,0-0.5-0.1-0.7l3.1-3.1c0.4-0.4,0.4-1,0-1.4C41.1,32.5,40.8,32.4,40.6,32.4z"/>
	<path d="M30.7,22h10.4c0.6,0,1-0.4,1-1s-0.4-1-1-1H30.7c-0.6,0-1,0.4-1,1S30.1,22,30.7,22z"/>
</g>
</svg>
