<?xml version="1.0" encoding="utf-8"?>
<!-- Generator: Adobe Illustrator 17.0.0, SVG Export Plug-In . SVG Version: 6.00 Build 0)  -->
<!DOCTYPE svg PUBLIC "-//W3C//DTD SVG 1.1//EN" "http://www.w3.org/Graphics/SVG/1.1/DTD/svg11.dtd">
<svg version="1.1" id="图层_1" xmlns="http://www.w3.org/2000/svg" xmlns:xlink="http://www.w3.org/1999/xlink" x="0px" y="0px"
	 width="72px" height="72px" viewBox="0 0 72 72" enable-background="new 0 0 72 72" xml:space="preserve">
<g opacity="0.2">
	<path d="M44.8,25.9c-0.2-0.1-0.4-0.2-0.6-0.2c-0.3,0-0.6,0.1-0.8,0.4c-0.3,0.4-0.3,1.1,0.2,1.4c3,2.3,4.9,5.9,4.9,10
		c0,3.5-1.4,6.6-3.7,8.9C42.6,48.6,39.5,50,36,50c-3.5,0-6.6-1.4-8.9-3.7c-2.3-2.3-3.7-5.4-3.7-8.9c0-4.1,1.9-7.7,4.9-10
		c0.4-0.3,0.5-1,0.2-1.4c-0.2-0.3-0.5-0.4-0.8-0.4c-0.2,0-0.4,0.1-0.6,0.2c-3.5,2.7-5.7,6.8-5.7,11.6C21.4,45.5,28,52,36,52
		c8,0,14.6-6.5,14.6-14.6C50.6,32.7,48.3,28.5,44.8,25.9z"/>
	<path d="M36,32.4c0.6,0,1-0.4,1-1V21c0-0.6-0.4-1-1-1c-0.6,0-1,0.4-1,1v10.4C35,32,35.4,32.4,36,32.4z"/>
</g>
</svg>
