<?xml version="1.0" encoding="utf-8"?>
<!-- Generator: Adobe Illustrator 17.0.0, SVG Export Plug-In . SVG Version: 6.00 Build 0)  -->
<!DOCTYPE svg PUBLIC "-//W3C//DTD SVG 1.1//EN" "http://www.w3.org/Graphics/SVG/1.1/DTD/svg11.dtd">
<svg version="1.1" id="图层_1" xmlns="http://www.w3.org/2000/svg" xmlns:xlink="http://www.w3.org/1999/xlink" x="0px" y="0px"
	 width="24px" height="24px" viewBox="0 0 24 24" enable-background="new 0 0 24 24" xml:space="preserve">
<g opacity="0.2">
	<path d="M12,0.3C5.5,0.3,0.3,5.5,0.3,12c0,6.5,5.3,11.7,11.7,11.7c6.5,0,11.7-5.3,11.8-11.7C23.7,5.5,18.5,0.3,12,0.3z M19.2,19.2
		c-1.9,1.9-4.4,3-7.2,3c-2.8,0-5.4-1.1-7.2-3c-1.9-1.9-3-4.4-3-7.2c0-2.8,1.1-5.4,3-7.2c1.9-1.9,4.4-3,7.2-3c2.8,0,5.4,1.1,7.2,3
		c1.9,1.9,3,4.4,3,7.2C22.2,14.8,21.1,17.4,19.2,19.2z"/>
	<path d="M17.8,6.2C17.6,6.1,17.4,6,17.2,6c-0.2,0-0.4,0.1-0.5,0.2L12,10.9L7.3,6.2C7.1,6.1,7,6,6.8,6C6.6,6,6.4,6.1,6.2,6.2
		C5.9,6.5,5.9,7,6.2,7.3l4.7,4.7l-4.7,4.7c-0.3,0.3-0.3,0.8,0,1.1C6.4,17.9,6.6,18,6.8,18c0.2,0,0.4-0.1,0.5-0.2l4.7-4.7l4.7,4.7
		c0.1,0.1,0.3,0.2,0.5,0.2c0.2,0,0.4-0.1,0.5-0.2c0.3-0.3,0.3-0.8,0-1.1L13.1,12l4.7-4.7C18.1,7,18.1,6.5,17.8,6.2z"/>
</g>
</svg>
