<?xml version="1.0" encoding="utf-8"?>
<!-- Generator: Adobe Illustrator 16.0.4, SVG Export Plug-In . SVG Version: 6.00 Build 0)  -->
<!DOCTYPE svg PUBLIC "-//W3C//DTD SVG 1.1//EN" "http://www.w3.org/Graphics/SVG/1.1/DTD/svg11.dtd">
<svg version="1.1" id="图层_1" xmlns="http://www.w3.org/2000/svg" xmlns:xlink="http://www.w3.org/1999/xlink" x="0px" y="0px"
	 width="100px" height="100px" viewBox="0 0 100 100" enable-background="new 0 0 100 100" xml:space="preserve">
<path fill="#FFFFFF" d="M50,0.5C22.775,0.5,0.5,22.775,0.5,50S22.775,99.5,50,99.5S99.5,77.225,99.5,50S77.534,0.5,50,0.5z
	 M50,92.694c-18.872,0-30.009-11.447-30.009-11.447c0-10.828,4.022-18.253,20.109-20.419c7.425-2.784,3.403-5.259,3.403-5.259l0,0
	c-6.188-3.094-10.209-10.209-10.209-17.634c0-9.9,5.568-17.944,16.706-17.944s16.706,8.043,16.706,17.944
	c0,7.425-4.331,14.541-10.209,17.634l0,0c0,0-3.713,2.475,3.403,5.259c16.087,1.856,20.109,9.9,20.109,20.728
	C80.009,81.556,68.253,92.694,50,92.694z"/>
</svg>
