<?xml version="1.0" encoding="utf-8"?>
<!-- Generator: Adobe Illustrator 17.1.0, SVG Export Plug-In . SVG Version: 6.00 Build 0)  -->
<!DOCTYPE svg PUBLIC "-//W3C//DTD SVG 1.1//EN" "http://www.w3.org/Graphics/SVG/1.1/DTD/svg11.dtd">
<svg version="1.1" id="图层_1" xmlns="http://www.w3.org/2000/svg" xmlns:xlink="http://www.w3.org/1999/xlink" x="0px" y="0px"
	 viewBox="0 0 88 88" enable-background="new 0 0 88 88" xml:space="preserve">
<g>
	<path opacity="0.2" d="M44,18l-10.6,7.3v-2H34v-3.5h-8v3.5h0.6v6.7L14,38.6h5.3L18.3,70h51.5l-1.2-31.5H74L44,18z M54.7,62.5V63
		H44.5h-0.9H33.4V41.7h10.2h0.9h10.2V62.5z"/>
	<g>
		<path opacity="0.2" d="M34.2,42.6v19.5h9.3V42.6H34.2z M42.2,60.7h-6.7v-1.1h6.7V60.7z M42.2,57.6h-6.7v-1.1h6.7V57.6z M42.2,54.5
			h-6.7v-1.1h6.7V54.5z M42.2,51.4h-6.7v-1.1h6.7V51.4z M42.2,48.4h-6.7v-1.1h6.7V48.4z M42.2,45.3h-6.7v-1.1h6.7V45.3z"/>
		<path opacity="0.2" d="M44.5,42.6v19.5h9.3V42.6H44.5z M52.5,60.7h-6.7v-1.1h6.7V60.7z M52.5,57.6h-6.7v-1.1h6.7V57.6z M52.5,54.5
			h-6.7v-1.1h6.7V54.5z M52.5,51.4h-6.7v-1.1h6.7V51.4z M52.5,48.4h-6.7v-1.1h6.7V48.4z M52.5,45.3h-6.7v-1.1h6.7V45.3z"/>
	</g>
</g>
</svg>
