<?xml version="1.0" encoding="utf-8"?>
<!-- Generator: Adobe Illustrator 17.0.0, SVG Export Plug-In . SVG Version: 6.00 Build 0)  -->
<!DOCTYPE svg PUBLIC "-//W3C//DTD SVG 1.1//EN" "http://www.w3.org/Graphics/SVG/1.1/DTD/svg11.dtd">
<svg version="1.1" id="图层_1" xmlns="http://www.w3.org/2000/svg" xmlns:xlink="http://www.w3.org/1999/xlink" x="0px" y="0px"
	 width="9px" height="16.6px" viewBox="0 0 9 16.6" enable-background="new 0 0 9 16.6" xml:space="preserve">
<g opacity="0.2">
	<path fill="#FFFFFF" d="M0.7,0C0.5,0,0.3,0.1,0.2,0.2c-0.3,0.3-0.3,0.7,0,1l7.1,7.1l-7.1,7.1c-0.3,0.3-0.3,0.7,0,1
		c0.1,0.1,0.3,0.2,0.5,0.2s0.4-0.1,0.5-0.2l7.6-7.6C8.9,8.7,9,8.5,9,8.3c0-0.2-0.1-0.4-0.2-0.5L1.2,0.2C1.1,0.1,0.9,0,0.7,0"/>
</g>
</svg>
