<?xml version="1.0" encoding="utf-8"?>
<!-- Generator: Adobe Illustrator 17.1.0, SVG Export Plug-In . SVG Version: 6.00 Build 0)  -->
<!DOCTYPE svg PUBLIC "-//W3C//DTD SVG 1.1//EN" "http://www.w3.org/Graphics/SVG/1.1/DTD/svg11.dtd">
<svg version="1.1" id="图层_1" xmlns="http://www.w3.org/2000/svg" xmlns:xlink="http://www.w3.org/1999/xlink" x="0px" y="0px"
	 viewBox="0 0 320 340" enable-background="new 0 0 320 340" xml:space="preserve">
<g>
	
		<radialGradient id="SVGID_1_" cx="-184.923" cy="399.8991" r="103.6604" gradientTransform="matrix(0.8674 0 0 1.1246 317.1587 -300.8994)" gradientUnits="userSpaceOnUse">
		<stop  offset="0" style="stop-color:#FFFFC9"/>
		<stop  offset="1" style="stop-color:#FFFFBE;stop-opacity:0"/>
	</radialGradient>
	<rect x="0" y="147.4" opacity="0.3" fill="url(#SVGID_1_)" width="320" height="123.7"/>
	<g>
		<linearGradient id="SVGID_2_" gradientUnits="userSpaceOnUse" x1="138.3692" y1="165.8822" x2="168.3568" y2="248.2724">
			<stop  offset="0" style="stop-color:#000000"/>
			<stop  offset="0.147" style="stop-color:#000000;stop-opacity:0.853"/>
			<stop  offset="1" style="stop-color:#000000;stop-opacity:0"/>
		</linearGradient>
		<polygon opacity="0.2" fill="url(#SVGID_2_)" points="67.6,169.6 114.3,229.9 233.8,229.9 177.1,169.6 		"/>
		<linearGradient id="SVGID_3_" gradientUnits="userSpaceOnUse" x1="104.2254" y1="178.791" x2="104.2254" y2="170.2494">
			<stop  offset="0" style="stop-color:#F19A35"/>
			<stop  offset="9.768426e-003" style="stop-color:#F19A35"/>
			<stop  offset="1" style="stop-color:#E4782D"/>
		</linearGradient>
		<circle fill="url(#SVGID_3_)" cx="104.2" cy="174.5" r="4.3"/>
		<linearGradient id="SVGID_4_" gradientUnits="userSpaceOnUse" x1="92.5457" y1="178.791" x2="92.5457" y2="170.2494">
			<stop  offset="0" style="stop-color:#F19A35"/>
			<stop  offset="9.768426e-003" style="stop-color:#F19A35"/>
			<stop  offset="1" style="stop-color:#E4782D"/>
		</linearGradient>
		<circle fill="url(#SVGID_4_)" cx="92.5" cy="174.5" r="4.3"/>
		<g>
			<linearGradient id="SVGID_5_" gradientUnits="userSpaceOnUse" x1="170.3922" y1="159.1792" x2="172.3452" y2="148.1034">
				<stop  offset="0" style="stop-color:#FFE883"/>
				<stop  offset="1" style="stop-color:#FFFFB5"/>
			</linearGradient>
			<polygon fill="url(#SVGID_5_)" points="183.6,159.1 172.6,148.2 159.1,148.2 170.1,159.1 			"/>
			<linearGradient id="SVGID_6_" gradientUnits="userSpaceOnUse" x1="151.1674" y1="173.829" x2="151.1674" y2="139.2989">
				<stop  offset="0" style="stop-color:#FFB73B"/>
				<stop  offset="1" style="stop-color:#FFE474"/>
			</linearGradient>
			<polygon fill="url(#SVGID_6_)" points="156.7,173.8 145.7,162.8 145.7,139.3 156.7,150.3 			"/>
			<linearGradient id="SVGID_7_" gradientUnits="userSpaceOnUse" x1="156.9247" y1="150.3277" x2="158.8777" y2="139.2519">
				<stop  offset="0" style="stop-color:#FFE883"/>
				<stop  offset="1" style="stop-color:#FFFFB5"/>
			</linearGradient>
			<polygon fill="url(#SVGID_7_)" points="170.1,150.3 159.1,139.3 145.7,139.3 156.7,150.3 			"/>
		</g>
		<g>
			<linearGradient id="SVGID_8_" gradientUnits="userSpaceOnUse" x1="147.6645" y1="170.7963" x2="154.4792" y2="166.8618">
				<stop  offset="0" style="stop-color:#F19A35"/>
				<stop  offset="0.2935" style="stop-color:#F5A941"/>
				<stop  offset="1" style="stop-color:#FFCB5C"/>
			</linearGradient>
			<rect x="148" y="166.3" fill="url(#SVGID_8_)" width="6.1" height="5.1"/>
			<linearGradient id="SVGID_9_" gradientUnits="userSpaceOnUse" x1="145.5902" y1="171.3835" x2="145.5902" y2="161.448">
				<stop  offset="0" style="stop-color:#FFB73B"/>
				<stop  offset="1" style="stop-color:#FFE474"/>
			</linearGradient>
			<polygon fill="url(#SVGID_9_)" points="148,171.4 143.2,166.6 143.2,161.4 148,166.3 			"/>
			<linearGradient id="SVGID_10_" gradientUnits="userSpaceOnUse" x1="148.2261" y1="166.3138" x2="149.091" y2="161.4087">
				<stop  offset="0" style="stop-color:#FFE883"/>
				<stop  offset="1" style="stop-color:#FFFFB5"/>
			</linearGradient>
			<polygon fill="url(#SVGID_10_)" points="154.1,166.3 149.3,161.4 143.2,161.4 148,166.3 			"/>
		</g>
		<g>
			<linearGradient id="SVGID_11_" gradientUnits="userSpaceOnUse" x1="71.2666" y1="175.8438" x2="71.2666" y2="126.0923">
				<stop  offset="0" style="stop-color:#FFB73B"/>
				<stop  offset="1" style="stop-color:#FFE474"/>
			</linearGradient>
			<polygon fill="url(#SVGID_11_)" points="64,161.4 78.5,175.8 78.5,140.5 64,126.1 			"/>
			<linearGradient id="SVGID_12_" gradientUnits="userSpaceOnUse" x1="106.8835" y1="140.9926" x2="110.176" y2="122.3196">
				<stop  offset="0" style="stop-color:#FFE883"/>
				<stop  offset="1" style="stop-color:#FFFFB5"/>
			</linearGradient>
			<polygon fill="url(#SVGID_12_)" points="64,126.1 78.5,140.5 152.4,140.5 138,126.1 			"/>
		</g>
		<linearGradient id="SVGID_13_" gradientUnits="userSpaceOnUse" x1="172.8286" y1="176.7451" x2="172.8286" y2="168.2034">
			<stop  offset="0" style="stop-color:#F19A35"/>
			<stop  offset="9.768426e-003" style="stop-color:#F19A35"/>
			<stop  offset="1" style="stop-color:#E4782D"/>
		</linearGradient>
		<circle fill="url(#SVGID_13_)" cx="172.8" cy="172.5" r="4.3"/>
		<linearGradient id="SVGID_14_" gradientUnits="userSpaceOnUse" x1="155.0005" y1="170.9575" x2="181.5658" y2="155.6201">
			<stop  offset="0" style="stop-color:#F19A35"/>
			<stop  offset="0.2935" style="stop-color:#F5A941"/>
			<stop  offset="1" style="stop-color:#FFCB5C"/>
		</linearGradient>
		<path fill="url(#SVGID_14_)" d="M170.1,159.1v-8.9h-13.5v23.5h13.5h1.2c0,2.4,1.9,4.3,4.3,4.3s4.3-1.9,4.3-4.3h3.7v-14.7H170.1z"
			/>
		<linearGradient id="SVGID_15_" gradientUnits="userSpaceOnUse" x1="80.0998" y1="178.6061" x2="150.8335" y2="137.768">
			<stop  offset="0" style="stop-color:#F19A35"/>
			<stop  offset="0.2935" style="stop-color:#F5A941"/>
			<stop  offset="1" style="stop-color:#FFCB5C"/>
		</linearGradient>
		<path fill="url(#SVGID_15_)" d="M78.5,140.5v35.3h12.3c0,2.4,1.9,4.3,4.3,4.3c2.4,0,4.3-1.9,4.3-4.3h2.8c0,2.4,1.9,4.3,4.3,4.3
			c2.4,0,4.3-1.9,4.3-4.3h41.8v-35.3H78.5z"/>
	</g>
	<g>
		<linearGradient id="SVGID_16_" gradientUnits="userSpaceOnUse" x1="232.7971" y1="168.8765" x2="246.154" y2="205.5743">
			<stop  offset="0" style="stop-color:#000000"/>
			<stop  offset="0.147" style="stop-color:#000000;stop-opacity:0.853"/>
			<stop  offset="1" style="stop-color:#000000;stop-opacity:0"/>
		</linearGradient>
		<polygon opacity="0.2" fill="url(#SVGID_16_)" points="201.3,170.5 222.1,197.4 275.3,197.4 250.1,170.5 		"/>
		<linearGradient id="SVGID_17_" gradientUnits="userSpaceOnUse" x1="217.8293" y1="176.8857" x2="217.8293" y2="170.0695">
			<stop  offset="0" style="stop-color:#F19A35"/>
			<stop  offset="9.768426e-003" style="stop-color:#F19A35"/>
			<stop  offset="1" style="stop-color:#E4782D"/>
		</linearGradient>
		<circle fill="url(#SVGID_17_)" cx="217.8" cy="173.5" r="3.4"/>
		<linearGradient id="SVGID_18_" gradientUnits="userSpaceOnUse" x1="247.0579" y1="176.8857" x2="247.0579" y2="170.0695">
			<stop  offset="0" style="stop-color:#F19A35"/>
			<stop  offset="9.768426e-003" style="stop-color:#F19A35"/>
			<stop  offset="1" style="stop-color:#E4782D"/>
		</linearGradient>
		<circle fill="url(#SVGID_18_)" cx="247.1" cy="173.5" r="3.4"/>
		<linearGradient id="SVGID_19_" gradientUnits="userSpaceOnUse" x1="241.7853" y1="158.2692" x2="243.3713" y2="149.2744">
			<stop  offset="0" style="stop-color:#FFE883"/>
			<stop  offset="1" style="stop-color:#FFFFB5"/>
		</linearGradient>
		<polygon fill="url(#SVGID_19_)" points="242.5,158.4 233.2,149.2 242.7,149.2 251.9,158.4 		"/>
		<linearGradient id="SVGID_20_" gradientUnits="userSpaceOnUse" x1="240.6656" y1="171.6163" x2="256.2486" y2="162.6194">
			<stop  offset="0" style="stop-color:#F19A35"/>
			<stop  offset="0.2935" style="stop-color:#F5A941"/>
			<stop  offset="1" style="stop-color:#FFCB5C"/>
		</linearGradient>
		<path fill="url(#SVGID_20_)" d="M251.9,158.4h-9.4v16.4h3.6c0,1.8,1.5,3.3,3.3,3.3c1.8,0,3.3-1.5,3.3-3.3h3.6v-12L251.9,158.4z"/>
		<linearGradient id="SVGID_21_" gradientUnits="userSpaceOnUse" x1="209.5606" y1="173.1212" x2="243.4247" y2="153.5698">
			<stop  offset="0" style="stop-color:#F19A35"/>
			<stop  offset="0.2935" style="stop-color:#F5A941"/>
			<stop  offset="1" style="stop-color:#FFCB5C"/>
		</linearGradient>
		<path fill="url(#SVGID_21_)" d="M210.5,151.9v22.8h6.4c0,1.8,1.5,3.3,3.3,3.3c1.8,0,3.3-1.5,3.3-3.3h18.8v-22.8H210.5z"/>
		<linearGradient id="SVGID_22_" gradientUnits="userSpaceOnUse" x1="205.8859" y1="174.7583" x2="205.8859" y2="142.6932">
			<stop  offset="0" style="stop-color:#FFB73B"/>
			<stop  offset="1" style="stop-color:#FFE474"/>
		</linearGradient>
		<polygon fill="url(#SVGID_22_)" points="210.5,174.8 201.3,165.5 201.3,142.7 210.5,151.9 		"/>
		<linearGradient id="SVGID_23_" gradientUnits="userSpaceOnUse" x1="220.74" y1="153.7374" x2="223.0056" y2="140.8886">
			<stop  offset="0" style="stop-color:#FFE883"/>
			<stop  offset="1" style="stop-color:#FFFFB5"/>
		</linearGradient>
		<polygon fill="url(#SVGID_23_)" points="210.5,151.9 201.3,142.7 233.2,142.7 242.5,151.9 		"/>
	</g>
	
		<linearGradient id="SVGID_24_" gradientUnits="userSpaceOnUse" x1="-2569.4587" y1="1212.4546" x2="-2506.2222" y2="1196.4553" gradientTransform="matrix(-0.7169 0.6971 0.6971 0.7169 -2623.4854 1065.0938)">
		<stop  offset="0" style="stop-color:#FFFFBA"/>
		<stop  offset="1" style="stop-color:#FFFFC2;stop-opacity:0"/>
	</linearGradient>
	<path opacity="0.5" fill="url(#SVGID_24_)" d="M7.2,137.7c0.2-1.2,0.7-2.4,1.7-3.4c2.3-2.2,6-2.2,8.2,0.1c0,0,0,0,0,0.1
		c0.2-0.2,0.4-0.5,0.6-0.7c2.5-2.4,6.5-2.5,9-0.1c1.6-0.8,3.6-0.5,4.8,0.8c0.6,0.6,1,1.4,1.1,2.2c1.3,0.1,2.7,0.6,3.7,1.7
		c1.6,1.7,2,4.1,1.1,6.1c0.6,0.1,1.2,0.4,1.7,0.9c0.8,0.8,1.1,1.9,0.8,3c1.6-0.7,3.5-0.3,4.7,0.9c0.3,0.4,0.6,0.8,0.8,1.2
		c1.4-0.7,3.2-0.5,4.4,0.7c0.2,0.2,0.4,0.5,0.6,0.8c0.1-0.1,0.1-0.2,0.2-0.2c1.5-1.4,3.8-1.4,5.2,0.1c0.9,0.9,1.2,2.1,1,3.2
		c1.5-0.3,3.1,0.1,4.2,1.2c1.2,1.2,1.5,3,1.1,4.5c0.8,0,1.7,0.2,2.3,0.9c0.9,0.9,1.1,2.2,0.6,3.3c1.2-0.7,2.8-0.5,3.8,0.6
		c0.1,0.1,0.1,0.2,0.2,0.2c0.2-0.4,0.4-0.9,0.8-1.2c1.2-1.2,3.2-1.2,4.5,0.1c0.2,0.2,0.3,0.3,0.4,0.5c0.9,0.1,1.9,0.6,2.6,1.3
		c1.2,1.2,1.5,2.9,1.1,4.3l0.2,4.5H7.2V137.7z"/>
	<linearGradient id="SVGID_25_" gradientUnits="userSpaceOnUse" x1="205.6345" y1="159.53" x2="182.6038" y2="172.8269">
		<stop  offset="0" style="stop-color:#FFFFC2"/>
		<stop  offset="1" style="stop-color:#FFFFAA;stop-opacity:0"/>
	</linearGradient>
	<path opacity="0.5" fill="url(#SVGID_25_)" d="M183.8,154.7c0.4-1,1.5-1.8,2.7-1.8c1.6,0,2.9,1.3,2.9,2.9c1.2,0,2.1,1,2.1,2.1
		c0,0.5-0.2,0.9-0.4,1.3c0.7-0.5,1.6-0.9,2.6-0.9c1.7,0,3.1,1,3.8,2.4c0.5-1.4,1.8-2.4,3.4-2.4c0.8,0,1.5,0.2,2,0.6
		c0.3-0.3,0.7-0.4,1.2-0.4c1,0,1.8,0.8,1.8,1.8c0,0.4-0.1,0.8-0.4,1.1c1.4,0.4,2.4,1.7,2.4,3.2c0,0.4-0.1,0.8-0.2,1.1
		c1.6,0.1,2.9,1.4,2.9,3.1c0,0.3,0,0.6-0.1,0.9l0.1,5.1h-26.7V154.7z"/>
	<g>
		<linearGradient id="SVGID_26_" gradientUnits="userSpaceOnUse" x1="140.5326" y1="190.333" x2="151.709" y2="221.04">
			<stop  offset="0" style="stop-color:#000000"/>
			<stop  offset="0.147" style="stop-color:#000000;stop-opacity:0.853"/>
			<stop  offset="1" style="stop-color:#000000;stop-opacity:0"/>
		</linearGradient>
		<polygon opacity="0.2" fill="url(#SVGID_26_)" points="114.1,191.7 131.6,214.2 176.1,214.2 155,191.7 		"/>
		<linearGradient id="SVGID_27_" gradientUnits="userSpaceOnUse" x1="151.9963" y1="198.1068" x2="151.9963" y2="191.6408">
			<stop  offset="0" style="stop-color:#F19A35"/>
			<stop  offset="9.768426e-003" style="stop-color:#F19A35"/>
			<stop  offset="1" style="stop-color:#E4782D"/>
		</linearGradient>
		<circle fill="url(#SVGID_27_)" cx="152" cy="194.9" r="3.2"/>
		<linearGradient id="SVGID_28_" gradientUnits="userSpaceOnUse" x1="125.0711" y1="198.1068" x2="125.0711" y2="191.6408">
			<stop  offset="0" style="stop-color:#F19A35"/>
			<stop  offset="9.768426e-003" style="stop-color:#F19A35"/>
			<stop  offset="1" style="stop-color:#E4782D"/>
		</linearGradient>
		<circle fill="url(#SVGID_28_)" cx="125.1" cy="194.9" r="3.2"/>
		<linearGradient id="SVGID_29_" gradientUnits="userSpaceOnUse" x1="150.1668" y1="188.0429" x2="151.0814" y2="182.856">
			<stop  offset="0" style="stop-color:#FFE883"/>
			<stop  offset="1" style="stop-color:#FFFFB5"/>
		</linearGradient>
		<polygon fill="url(#SVGID_29_)" points="159.5,189.5 153.2,183.2 141.8,181.4 148,187.7 		"/>
		<linearGradient id="SVGID_30_" gradientUnits="userSpaceOnUse" x1="116.9164" y1="195.714" x2="116.9164" y2="181.9987">
			<stop  offset="0" style="stop-color:#FFB73B"/>
			<stop  offset="1" style="stop-color:#FFE474"/>
		</linearGradient>
		<polygon fill="url(#SVGID_30_)" points="120,195.7 113.8,189.5 113.8,182 120,188.2 		"/>
		<linearGradient id="SVGID_31_" gradientUnits="userSpaceOnUse" x1="118.6052" y1="187.9903" x2="119.7212" y2="181.6617">
			<stop  offset="0" style="stop-color:#FFE883"/>
			<stop  offset="1" style="stop-color:#FFFFB5"/>
		</linearGradient>
		<polygon fill="url(#SVGID_31_)" points="120,188.2 113.8,182 118.3,181.4 124.6,187.7 		"/>
		<linearGradient id="SVGID_32_" gradientUnits="userSpaceOnUse" x1="122.8418" y1="187.6533" x2="122.8418" y2="175.8741">
			<stop  offset="0" style="stop-color:#FFB73B"/>
			<stop  offset="1" style="stop-color:#FFE474"/>
		</linearGradient>
		<polygon fill="url(#SVGID_32_)" points="124.6,187.7 118.4,181.4 121.1,175.9 127.3,182.1 		"/>
		<linearGradient id="SVGID_33_" gradientUnits="userSpaceOnUse" x1="131.9238" y1="182.9272" x2="133.3113" y2="175.058">
			<stop  offset="0" style="stop-color:#FFE883"/>
			<stop  offset="1" style="stop-color:#FFFFB5"/>
		</linearGradient>
		<polygon fill="url(#SVGID_33_)" points="144.2,182.1 137.9,175.9 121.1,175.9 127.3,182.1 		"/>
		<linearGradient id="SVGID_34_" gradientUnits="userSpaceOnUse" x1="123.016" y1="200.8773" x2="155.2963" y2="182.2402">
			<stop  offset="0" style="stop-color:#F19A35"/>
			<stop  offset="0.2935" style="stop-color:#F5A941"/>
			<stop  offset="1" style="stop-color:#FFCB5C"/>
		</linearGradient>
		<path fill="url(#SVGID_34_)" d="M148,187.7l-3.8-5.5h-16.9l-2.7,5.5l-4.6,0.5v7.5h3.3c0,1.8,1.4,3.2,3.2,3.2
			c1.8,0,3.2-1.4,3.2-3.2H148h2.5c0,1.8,1.4,3.2,3.2,3.2c1.8,0,3.2-1.4,3.2-3.2h2.5v-6.3L148,187.7z"/>
	</g>
	<g>
		<linearGradient id="SVGID_35_" gradientUnits="userSpaceOnUse" x1="257.2172" y1="189.3271" x2="268.3937" y2="220.0341">
			<stop  offset="0" style="stop-color:#000000"/>
			<stop  offset="0.147" style="stop-color:#000000;stop-opacity:0.853"/>
			<stop  offset="1" style="stop-color:#000000;stop-opacity:0"/>
		</linearGradient>
		<polygon opacity="0.2" fill="url(#SVGID_35_)" points="230.8,190.7 248.2,213.2 292.8,213.2 271.7,190.7 		"/>
		<linearGradient id="SVGID_36_" gradientUnits="userSpaceOnUse" x1="268.6809" y1="197.1008" x2="268.6809" y2="190.6349">
			<stop  offset="0" style="stop-color:#F19A35"/>
			<stop  offset="9.768426e-003" style="stop-color:#F19A35"/>
			<stop  offset="1" style="stop-color:#E4782D"/>
		</linearGradient>
		<circle fill="url(#SVGID_36_)" cx="268.7" cy="193.9" r="3.2"/>
		<linearGradient id="SVGID_37_" gradientUnits="userSpaceOnUse" x1="241.7557" y1="197.1008" x2="241.7557" y2="190.6349">
			<stop  offset="0" style="stop-color:#F19A35"/>
			<stop  offset="9.768426e-003" style="stop-color:#F19A35"/>
			<stop  offset="1" style="stop-color:#E4782D"/>
		</linearGradient>
		<circle fill="url(#SVGID_37_)" cx="241.8" cy="193.9" r="3.2"/>
		<linearGradient id="SVGID_38_" gradientUnits="userSpaceOnUse" x1="266.8515" y1="187.037" x2="267.7661" y2="181.8501">
			<stop  offset="0" style="stop-color:#FFE883"/>
			<stop  offset="1" style="stop-color:#FFFFB5"/>
		</linearGradient>
		<polygon fill="url(#SVGID_38_)" points="276.1,188.5 269.9,182.2 258.5,180.4 264.7,186.7 		"/>
		<linearGradient id="SVGID_39_" gradientUnits="userSpaceOnUse" x1="233.6011" y1="194.7081" x2="233.6011" y2="180.9928">
			<stop  offset="0" style="stop-color:#FFB73B"/>
			<stop  offset="1" style="stop-color:#FFE474"/>
		</linearGradient>
		<polygon fill="url(#SVGID_39_)" points="236.7,194.7 230.5,188.5 230.5,181 236.7,187.2 		"/>
		<linearGradient id="SVGID_40_" gradientUnits="userSpaceOnUse" x1="235.2899" y1="186.9844" x2="236.4058" y2="180.6558">
			<stop  offset="0" style="stop-color:#FFE883"/>
			<stop  offset="1" style="stop-color:#FFFFB5"/>
		</linearGradient>
		<polygon fill="url(#SVGID_40_)" points="236.7,187.2 230.4,181 235,180.4 241.3,186.6 		"/>
		<linearGradient id="SVGID_41_" gradientUnits="userSpaceOnUse" x1="239.5265" y1="186.6474" x2="239.5265" y2="174.8682">
			<stop  offset="0" style="stop-color:#FFB73B"/>
			<stop  offset="1" style="stop-color:#FFE474"/>
		</linearGradient>
		<polygon fill="url(#SVGID_41_)" points="241.3,186.6 235.1,180.4 237.8,174.9 244,181.1 		"/>
		<linearGradient id="SVGID_42_" gradientUnits="userSpaceOnUse" x1="248.6084" y1="181.9213" x2="249.996" y2="174.0521">
			<stop  offset="0" style="stop-color:#FFE883"/>
			<stop  offset="1" style="stop-color:#FFFFB5"/>
		</linearGradient>
		<polygon fill="url(#SVGID_42_)" points="260.9,181.1 254.6,174.9 237.7,174.9 244,181.1 		"/>
		<linearGradient id="SVGID_43_" gradientUnits="userSpaceOnUse" x1="239.7007" y1="199.8714" x2="271.981" y2="181.2343">
			<stop  offset="0" style="stop-color:#F19A35"/>
			<stop  offset="0.2935" style="stop-color:#F5A941"/>
			<stop  offset="1" style="stop-color:#FFCB5C"/>
		</linearGradient>
		<path fill="url(#SVGID_43_)" d="M264.7,186.6l-3.8-5.5H244l-2.7,5.5l-4.6,0.5v7.5h3.3c0,1.8,1.4,3.2,3.2,3.2
			c1.8,0,3.2-1.4,3.2-3.2h18.3h2.5c0,1.8,1.4,3.2,3.2,3.2c1.8,0,3.2-1.4,3.2-3.2h2.5v-6.3L264.7,186.6z"/>
	</g>
	<g>
		<linearGradient id="SVGID_44_" gradientUnits="userSpaceOnUse" x1="203.7613" y1="189.4372" x2="215.0906" y2="220.5642">
			<stop  offset="0" style="stop-color:#000000"/>
			<stop  offset="0.147" style="stop-color:#000000;stop-opacity:0.853"/>
			<stop  offset="1" style="stop-color:#000000;stop-opacity:0"/>
		</linearGradient>
		<polygon opacity="0.2" fill="url(#SVGID_44_)" points="177,190.9 194.7,213.6 239.8,213.6 218.4,190.9 		"/>
		<linearGradient id="SVGID_45_" gradientUnits="userSpaceOnUse" x1="188.412" y1="196.515" x2="188.412" y2="189.6988">
			<stop  offset="0" style="stop-color:#F19A35"/>
			<stop  offset="9.768426e-003" style="stop-color:#F19A35"/>
			<stop  offset="1" style="stop-color:#E4782D"/>
		</linearGradient>
		<circle fill="url(#SVGID_45_)" cx="188.4" cy="193.1" r="3.4"/>
		<linearGradient id="SVGID_46_" gradientUnits="userSpaceOnUse" x1="215.4313" y1="196.515" x2="215.4313" y2="189.6988">
			<stop  offset="0" style="stop-color:#F19A35"/>
			<stop  offset="9.768426e-003" style="stop-color:#F19A35"/>
			<stop  offset="1" style="stop-color:#E4782D"/>
		</linearGradient>
		<circle fill="url(#SVGID_46_)" cx="215.4" cy="193.1" r="3.4"/>
		<linearGradient id="SVGID_47_" gradientUnits="userSpaceOnUse" x1="213.5924" y1="184.1263" x2="214.6892" y2="177.9058">
			<stop  offset="0" style="stop-color:#FFE883"/>
			<stop  offset="1" style="stop-color:#FFFFB5"/>
		</linearGradient>
		<polygon fill="url(#SVGID_47_)" points="223.1,184.9 216.4,178.2 205.2,177.1 211.9,183.8 		"/>
		<linearGradient id="SVGID_48_" gradientUnits="userSpaceOnUse" x1="180.9953" y1="183.8113" x2="180.9953" y2="170.4164">
			<stop  offset="0" style="stop-color:#FFBA50"/>
			<stop  offset="1" style="stop-color:#FFEC86"/>
		</linearGradient>
		<polygon fill="url(#SVGID_48_)" points="183.5,183.8 176.8,177.1 178.5,170.4 185.2,177.1 		"/>
		<linearGradient id="SVGID_49_" gradientUnits="userSpaceOnUse" x1="180.1214" y1="193.6" x2="180.1214" y2="177.1236">
			<stop  offset="0" style="stop-color:#FFB73B"/>
			<stop  offset="1" style="stop-color:#FFE474"/>
		</linearGradient>
		<polygon fill="url(#SVGID_49_)" points="183.5,183.8 176.8,177.1 176.8,186.9 183.5,193.6 		"/>
		<linearGradient id="SVGID_50_" gradientUnits="userSpaceOnUse" x1="192.0566" y1="178.3197" x2="193.6628" y2="169.2105">
			<stop  offset="0" style="stop-color:#FFE883"/>
			<stop  offset="1" style="stop-color:#FFFFB5"/>
		</linearGradient>
		<polygon fill="url(#SVGID_50_)" points="185.2,177.1 178.5,170.4 200.5,170.4 207.2,177.1 		"/>
		<linearGradient id="SVGID_51_" gradientUnits="userSpaceOnUse" x1="185.2674" y1="196.7032" x2="218.7522" y2="177.3707">
			<stop  offset="0" style="stop-color:#F19A35"/>
			<stop  offset="0.2935" style="stop-color:#F5A941"/>
			<stop  offset="1" style="stop-color:#FFCB5C"/>
		</linearGradient>
		<path fill="url(#SVGID_51_)" d="M223.1,184.9l-11.3-1.1l0,0l-4.6-6.7h-22l-1.8,6.7v9.8h3.2c0,0,0,0,0,0c0,2,1.6,3.6,3.6,3.6
			c2,0,3.6-1.6,3.6-3.6c0,0,0,0,0,0h18h2.1c0,0,0,0,0,0c0,2,1.6,3.6,3.6,3.6c2,0,3.6-1.6,3.6-3.6c0,0,0,0,0,0h2.1V184.9z"/>
	</g>
	<linearGradient id="SVGID_52_" gradientUnits="userSpaceOnUse" x1="236.0497" y1="184.6898" x2="222.281" y2="192.6391">
		<stop  offset="0" style="stop-color:#FFF3C3"/>
		<stop  offset="1" style="stop-color:#FFFFBC;stop-opacity:0"/>
	</linearGradient>
	<path opacity="0.5" fill="url(#SVGID_52_)" d="M236.7,192.8c0-1.1-0.9-1.9-1.9-1.9c-0.9,0-1.7,0.7-1.9,1.5
		c-0.4-1.5-1.8-2.7-3.4-2.7c-0.6,0-1.1,0.1-1.6,0.4c-0.1-0.6-0.6-1.1-1.3-1.1c-0.1,0-0.2,0-0.3,0c0.7-0.4,1.2-1.1,1.2-2
		c0-0.8-0.4-1.5-1-1.9c0.1-0.3,0.2-0.6,0.2-0.9c0-1.4-1.1-2.5-2.5-2.5c-1,0-1.9,0.6-2.3,1.5c-0.2-0.2-0.5-0.3-0.8-0.3
		c-0.7,0-1.3,0.6-1.3,1.3v10.3h17V192.8z"/>
	<linearGradient id="SVGID_53_" gradientUnits="userSpaceOnUse" x1="182.8003" y1="183.6007" x2="169.0316" y2="191.55">
		<stop  offset="0" style="stop-color:#FFF3C3"/>
		<stop  offset="1" style="stop-color:#FFFFBC;stop-opacity:0"/>
	</linearGradient>
	<path opacity="0.5" fill="url(#SVGID_53_)" d="M183.5,191.8c0-1.1-0.9-1.9-1.9-1.9c-0.9,0-1.7,0.7-1.9,1.5
		c-0.4-1.5-1.8-2.7-3.4-2.7c-0.6,0-1.1,0.1-1.6,0.4c-0.1-0.6-0.6-1.1-1.3-1.1c-0.1,0-0.2,0-0.3,0c0.7-0.4,1.2-1.1,1.2-2
		c0-0.8-0.4-1.5-1-1.9c0.1-0.3,0.2-0.6,0.2-0.9c0-1.4-1.1-2.5-2.5-2.5c-1,0-1.9,0.6-2.3,1.5c-0.2-0.2-0.5-0.3-0.8-0.3
		c-0.7,0-1.3,0.6-1.3,1.3v10.3h17V191.8z"/>
	<linearGradient id="SVGID_54_" gradientUnits="userSpaceOnUse" x1="119.365" y1="185.6957" x2="105.5964" y2="193.645">
		<stop  offset="0" style="stop-color:#FFF3C3"/>
		<stop  offset="1" style="stop-color:#FFFFBC;stop-opacity:0"/>
	</linearGradient>
	<path opacity="0.5" fill="url(#SVGID_54_)" d="M120,193.8c0-1.1-0.9-1.9-1.9-1.9c-0.9,0-1.7,0.7-1.9,1.5c-0.4-1.5-1.8-2.7-3.4-2.7
		c-0.6,0-1.1,0.1-1.6,0.4c-0.1-0.6-0.6-1.1-1.3-1.1c-0.1,0-0.2,0-0.3,0c0.7-0.4,1.2-1.1,1.2-2c0-0.8-0.4-1.5-1-1.9
		c0.1-0.3,0.2-0.6,0.2-0.9c0-1.4-1.1-2.5-2.5-2.5c-1,0-1.9,0.6-2.3,1.5c-0.2-0.2-0.5-0.3-0.8-0.3c-0.7,0-1.3,0.6-1.3,1.3v10.3h17
		V193.8z"/>
</g>
</svg>
