<?xml version="1.0" encoding="utf-8"?>
<!-- Generator: Adobe Illustrator 17.1.0, SVG Export Plug-In . SVG Version: 6.00 Build 0)  -->
<!DOCTYPE svg PUBLIC "-//W3C//DTD SVG 1.1//EN" "http://www.w3.org/Graphics/SVG/1.1/DTD/svg11.dtd">
<svg version="1.1" id="图层_1" xmlns="http://www.w3.org/2000/svg" xmlns:xlink="http://www.w3.org/1999/xlink" x="0px" y="0px"
	 viewBox="0 0 320 340" enable-background="new 0 0 320 340" xml:space="preserve">
<g>
	
		<radialGradient id="SVGID_1_" cx="148.5991" cy="158.8869" r="102.223" gradientTransform="matrix(0.9962 0 0 0.5748 8.7373 55.0276)" gradientUnits="userSpaceOnUse">
		<stop  offset="0" style="stop-color:#81DCFF"/>
		<stop  offset="1" style="stop-color:#53CDFF;stop-opacity:0"/>
	</radialGradient>
	<path opacity="0.3" fill="url(#SVGID_1_)" d="M320,252.8v-55c-31.7-31.4-91.4-52.6-160-52.6c-68.6,0-128.3,21.2-160,52.6v55H320z"
		/>
	<linearGradient id="SVGID_2_" gradientUnits="userSpaceOnUse" x1="124.781" y1="198.7312" x2="166.7285" y2="271.3864">
		<stop  offset="0" style="stop-color:#000000"/>
		<stop  offset="0.1443" style="stop-color:#000000;stop-opacity:0.8557"/>
		<stop  offset="1" style="stop-color:#000000;stop-opacity:0"/>
	</linearGradient>
	<polygon opacity="0.2" fill="url(#SVGID_2_)" points="123.8,199.3 155.9,267.7 173.2,267.6 133,199.3 	"/>
	<linearGradient id="SVGID_3_" gradientUnits="userSpaceOnUse" x1="191.4631" y1="165.3165" x2="276.7253" y2="312.995">
		<stop  offset="0" style="stop-color:#000000"/>
		<stop  offset="0.1443" style="stop-color:#000000;stop-opacity:0.8557"/>
		<stop  offset="1" style="stop-color:#000000;stop-opacity:0"/>
	</linearGradient>
	<polygon opacity="0.2" fill="url(#SVGID_3_)" points="160.2,183.4 239.5,295 308,294.9 230.8,205.4 	"/>
	<linearGradient id="SVGID_4_" gradientUnits="userSpaceOnUse" x1="165.3986" y1="160.3786" x2="201.9424" y2="223.6744">
		<stop  offset="0" style="stop-color:#000000"/>
		<stop  offset="0.1443" style="stop-color:#000000;stop-opacity:0.8557"/>
		<stop  offset="1" style="stop-color:#000000;stop-opacity:0"/>
	</linearGradient>
	<polygon opacity="0.2" fill="url(#SVGID_4_)" points="159.6,163.7 193.6,220.4 207.7,220.3 166.7,163.7 	"/>
	<g>
		<linearGradient id="SVGID_5_" gradientUnits="userSpaceOnUse" x1="161.162" y1="165.54" x2="164.7958" y2="151.9786">
			<stop  offset="0" style="stop-color:#7FE7FF"/>
			<stop  offset="0.1477" style="stop-color:#76E1FD"/>
			<stop  offset="0.3919" style="stop-color:#5DD0F6"/>
			<stop  offset="0.7004" style="stop-color:#34B5EC"/>
			<stop  offset="1" style="stop-color:#0697E1"/>
		</linearGradient>
		<path fill="url(#SVGID_5_)" d="M159.7,152.4v11.4c0,1.1,1.5,2.1,3.4,2.1c1.9,0,3.4-0.9,3.4-2.1v-11.4H159.7z"/>
		<linearGradient id="SVGID_6_" gradientUnits="userSpaceOnUse" x1="160.2166" y1="157.1389" x2="172.3178" y2="111.9767">
			<stop  offset="0" style="stop-color:#7FE7FF"/>
			<stop  offset="1" style="stop-color:#0697E1"/>
		</linearGradient>
		<path fill="url(#SVGID_6_)" d="M145.6,146.3c0,0,2.5,10.7,17.5,10.7s17.7-10.7,17.7-10.7l-17.6-36.8L145.6,146.3z"/>
		<linearGradient id="SVGID_7_" gradientUnits="userSpaceOnUse" x1="160.7971" y1="142.8343" x2="170.4848" y2="106.6795">
			<stop  offset="0" style="stop-color:#7FE7FF"/>
			<stop  offset="1" style="stop-color:#0697E1"/>
		</linearGradient>
		<path fill="url(#SVGID_7_)" d="M149.1,134.1c0,0,2,8.5,14,8.5s14.1-8.5,14.1-8.5l-14.1-29.4L149.1,134.1z"/>
		<linearGradient id="SVGID_8_" gradientUnits="userSpaceOnUse" x1="161.2583" y1="129.923" x2="169.0288" y2="100.9229">
			<stop  offset="0" style="stop-color:#7FE7FF"/>
			<stop  offset="1" style="stop-color:#CBF2F8"/>
		</linearGradient>
		<path fill="url(#SVGID_8_)" d="M151.8,122.9c0,0,1.6,6.8,11.2,6.8c9.7,0,11.3-6.8,11.3-6.8l-11.3-23.6L151.8,122.9z"/>
	</g>
	<g>
		<linearGradient id="SVGID_9_" gradientUnits="userSpaceOnUse" x1="125.8888" y1="201.6609" x2="130.5668" y2="184.2021">
			<stop  offset="0" style="stop-color:#7FE7FF"/>
			<stop  offset="0.1477" style="stop-color:#76E1FD"/>
			<stop  offset="0.3919" style="stop-color:#5DD0F6"/>
			<stop  offset="0.7004" style="stop-color:#34B5EC"/>
			<stop  offset="1" style="stop-color:#0697E1"/>
		</linearGradient>
		<path fill="url(#SVGID_9_)" d="M124,184.8v14.6c0,1.5,2,2.7,4.4,2.7c2.4,0,4.4-1.2,4.4-2.7v-14.6H124z"/>
		<linearGradient id="SVGID_10_" gradientUnits="userSpaceOnUse" x1="124.6097" y1="190.8091" x2="140.4817" y2="131.5739">
			<stop  offset="0" style="stop-color:#7FE7FF"/>
			<stop  offset="1" style="stop-color:#0697E1"/>
		</linearGradient>
		<path fill="url(#SVGID_10_)" d="M105.8,176.6c0,0,3.2,14,22.5,14s22.7-14,22.7-14l-22.6-48.3L105.8,176.6z"/>
		<linearGradient id="SVGID_11_" gradientUnits="userSpaceOnUse" x1="125.3694" y1="172.8527" x2="138.0758" y2="125.4317">
			<stop  offset="0" style="stop-color:#7FE7FF"/>
			<stop  offset="1" style="stop-color:#0697E1"/>
		</linearGradient>
		<path fill="url(#SVGID_11_)" d="M110.3,161.5c0,0,2.5,11.2,18,11.2s18.2-11.2,18.2-11.2l-18.1-38.6L110.3,161.5z"/>
		<linearGradient id="SVGID_12_" gradientUnits="userSpaceOnUse" x1="125.9787" y1="159.2609" x2="136.1462" y2="121.3155">
			<stop  offset="0" style="stop-color:#7FE7FF"/>
			<stop  offset="1" style="stop-color:#0697E1"/>
		</linearGradient>
		<path fill="url(#SVGID_12_)" d="M113.9,150.2c0,0,2,9,14.4,9s14.6-9,14.6-9l-14.5-30.9L113.9,150.2z"/>
		<linearGradient id="SVGID_13_" gradientUnits="userSpaceOnUse" x1="126.3707" y1="148.3701" x2="134.9049" y2="116.5199">
			<stop  offset="0" style="stop-color:#7FE7FF"/>
			<stop  offset="1" style="stop-color:#CBF2F8"/>
		</linearGradient>
		<path fill="url(#SVGID_13_)" d="M116.3,140.7c0,0,1.7,7.5,12.1,7.5c10.4,0,12.2-7.5,12.2-7.5l-12.2-25.9L116.3,140.7z"/>
	</g>
	<g>
		<linearGradient id="SVGID_14_" gradientUnits="userSpaceOnUse" x1="213.8781" y1="206.9189" x2="223.2954" y2="171.7729">
			<stop  offset="0" style="stop-color:#42C3F5"/>
			<stop  offset="1" style="stop-color:#0697E1"/>
		</linearGradient>
		<polygon fill="url(#SVGID_14_)" points="206.5,205.4 230.8,205.4 206.5,173 		"/>
		
			<linearGradient id="SVGID_15_" gradientUnits="userSpaceOnUse" x1="-297.703" y1="300.8911" x2="-277.4544" y2="285.6576" gradientTransform="matrix(1.7689 0 0 1.3575 707.3837 -204.4619)">
			<stop  offset="0" style="stop-color:#42C3F5"/>
			<stop  offset="1" style="stop-color:#0697E1"/>
		</linearGradient>
		<polygon fill="url(#SVGID_15_)" points="206.5,205.4 206.5,173 182.1,205.4 		"/>
		<linearGradient id="SVGID_16_" gradientUnits="userSpaceOnUse" x1="209.0139" y1="200.9336" x2="202.5235" y2="197.1864">
			<stop  offset="0" style="stop-color:#3BA8F5"/>
			<stop  offset="1" style="stop-color:#098BBE"/>
		</linearGradient>
		<polygon fill="url(#SVGID_16_)" points="206.5,205.4 206.5,190.4 200.9,205.4 		"/>
		<linearGradient id="SVGID_17_" gradientUnits="userSpaceOnUse" x1="190.0226" y1="203.234" x2="176.5995" y2="153.1384">
			<stop  offset="0" style="stop-color:#3AC7F2"/>
			<stop  offset="1" style="stop-color:#A9EDFF"/>
		</linearGradient>
		<polygon fill="url(#SVGID_17_)" points="182.1,205.4 160.2,183.4 184.5,151 206.5,173 		"/>
		<linearGradient id="SVGID_18_" gradientUnits="userSpaceOnUse" x1="200.0569" y1="195.7623" x2="207.537" y2="200.0809">
			<stop  offset="0" style="stop-color:#63D2F5"/>
			<stop  offset="1" style="stop-color:#0697E1"/>
		</linearGradient>
		<polyline fill="url(#SVGID_18_)" points="206.5,190.4 198.5,201.3 200.9,205.4 		"/>
	</g>
</g>
</svg>
