<?xml version="1.0" encoding="utf-8"?>
<!-- Generator: Adobe Illustrator 17.1.0, SVG Export Plug-In . SVG Version: 6.00 Build 0)  -->
<!DOCTYPE svg PUBLIC "-//W3C//DTD SVG 1.1//EN" "http://www.w3.org/Graphics/SVG/1.1/DTD/svg11.dtd">
<svg version="1.1" id="图层_1" xmlns="http://www.w3.org/2000/svg" xmlns:xlink="http://www.w3.org/1999/xlink" x="0px" y="0px"
	 viewBox="0 0 320 340" enable-background="new 0 0 320 340" xml:space="preserve">
<g>
	
		<radialGradient id="SVGID_1_" cx="-72.663" cy="1679.0713" r="103.2405" gradientTransform="matrix(0.9444 -0.3169 0.2637 0.7859 -212.4696 -1228.6757)" gradientUnits="userSpaceOnUse">
		<stop  offset="0" style="stop-color:#FFFFFF"/>
		<stop  offset="1" style="stop-color:#5E3933;stop-opacity:0"/>
	</radialGradient>
	<path opacity="0.2" fill="url(#SVGID_1_)" d="M65.7,167.8c-1.9-2.4-3.1-5.4-3.2-8.7c-0.1-7.8,6.1-14.3,13.9-14.4c0.1,0,0.1,0,0.2,0
		c-0.1-0.7-0.2-1.4-0.2-2.2c-0.1-8.5,6.4-15.6,14.8-16.2c1.2-4.1,5-7.2,9.5-7.2c2.2,0,4.2,0.6,5.8,1.8c2.4-2.2,5.5-3.7,9-3.7
		c5.6-0.1,10.5,3.3,12.6,8.2c1.3-0.9,2.8-1.5,4.5-1.5c2.8,0,5.2,1.4,6.6,3.5c1.4-3.9,5.1-6.7,9.5-6.8c1.2,0,2.4,0.2,3.4,0.5
		c1-3.7,4.4-6.5,8.5-6.6c0.8,0,1.6,0.1,2.4,0.3c0-0.2,0-0.5-0.1-0.8c-0.1-4.9,3.9-9,8.8-9.1c3-0.1,5.6,1.4,7.3,3.6
		c1.9-3.2,5.3-5.4,9.2-5.4c4.2-0.1,7.9,2.2,9.8,5.6c1.3-1.5,3.2-2.5,5.4-2.6c3-0.1,5.6,1.8,6.7,4.4c0.9-3.2,3.8-5.6,7.3-5.7
		c0.3,0,0.5,0,0.8,0c-0.5-1-0.8-2.2-0.9-3.4c-0.1-4.2,3.3-7.7,7.5-7.8c0.6,0,1.1,0,1.6,0.2c1.8-1.5,4.1-2.4,6.6-2.4
		c4-0.1,7.6,2.1,9.4,5.4c1.2-0.5,2.6-0.8,4-0.8c3.3-0.1,6.3,1.4,8.3,3.7c0.9-3.7,4.5-6.9,8.5-6.9l34.3,53.7L123.3,258L65.7,167.8z"
		/>
	
		<radialGradient id="SVGID_2_" cx="-3450.3684" cy="3428.7205" r="102.7387" gradientTransform="matrix(-0.8637 -0.4963 0.3647 -0.6348 -4086.9001 618.8311)" gradientUnits="userSpaceOnUse">
		<stop  offset="0" style="stop-color:#FFFFFF"/>
		<stop  offset="1" style="stop-color:#5E3933;stop-opacity:0"/>
	</radialGradient>
	<path opacity="0.2" fill="url(#SVGID_2_)" d="M38.3,144.7c-3.4-9.5,1.6-19.9,11.1-23.3c9.5-3.4,19.9,1.6,23.3,11.1
		c0.9,2.6,1.2,5.4,0.9,8c0.2-0.1,0.3-0.1,0.5-0.2c7.8-2.8,16.3,1.1,19.4,8.6c5.2-1.4,10.7,1.4,12.6,6.5c0.2,0.7,0.4,1.3,0.5,2
		c0.4-0.2,0.7-0.3,1.1-0.4c7.1-2.5,14.9,0.2,19,6.2c0.9-1.4,2.2-2.5,3.9-3.1c2.1-0.7,4.3-0.5,6.1,0.5c0.9-3.6,3.5-6.7,7.3-8
		c6-2.1,12.6,1,14.7,7c0.3,1,0.5,2,0.6,2.9c0.4-0.2,0.7-0.4,1.2-0.5c3.4-1.2,7.1,0.6,8.3,4c0.4,1.2,0.5,2.4,0.2,3.6c0,0,0,0,0,0
		c4.4-1.6,9.2,0.7,10.7,5.1c0.2,0.5,0.3,1,0.4,1.4c0.3-0.1,0.6-0.3,0.9-0.4c4.1-1.4,8.5,0.1,10.8,3.6c1-2.4,2.9-4.3,5.5-5.3
		c2.7-1,5.6-0.6,7.9,0.8c0.6-1.9,2-3.4,3.9-4.1c3.3-1.2,6.9,0.5,8.1,3.9c0,0,0,0,0,0c0.2-0.1,0.4-0.2,0.6-0.3c2.6-0.9,5.5,0.4,6.4,3
		c0.2,0.4,0.2,0.9,0.3,1.4c0.9-1.2,2.2-2.2,3.7-2.8c3-1.1,5.3,0.1,7.4,2.2c0,0,1.5,1.9,3.2,5.3l23.6,71.4L93.2,279.8L38.3,144.7z"/>
	
		<radialGradient id="SVGID_3_" cx="-1897.3497" cy="-2237.5244" r="99.3048" gradientTransform="matrix(0.9899 -0.1118 9.244017e-002 0.8184 2247.9009 1824.0356)" gradientUnits="userSpaceOnUse">
		<stop  offset="0" style="stop-color:#FFFFFF"/>
		<stop  offset="1" style="stop-color:#5E3933;stop-opacity:0"/>
	</radialGradient>
	<path opacity="0.2" fill="url(#SVGID_3_)" d="M261.6,203.2c0.5-2.8,0.2-5.8-1.2-8.6c-3.4-6.5-11.4-9.1-17.9-5.8
		c0,0-0.1,0.1-0.1,0.1c-0.2-0.6-0.5-1.3-0.8-1.9c-3.6-7.1-12.2-10-19.4-6.8c-2.8-2.9-7.3-3.7-11.1-1.8c-1.8,0.9-3.2,2.4-4.1,4
		c-2.9-0.8-6.2-0.6-9.1,0.9c-4.7,2.4-7.2,7.4-6.8,12.3c-1.4-0.2-3,0-4.4,0.7c-2.3,1.2-3.7,3.4-3.9,5.8c-2.9-2.6-7.2-3.3-10.9-1.4
		c-1,0.5-1.9,1.2-2.6,2c-2.5-2.6-6.5-3.4-9.9-1.7c-0.7,0.4-1.3,0.8-1.8,1.3c-0.1-0.2-0.2-0.4-0.3-0.6c-2.1-4.1-7.2-5.7-11.3-3.6
		c-2.5,1.3-4,3.6-4.5,6.2c-3-1.8-6.7-2.1-10-0.4c-3.5,1.8-5.5,5.3-5.6,9c-1.7-0.7-3.8-0.7-5.6,0.3c-2.5,1.3-3.9,4-3.6,6.6
		c-2.1-2.3-5.6-3-8.5-1.5c-0.2,0.1-0.4,0.2-0.6,0.4c0-1.1-0.3-2.1-0.8-3.2c-1.8-3.5-6.1-4.9-9.7-3.1c-0.5,0.2-0.9,0.5-1.3,0.9
		c-2.1-0.4-4.4-0.2-6.5,0.9c-3.4,1.7-5.3,5.1-5.4,8.6c-1.2,0.1-2.5,0.5-3.6,1.1c-2.8,1.4-4.6,3.9-5.2,6.7c-2.4-2.7-6.7-3.7-10.1-2
		l-4.6,59.5l193.5,15.1L261.6,203.2z"/>
	<rect x="0" y="156.6" fill="none" width="320" height="87.8"/>
</g>
</svg>
