<?xml version="1.0" encoding="utf-8"?>
<!-- Generator: Adobe Illustrator 17.1.0, SVG Export Plug-In . SVG Version: 6.00 Build 0)  -->
<!DOCTYPE svg PUBLIC "-//W3C//DTD SVG 1.1//EN" "http://www.w3.org/Graphics/SVG/1.1/DTD/svg11.dtd">
<svg version="1.1" id="图层_1" xmlns="http://www.w3.org/2000/svg" xmlns:xlink="http://www.w3.org/1999/xlink" x="0px" y="0px"
	 viewBox="0 0 320 380" enable-background="new 0 0 320 380" xml:space="preserve">
<g>
	
		<radialGradient id="SVGID_1_" cx="507.9628" cy="443.6779" r="88.0617" gradientTransform="matrix(1.7054 0 0 0.5903 -709.5225 -30.0747)" gradientUnits="userSpaceOnUse">
		<stop  offset="0" style="stop-color:#FFFFFF"/>
		<stop  offset="1" style="stop-color:#FFFFFF;stop-opacity:0"/>
	</radialGradient>
	<rect x="0" y="230.7" opacity="0.1" fill="url(#SVGID_1_)" width="320" height="98.2"/>
	<g>
		<linearGradient id="SVGID_2_" gradientUnits="userSpaceOnUse" x1="135.7316" y1="221.9482" x2="203.0054" y2="338.4697">
			<stop  offset="0" style="stop-color:#000000"/>
			<stop  offset="0.1443" style="stop-color:#000000;stop-opacity:0.8557"/>
			<stop  offset="1" style="stop-color:#000000;stop-opacity:0"/>
		</linearGradient>
		<polygon opacity="0.1" fill="url(#SVGID_2_)" points="96.7,244.5 138.3,316.4 242,315.9 180.2,244.5 		"/>
		<linearGradient id="SVGID_3_" gradientUnits="userSpaceOnUse" x1="203.37" y1="230.7221" x2="260.0511" y2="328.8968">
			<stop  offset="0" style="stop-color:#000000"/>
			<stop  offset="0.1443" style="stop-color:#000000;stop-opacity:0.8557"/>
			<stop  offset="1" style="stop-color:#000000;stop-opacity:0"/>
		</linearGradient>
		<polygon opacity="0.1" fill="url(#SVGID_3_)" points="179.5,244.5 244.1,314.9 283.9,315.1 213.5,244.5 		"/>
		<g>
			<linearGradient id="SVGID_4_" gradientUnits="userSpaceOnUse" x1="187.6773" y1="199.646" x2="214.6389" y2="226.6076">
				<stop  offset="0" style="stop-color:#BCFF9D"/>
				<stop  offset="1" style="stop-color:#52B86E"/>
			</linearGradient>
			<polygon fill="url(#SVGID_4_)" points="222.7,218.5 211.9,207.7 179.6,207.7 190.4,218.5 			"/>
			<linearGradient id="SVGID_5_" gradientUnits="userSpaceOnUse" x1="218.8918" y1="254.4426" x2="218.8918" y2="248.8699">
				<stop  offset="0" style="stop-color:#43A55C"/>
				<stop  offset="1" style="stop-color:#248D4E"/>
			</linearGradient>
			<polygon fill="url(#SVGID_5_)" points="219.4,250.9 218.3,249.8 218.3,253.1 219.4,254.2 			"/>
			<linearGradient id="SVGID_6_" gradientUnits="userSpaceOnUse" x1="214.7445" y1="250.5339" x2="186.2287" y2="201.1431">
				<stop  offset="0" style="stop-color:#52B86E"/>
				<stop  offset="1" style="stop-color:#248D4E"/>
			</linearGradient>
			<polygon fill="url(#SVGID_6_)" points="190.4,218.5 190.4,249.3 190.4,249.3 190.4,254.2 193.7,254.2 193.7,250.9 219.4,250.9 
				219.4,254.2 222.7,254.2 222.7,250.9 222.7,248.9 222.7,218.5 			"/>
			<linearGradient id="SVGID_7_" gradientUnits="userSpaceOnUse" x1="182.328" y1="244.4823" x2="182.328" y2="241.1942">
				<stop  offset="0" style="stop-color:#43A55C"/>
				<stop  offset="1" style="stop-color:#248D4E"/>
			</linearGradient>
			<rect x="180.7" y="241.2" fill="url(#SVGID_7_)" width="3.3" height="3.3"/>
			<linearGradient id="SVGID_8_" gradientUnits="userSpaceOnUse" x1="184.9804" y1="196.6017" x2="184.9804" y2="253.4994">
				<stop  offset="0" style="stop-color:#66C77B"/>
				<stop  offset="1" style="stop-color:#43A55C"/>
			</linearGradient>
			<polygon fill="url(#SVGID_8_)" points="190.4,250.9 190.4,218.5 179.6,207.7 179.6,236.8 179.6,240.1 179.6,243.4 180.7,244.5 
				180.7,241.2 189.3,249.8 189.3,253.1 190.4,254.2 190.4,250.9 			"/>
		</g>
		<linearGradient id="SVGID_9_" gradientUnits="userSpaceOnUse" x1="183.5555" y1="220.9203" x2="183.5555" y2="128.6222">
			<stop  offset="0" style="stop-color:#BCFF9D"/>
			<stop  offset="0.7634" style="stop-color:#52B86E"/>
			<stop  offset="0.8817" style="stop-color:#248D4E"/>
		</linearGradient>
		<rect x="182.6" y="128.6" fill="url(#SVGID_9_)" width="2" height="92.3"/>
		<g>
			
				<linearGradient id="SVGID_10_" gradientUnits="userSpaceOnUse" x1="-405.8387" y1="-993.0302" x2="-374.5932" y2="-995.1379" gradientTransform="matrix(0.9397 0.342 -0.342 0.9397 210.3935 1198.2015)">
				<stop  offset="0" style="stop-color:#BCFF9D"/>
				<stop  offset="0.1504" style="stop-color:#A3F093"/>
				<stop  offset="0.4333" style="stop-color:#7AD682"/>
				<stop  offset="0.6563" style="stop-color:#60C677"/>
				<stop  offset="0.7903" style="stop-color:#57C073"/>
				<stop  offset="1" style="stop-color:#6DD27B"/>
			</linearGradient>
			<path fill="url(#SVGID_10_)" d="M201.5,120.3l-25.1-9.1l-13.1,24.3c-0.9,2.6,5.6,7.3,14.6,10.6c9,3.3,17,3.8,18,1.3L201.5,120.3z
				"/>
			
				<linearGradient id="SVGID_11_" gradientUnits="userSpaceOnUse" x1="-388.0977" y1="-1013.7711" x2="-396.723" y2="-998.8317" gradientTransform="matrix(0.9397 0.342 -0.342 0.9397 210.3935 1198.2015)">
				<stop  offset="0" style="stop-color:#BCFF9D"/>
				<stop  offset="1" style="stop-color:#52B86E"/>
			</linearGradient>
			<path fill="url(#SVGID_11_)" d="M201.5,120.3c-0.7,2-6.9,1.5-13.8-1s-12-6.2-11.2-8.1c0.7-2,6.9-1.5,13.8,1
				C197.2,114.7,202.2,118.4,201.5,120.3z"/>
		</g>
		<linearGradient id="SVGID_12_" gradientUnits="userSpaceOnUse" x1="107.1566" y1="213.2027" x2="127.7618" y2="248.8919">
			<stop  offset="0" style="stop-color:#BCFF9D"/>
			<stop  offset="1" style="stop-color:#52B86E"/>
		</linearGradient>
		<polygon fill="url(#SVGID_12_)" points="111.4,239.2 123.5,251.3 123.5,222.9 111.4,210.7 		"/>
		<linearGradient id="SVGID_13_" gradientUnits="userSpaceOnUse" x1="86.7849" y1="173.2698" x2="121.843" y2="233.9923">
			<stop  offset="0" style="stop-color:#66C77B"/>
			<stop  offset="1" style="stop-color:#43A55C"/>
		</linearGradient>
		<polygon fill="url(#SVGID_13_)" points="103,171.4 98.3,166.6 98.3,223.2 103,227.9 		"/>
		<linearGradient id="SVGID_14_" gradientUnits="userSpaceOnUse" x1="122.3796" y1="151.1918" x2="141.2343" y2="183.8492">
			<stop  offset="0" style="stop-color:#C6FF9D"/>
			<stop  offset="1" style="stop-color:#52B86E"/>
		</linearGradient>
		<path fill="url(#SVGID_14_)" d="M166,169.5l-4.5-4.5l0,0c-2.5-2.6-10-7.6-31-7.6c-28.6,0-32.2,9.2-32.2,9.2l4.8,4.8L166,169.5z"/>
		<linearGradient id="SVGID_15_" gradientUnits="userSpaceOnUse" x1="150.9927" y1="226.956" x2="109.757" y2="155.5338">
			<stop  offset="0" style="stop-color:#52B86E"/>
			<stop  offset="1" style="stop-color:#248D4E"/>
		</linearGradient>
		<path fill="url(#SVGID_15_)" d="M135.2,162.2c-28.6,0-32.2,9.2-32.2,9.2v56.5h64.4v-56.5C167.4,171.4,163.8,162.2,135.2,162.2z"/>
		<linearGradient id="SVGID_16_" gradientUnits="userSpaceOnUse" x1="151.2745" y1="198.8715" x2="178.9718" y2="246.8446">
			<stop  offset="0" style="stop-color:#66C77B"/>
			<stop  offset="1" style="stop-color:#43A55C"/>
		</linearGradient>
		<polygon fill="url(#SVGID_16_)" points="171.2,251.3 159.1,239.2 159.1,194.4 171.2,206.5 		"/>
		<linearGradient id="SVGID_17_" gradientUnits="userSpaceOnUse" x1="118.071" y1="255.542" x2="114.3975" y2="249.1794">
			<stop  offset="0" style="stop-color:#52B86E"/>
			<stop  offset="1" style="stop-color:#248D4E"/>
		</linearGradient>
		<circle fill="url(#SVGID_17_)" cx="115.2" cy="250.5" r="3.7"/>
		<linearGradient id="SVGID_18_" gradientUnits="userSpaceOnUse" x1="182.4881" y1="255.6019" x2="178.8146" y2="249.2393">
			<stop  offset="0" style="stop-color:#52B86E"/>
			<stop  offset="1" style="stop-color:#248D4E"/>
		</linearGradient>
		<circle fill="url(#SVGID_18_)" cx="179.5" cy="250.5" r="3.7"/>
		<linearGradient id="SVGID_19_" gradientUnits="userSpaceOnUse" x1="86.8919" y1="198.8715" x2="126.7552" y2="267.9167">
			<stop  offset="0" style="stop-color:#66C77B"/>
			<stop  offset="1" style="stop-color:#43A55C"/>
		</linearGradient>
		<polygon fill="url(#SVGID_19_)" points="106.8,251.3 94.7,239.2 94.7,194.4 106.8,206.5 		"/>
		<linearGradient id="SVGID_20_" gradientUnits="userSpaceOnUse" x1="166.8596" y1="188.7455" x2="179.7968" y2="211.1535">
			<stop  offset="0" style="stop-color:#C6FF9D"/>
			<stop  offset="1" style="stop-color:#52B86E"/>
		</linearGradient>
		<path fill="url(#SVGID_20_)" d="M185.4,204L185.4,204L185.4,204C185.4,204,185.4,204,185.4,204l2.5,2.5c0-0.5-0.3-1-0.7-1.4
			l0.1,0.1l-11.9-11.9l0,0c-1.1-1.4-4.2-2.4-7.9-2.4c-4.6,0-8.4,1.6-8.4,3.5l12.1,12.1c0-1.9,3.7-3.5,8.4-3.5
			C181.8,203,183.9,203.4,185.4,204L185.4,204z"/>
		<linearGradient id="SVGID_21_" gradientUnits="userSpaceOnUse" x1="188.9072" y1="244.933" x2="164.81" y2="203.1955">
			<stop  offset="0" style="stop-color:#52B86E"/>
			<stop  offset="1" style="stop-color:#248D4E"/>
		</linearGradient>
		<path fill="url(#SVGID_21_)" d="M179.5,203c-4.6,0-8.4,1.6-8.4,3.5v44.9h16.7v-44.9C187.9,204.6,184.2,203,179.5,203z"/>
		<linearGradient id="SVGID_22_" gradientUnits="userSpaceOnUse" x1="131.1749" y1="199.2804" x2="151.3835" y2="234.2829">
			<stop  offset="0" style="stop-color:#C6FF9D"/>
			<stop  offset="1" style="stop-color:#52B86E"/>
		</linearGradient>
		<path fill="url(#SVGID_22_)" d="M159.1,210.7c0,0-5.6-4.5-23.8-4.5c-18.3,0-23.8,4.5-23.8,4.5l12.1,12.1h47.7L159.1,210.7z"/>
		<linearGradient id="SVGID_23_" gradientUnits="userSpaceOnUse" x1="156.4946" y1="252.9492" x2="132.2182" y2="210.9013">
			<stop  offset="0" style="stop-color:#52B86E"/>
			<stop  offset="1" style="stop-color:#248D4E"/>
		</linearGradient>
		<path fill="url(#SVGID_23_)" d="M147.3,218.3c-18.3,0-23.8,4.5-23.8,4.5v28.5h47.7v-28.5C171.2,222.9,165.6,218.3,147.3,218.3z"/>
		<linearGradient id="SVGID_24_" gradientUnits="userSpaceOnUse" x1="132.8481" y1="201.8545" x2="148.8168" y2="229.5132">
			<stop  offset="0" style="stop-color:#000000"/>
			<stop  offset="0.1443" style="stop-color:#000000;stop-opacity:0.8557"/>
			<stop  offset="1" style="stop-color:#000000;stop-opacity:0"/>
		</linearGradient>
		<polygon opacity="0.2" fill="url(#SVGID_24_)" points="120.7,208.9 128.6,222.5 161,222.5 149.2,208.9 		"/>
		<g>
			<linearGradient id="SVGID_25_" gradientUnits="userSpaceOnUse" x1="137.2127" y1="208.524" x2="135.2091" y2="210.5276">
				<stop  offset="0" style="stop-color:#A1F28B"/>
				<stop  offset="1" style="stop-color:#48A764"/>
			</linearGradient>
			<path fill="url(#SVGID_25_)" d="M133.4,204.3c-0.8,0-1.4,0.9-1.4,2c0,0.7,0.3,1.4,0.7,1.7l0,0l6.8,6.8l0.7-3.7L133.4,204.3z"/>
			<linearGradient id="SVGID_26_" gradientUnits="userSpaceOnUse" x1="135.5805" y1="200.9555" x2="166.1674" y2="232.2358">
				<stop  offset="0" style="stop-color:#248D4E"/>
				<stop  offset="1" style="stop-color:#BCFF9D"/>
			</linearGradient>
			<path fill="url(#SVGID_26_)" d="M153.7,213.1c0-1.1,0.6-2,1.4-2h-15l0,0c-0.8,0-1.4,0.9-1.4,2c0,1.1,0.6,2,1.4,2h0h15
				C154.4,215,153.7,214.2,153.7,213.1z"/>
			<polygon fill="#A1F28B" points="140.2,211.1 133.4,204.3 148.3,204.3 155.1,211.1 			"/>
			<linearGradient id="SVGID_27_" gradientUnits="userSpaceOnUse" x1="136.1154" y1="207.4267" x2="134.1118" y2="209.4303">
				<stop  offset="0" style="stop-color:#A1F28B"/>
				<stop  offset="1" style="stop-color:#48A764"/>
			</linearGradient>
			<path fill="url(#SVGID_27_)" d="M132.3,203.2c-0.8,0-1.4,0.9-1.4,2c0,0.7,0.3,1.4,0.7,1.7l0,0l6.8,6.8l0.7-3.7L132.3,203.2z"/>
			<linearGradient id="SVGID_28_" gradientUnits="userSpaceOnUse" x1="148.0786" y1="204.1855" x2="140.6112" y2="211.0236">
				<stop  offset="0" style="stop-color:#BCFF9D"/>
				<stop  offset="1" style="stop-color:#BCFF9D;stop-opacity:0"/>
			</linearGradient>
			<polygon opacity="0.5" fill="url(#SVGID_28_)" points="140.2,211.1 133.4,204.3 148.3,204.3 155.1,211.1 			"/>
			<polygon fill="#A1F28B" points="139.1,210 132.3,203.2 147.2,203.2 154,210 			"/>
			<linearGradient id="SVGID_29_" gradientUnits="userSpaceOnUse" x1="146.9776" y1="203.0846" x2="139.5102" y2="209.9227">
				<stop  offset="0" style="stop-color:#BCFF9D"/>
				<stop  offset="1" style="stop-color:#BCFF9D;stop-opacity:0"/>
			</linearGradient>
			<polygon opacity="0.5" fill="url(#SVGID_29_)" points="139.1,210 132.3,203.2 147.2,203.2 154,210 			"/>
			<linearGradient id="SVGID_30_" gradientUnits="userSpaceOnUse" x1="137.5929" y1="208.7922" x2="143.0719" y2="214.2712">
				<stop  offset="0" style="stop-color:#248D4E"/>
				<stop  offset="1" style="stop-color:#248D4E;stop-opacity:0"/>
			</linearGradient>
			<path fill="url(#SVGID_30_)" d="M141.7,209.2l2.4,1.9c0,0-1.2,0.4-1.3,2c0.1,1.6,1.4,2,1.4,2l-3.9,0c0,0-0.4,0-0.7-0.2
				s-3.9-3.9-3.9-3.9"/>
			<polygon fill="#A1F28B" points="128.4,208.9 120,204.3 134.3,200.1 142.8,204.8 			"/>
			
				<linearGradient id="SVGID_31_" gradientUnits="userSpaceOnUse" x1="307.8327" y1="1210.0189" x2="305.8291" y2="1212.0226" gradientTransform="matrix(0.9603 -0.279 0.279 0.9603 -508.39 -868.7591)">
				<stop  offset="0" style="stop-color:#A1F28B"/>
				<stop  offset="1" style="stop-color:#48A764"/>
			</linearGradient>
			<path fill="url(#SVGID_31_)" d="M120,204.3c-0.7,0.2-1.1,1.2-0.8,2.3c0.2,0.7,0.7,1.2,1.1,1.4l0,0l8.4,4.6l-0.4-3.7L120,204.3z"
				/>
			
				<linearGradient id="SVGID_32_" gradientUnits="userSpaceOnUse" x1="314.4107" y1="1206.6185" x2="324.3954" y2="1229.4476" gradientTransform="matrix(0.9603 -0.279 0.279 0.9603 -508.39 -868.7591)">
				<stop  offset="0" style="stop-color:#248D4E"/>
				<stop  offset="1" style="stop-color:#BCFF9D"/>
			</linearGradient>
			<path fill="url(#SVGID_32_)" d="M142,207.1c-0.3-1,0-2.1,0.8-2.3l-14.4,4.2l0,0c-0.7,0.2-1.1,1.2-0.8,2.3c0.3,1,1.1,1.7,1.9,1.5
				l0,0l14.4-4.2C143.2,208.8,142.3,208.1,142,207.1z"/>
			
				<linearGradient id="SVGID_33_" gradientUnits="userSpaceOnUse" x1="318.6986" y1="1205.6804" x2="311.2312" y2="1212.5186" gradientTransform="matrix(0.9603 -0.279 0.279 0.9603 -508.39 -868.7591)">
				<stop  offset="0" style="stop-color:#BCFF9D"/>
				<stop  offset="1" style="stop-color:#BCFF9D;stop-opacity:0"/>
			</linearGradient>
			<polygon fill="url(#SVGID_33_)" points="128.4,208.9 120,204.3 134.3,200.1 142.8,204.8 			"/>
			
				<linearGradient id="SVGID_34_" gradientUnits="userSpaceOnUse" x1="312.9343" y1="1218.5854" x2="312.9343" y2="1213.1101" gradientTransform="matrix(0.9603 -0.279 0.279 0.9603 -508.39 -868.7591)">
				<stop  offset="0" style="stop-color:#A1F28B"/>
				<stop  offset="0.1963" style="stop-color:#9CEE89"/>
				<stop  offset="0.4172" style="stop-color:#8FE383"/>
				<stop  offset="0.65" style="stop-color:#78D079"/>
				<stop  offset="0.8895" style="stop-color:#59B56B"/>
				<stop  offset="1" style="stop-color:#48A764"/>
			</linearGradient>
			<path fill="url(#SVGID_34_)" d="M132.9,212.6c-1-2.8-1.9-2.6-1.9-2.6l-1.1,0.3c0,0,0.9-0.2,1.9,2.6l0.3-0.8L132.9,212.6z"/>
		</g>
		<linearGradient id="SVGID_35_" gradientUnits="userSpaceOnUse" x1="102.477" y1="188.7455" x2="115.4143" y2="211.1535">
			<stop  offset="0" style="stop-color:#C6FF9D"/>
			<stop  offset="1" style="stop-color:#52B86E"/>
		</linearGradient>
		<path fill="url(#SVGID_35_)" d="M121,204L121,204L121,204C121,204,121,204,121,204l2.5,2.5c0-0.5-0.3-1-0.7-1.4l0.1,0.1L111,193.2
			l0,0c-1.1-1.4-4.2-2.4-7.9-2.4c-4.6,0-8.4,1.6-8.4,3.5l12.1,12.1c0-1.9,3.7-3.5,8.4-3.5C117.4,203,119.5,203.4,121,204L121,204z"
			/>
		<linearGradient id="SVGID_36_" gradientUnits="userSpaceOnUse" x1="123.5962" y1="243.325" x2="99.4991" y2="201.5875">
			<stop  offset="0" style="stop-color:#52B86E"/>
			<stop  offset="1" style="stop-color:#248D4E"/>
		</linearGradient>
		<path fill="url(#SVGID_36_)" d="M115.2,203c-4.6,0-8.4,1.6-8.4,3.5v44.9h16.7v-44.9C123.5,204.6,119.8,203,115.2,203z"/>
		<g>
			<linearGradient id="SVGID_37_" gradientUnits="userSpaceOnUse" x1="199.528" y1="208.6568" x2="207.1539" y2="221.8652">
				<stop  offset="0" style="stop-color:#000000"/>
				<stop  offset="0.1443" style="stop-color:#000000;stop-opacity:0.8557"/>
				<stop  offset="1" style="stop-color:#000000;stop-opacity:0"/>
			</linearGradient>
			<polygon opacity="0.2" fill="url(#SVGID_37_)" points="193.7,212 197.5,218.5 213,218.5 207.3,212 			"/>
			<linearGradient id="SVGID_38_" gradientUnits="userSpaceOnUse" x1="206.2861" y1="217.6443" x2="195.9897" y2="207.3478">
				<stop  offset="0" style="stop-color:#248D4E"/>
				<stop  offset="0.1573" style="stop-color:#289050"/>
				<stop  offset="0.3202" style="stop-color:#359957"/>
				<stop  offset="0.4857" style="stop-color:#49A961"/>
				<stop  offset="0.653" style="stop-color:#66BF70"/>
				<stop  offset="0.8217" style="stop-color:#8CDB84"/>
				<stop  offset="0.9893" style="stop-color:#B9FD9B"/>
				<stop  offset="1" style="stop-color:#BCFF9D"/>
			</linearGradient>
			<ellipse fill="url(#SVGID_38_)" cx="200.5" cy="211.9" rx="6.8" ry="2.7"/>
			<g>
				<defs>
					<ellipse id="SVGID_798_" cx="200.5" cy="211.9" rx="6.8" ry="2.7"/>
				</defs>
				<clipPath id="SVGID_39_">
					<use xlink:href="#SVGID_798_"  overflow="visible"/>
				</clipPath>
				
					<linearGradient id="SVGID_40_" gradientUnits="userSpaceOnUse" x1="-522.8672" y1="-497.4206" x2="-511.7592" y2="-491.5511" gradientTransform="matrix(0.9881 0.3514 -0.4143 1.1649 511.532 972.944)">
					<stop  offset="0" style="stop-color:#248D4E"/>
					<stop  offset="1" style="stop-color:#248D4E;stop-opacity:0"/>
				</linearGradient>
				<path opacity="0.2" clip-path="url(#SVGID_39_)" fill="url(#SVGID_40_)" d="M210.1,215.6c-0.6,1.7-3.8,2-7.3,0.8
					s-5.7-3.5-5.1-5.2c0.6-1.7,3.8-2,7.3-0.8C208.4,211.7,210.7,214,210.1,215.6z"/>
			</g>
			<g>
				<linearGradient id="SVGID_41_" gradientUnits="userSpaceOnUse" x1="206.1192" y1="211.3147" x2="204.4715" y2="206.4402">
					<stop  offset="0" style="stop-color:#248D4E"/>
					<stop  offset="0.1573" style="stop-color:#289050"/>
					<stop  offset="0.3202" style="stop-color:#359957"/>
					<stop  offset="0.4857" style="stop-color:#49A961"/>
					<stop  offset="0.653" style="stop-color:#66BF70"/>
					<stop  offset="0.8217" style="stop-color:#8CDB84"/>
					<stop  offset="0.9893" style="stop-color:#B9FD9B"/>
					<stop  offset="1" style="stop-color:#BCFF9D"/>
				</linearGradient>
				<path fill="url(#SVGID_41_)" d="M205.6,207.1h-1.3v0.9h1.3c0.3,0,0.5,0.1,0.7,0.3c0.2,0.2,0.3,0.4,0.3,0.7
					c0,0.3-0.1,0.5-0.3,0.7c-0.2,0.2-0.4,0.3-0.7,0.3h-1.8v0.9h1.8c1,0,1.8-0.8,1.8-1.8C207.4,207.9,206.6,207.1,205.6,207.1"/>
			</g>
			<linearGradient id="SVGID_42_" gradientUnits="userSpaceOnUse" x1="198.0963" y1="203.3783" x2="202.5485" y2="211.0897">
				<stop  offset="0" style="stop-color:#DDFFAF"/>
				<stop  offset="0.1074" style="stop-color:#D4F9AA"/>
				<stop  offset="0.2828" style="stop-color:#BCEA9E"/>
				<stop  offset="0.5042" style="stop-color:#94D289"/>
				<stop  offset="0.7603" style="stop-color:#5DB06C"/>
				<stop  offset="1" style="stop-color:#248D4E"/>
			</linearGradient>
			<path fill="url(#SVGID_42_)" d="M205.2,206.2c0-0.9-2.1-1.7-4.6-1.7c-2.6,0-4.6,0.8-4.6,1.7v1.2c0,3.4,2.1,5.2,4.7,5.2
				c2.6,0,4.7-1.9,4.7-5.2L205.2,206.2z"/>
			<g>
				<linearGradient id="SVGID_43_" gradientUnits="userSpaceOnUse" x1="201.7699" y1="208.2891" x2="199.3233" y2="204.0514">
					<stop  offset="0" style="stop-color:#BCFF9D"/>
					<stop  offset="1" style="stop-color:#52B86E"/>
				</linearGradient>
				<ellipse fill="url(#SVGID_43_)" cx="200.5" cy="206.2" rx="4.2" ry="1.4"/>
			</g>
			<g>
				<defs>
					<ellipse id="SVGID_804_" cx="200.5" cy="206.2" rx="4.2" ry="1.4"/>
				</defs>
				<clipPath id="SVGID_44_">
					<use xlink:href="#SVGID_804_"  overflow="visible"/>
				</clipPath>
				<linearGradient id="SVGID_45_" gradientUnits="userSpaceOnUse" x1="200.5466" y1="208.7151" x2="200.5466" y2="204.9522">
					<stop  offset="0" style="stop-color:#BCFF9D"/>
					<stop  offset="1" style="stop-color:#52B86E"/>
				</linearGradient>
				<ellipse clip-path="url(#SVGID_44_)" fill="url(#SVGID_45_)" cx="200.5" cy="207.3" rx="4.2" ry="1.4"/>
			</g>
		</g>
	</g>
</g>
</svg>
