<?xml version="1.0" encoding="utf-8"?>
<!-- Generator: Adobe Illustrator 17.1.0, SVG Export Plug-In . SVG Version: 6.00 Build 0)  -->
<!DOCTYPE svg PUBLIC "-//W3C//DTD SVG 1.1//EN" "http://www.w3.org/Graphics/SVG/1.1/DTD/svg11.dtd">
<svg version="1.1" id="图层_1" xmlns="http://www.w3.org/2000/svg" xmlns:xlink="http://www.w3.org/1999/xlink" x="0px" y="0px"
	 viewBox="0 0 320 380" enable-background="new 0 0 320 380" xml:space="preserve">
<g>
	
		<radialGradient id="SVGID_1_" cx="148.5992" cy="214.1688" r="102.223" gradientTransform="matrix(0.9962 0 0 0.5748 8.7373 78.3187)" gradientUnits="userSpaceOnUse">
		<stop  offset="0" style="stop-color:#91DC90"/>
		<stop  offset="1" style="stop-color:#89D086;stop-opacity:0"/>
	</radialGradient>
	<path opacity="0.3" fill="url(#SVGID_1_)" d="M320,307.9v-55c-31.7-31.4-91.4-52.6-160-52.6c-68.6,0-128.3,21.2-160,52.6v55H320z"
		/>
	<linearGradient id="SVGID_2_" gradientUnits="userSpaceOnUse" x1="117.126" y1="262.0228" x2="162.6683" y2="340.9044">
		<stop  offset="0" style="stop-color:#000000"/>
		<stop  offset="0.1443" style="stop-color:#000000;stop-opacity:0.8557"/>
		<stop  offset="1" style="stop-color:#000000;stop-opacity:0"/>
	</linearGradient>
	<polygon opacity="0.2" fill="url(#SVGID_2_)" points="124.5,257.8 150.5,343 160.1,342.4 128.1,257.8 	"/>
	<linearGradient id="SVGID_3_" gradientUnits="userSpaceOnUse" x1="168.6782" y1="216.4197" x2="257.3292" y2="369.9678">
		<stop  offset="0" style="stop-color:#000000"/>
		<stop  offset="0.1443" style="stop-color:#000000;stop-opacity:0.8557"/>
		<stop  offset="1" style="stop-color:#000000;stop-opacity:0"/>
	</linearGradient>
	<polygon opacity="0.2" fill="url(#SVGID_3_)" points="143.1,231.2 196.9,352.4 295.1,348.2 203.7,231.2 	"/>
	<linearGradient id="SVGID_4_" gradientUnits="userSpaceOnUse" x1="125.5594" y1="258.6154" x2="126.8312" y2="251.4025">
		<stop  offset="0" style="stop-color:#B1FF9D"/>
		<stop  offset="0.4469" style="stop-color:#6DCF7E"/>
		<stop  offset="0.8177" style="stop-color:#3BAC68"/>
		<stop  offset="1" style="stop-color:#289E5F"/>
	</linearGradient>
	<path fill="url(#SVGID_4_)" d="M124.5,251.6v6c0,0.6,0.8,1.1,1.8,1.1c1,0,1.8-0.5,1.8-1.1v-6H124.5z"/>
	<g>
		<linearGradient id="SVGID_5_" gradientUnits="userSpaceOnUse" x1="143.3958" y1="203.5412" x2="203.7551" y2="198.1744">
			<stop  offset="0" style="stop-color:#BCFF9D"/>
			<stop  offset="0.8172" style="stop-color:#52B86E"/>
			<stop  offset="1" style="stop-color:#99E587"/>
		</linearGradient>
		<path fill="url(#SVGID_5_)" d="M192.4,226.4c0,0,0.2-3.5,2.3-4.7c2-1.3,3,1.3,3,1.3l2.2,13.7c2.8-2.9,3.8-5.5,3.8-5.5l-7.5-73.5
			h-45.7l-7.4,73.5c0,0,6.7,14.7,30.8,14.7c8.4,0,14.6-1.8,19-4.1L192.4,226.4z"/>
	</g>
	
		<radialGradient id="SVGID_6_" cx="169.1405" cy="178.0361" r="29.2807" gradientTransform="matrix(0.9916 -9.514641e-002 0.2087 2.1755 -27.6574 -205.7958)" gradientUnits="userSpaceOnUse">
		<stop  offset="0" style="stop-color:#248D4E"/>
		<stop  offset="1" style="stop-color:#248D4E;stop-opacity:0"/>
	</radialGradient>
	<path opacity="0.5" fill="url(#SVGID_6_)" d="M196.2,157.6h-45.7l-7.4,73.5c0,0,6.7,14.7,30.8,14.7s29.7-14.7,29.7-14.7
		L196.2,157.6z"/>
	<linearGradient id="SVGID_7_" gradientUnits="userSpaceOnUse" x1="153.3345" y1="171.7403" x2="187.6981" y2="146.912">
		<stop  offset="0" style="stop-color:#B1FF8D"/>
		<stop  offset="0.7215" style="stop-color:#5DC172"/>
		<stop  offset="0.8172" style="stop-color:#52B86E"/>
		<stop  offset="1" style="stop-color:#7BD878"/>
	</linearGradient>
	<path fill="url(#SVGID_7_)" d="M147.5,156.8c0,0,6.6,10.1,25.7,10.1s26.1-10.1,26.1-10.1l-25.9-16.5L147.5,156.8z"/>
	
		<radialGradient id="SVGID_8_" cx="176.7697" cy="168.3124" r="11.207" gradientTransform="matrix(-0.1332 -0.9872 2.7052 -0.365 -246.9541 391.6902)" gradientUnits="userSpaceOnUse">
		<stop  offset="0" style="stop-color:#B1FF8D;stop-opacity:0"/>
		<stop  offset="1" style="stop-color:#DCFFBD"/>
	</radialGradient>
	<path opacity="0.3" fill="url(#SVGID_8_)" d="M147.5,156.8c0,0,6.6,10.1,25.7,10.1s26.1-10.1,26.1-10.1l-25.9-16.5L147.5,156.8z"/>
	<linearGradient id="SVGID_9_" gradientUnits="userSpaceOnUse" x1="176.3598" y1="167.7497" x2="169.2966" y2="141.3892">
		<stop  offset="0" style="stop-color:#B1FF8D;stop-opacity:0"/>
		<stop  offset="1" style="stop-color:#F6FFB6"/>
	</linearGradient>
	<path opacity="0.8" fill="url(#SVGID_9_)" d="M147.5,156.8c0,0,6.6,10.1,25.7,10.1s26.1-10.1,26.1-10.1l-25.9-16.5L147.5,156.8z"/>
	<g>
		
			<linearGradient id="SVGID_10_" gradientUnits="userSpaceOnUse" x1="181.3663" y1="165.2958" x2="184.6739" y2="165.2958" gradientTransform="matrix(0.9996 2.772279e-002 -2.772279e-002 0.9996 14.7924 37.1014)">
			<stop  offset="0" style="stop-color:#248D4E"/>
			<stop  offset="0.1989" style="stop-color:#38A059"/>
			<stop  offset="1" style="stop-color:#A5F592"/>
		</linearGradient>
		<path fill="url(#SVGID_10_)" d="M194.8,207.3c0.1,1.8-0.6,3.3-1.5,3.4c-0.9,0-1.7-1.4-1.8-3.2c-0.1-1.8,0.6-3.3,1.5-3.4
			C193.9,204.1,194.7,205.5,194.8,207.3z"/>
		<g>
			<defs>
				
					<ellipse id="SVGID_498_" transform="matrix(0.9987 -5.074369e-002 5.074369e-002 0.9987 -10.2758 10.0688)" cx="193.2" cy="207.4" rx="1.6" ry="3.3"/>
			</defs>
			<clipPath id="SVGID_11_">
				<use xlink:href="#SVGID_498_"  overflow="visible"/>
			</clipPath>
			
				<linearGradient id="SVGID_12_" gradientUnits="userSpaceOnUse" x1="182.8232" y1="165.3437" x2="179.3094" y2="163.315" gradientTransform="matrix(0.9996 2.772279e-002 -2.772279e-002 0.9996 14.7924 37.1014)">
				<stop  offset="0" style="stop-color:#248D4E"/>
				<stop  offset="0.2196" style="stop-color:#2B9757"/>
				<stop  offset="1" style="stop-color:#42B975"/>
			</linearGradient>
			<path clip-path="url(#SVGID_11_)" fill="url(#SVGID_12_)" d="M192.9,206.4c0.1,1.8-0.6,3.3-1.5,3.4c-0.9,0-1.7-1.4-1.8-3.2
				c-0.1-1.8,0.6-3.3,1.5-3.4C192,203.1,192.9,204.5,192.9,206.4z"/>
		</g>
	</g>
	<g>
		
			<linearGradient id="SVGID_13_" gradientUnits="userSpaceOnUse" x1="180.2585" y1="152.1755" x2="183.566" y2="152.1755" gradientTransform="matrix(0.9996 2.772279e-002 -2.772279e-002 0.9996 14.7924 37.1014)">
			<stop  offset="0" style="stop-color:#248D4E"/>
			<stop  offset="0.1989" style="stop-color:#38A059"/>
			<stop  offset="1" style="stop-color:#A5F592"/>
		</linearGradient>
		<path fill="url(#SVGID_13_)" d="M194.1,194.2c0.1,1.8-0.6,3.3-1.5,3.4s-1.7-1.4-1.8-3.2c-0.1-1.8,0.6-3.3,1.5-3.4
			C193.2,190.9,194,192.4,194.1,194.2z"/>
		<g>
			<defs>
				
					<ellipse id="SVGID_502_" transform="matrix(0.9987 -5.074369e-002 5.074369e-002 0.9987 -9.6097 10.0142)" cx="192.4" cy="194.3" rx="1.6" ry="3.3"/>
			</defs>
			<clipPath id="SVGID_14_">
				<use xlink:href="#SVGID_502_"  overflow="visible"/>
			</clipPath>
			
				<linearGradient id="SVGID_15_" gradientUnits="userSpaceOnUse" x1="181.7153" y1="152.2234" x2="178.2016" y2="150.1947" gradientTransform="matrix(0.9996 2.772279e-002 -2.772279e-002 0.9996 14.7924 37.1014)">
				<stop  offset="0" style="stop-color:#248D4E"/>
				<stop  offset="0.2196" style="stop-color:#2B9757"/>
				<stop  offset="1" style="stop-color:#42B975"/>
			</linearGradient>
			<path clip-path="url(#SVGID_14_)" fill="url(#SVGID_15_)" d="M192.2,193.2c0.1,1.8-0.6,3.3-1.5,3.4c-0.9,0-1.7-1.4-1.8-3.2
				c-0.1-1.8,0.6-3.3,1.5-3.4C191.3,190,192.1,191.4,192.2,193.2z"/>
		</g>
	</g>
	<linearGradient id="SVGID_16_" gradientUnits="userSpaceOnUse" x1="193.8448" y1="223.9173" x2="196.312" y2="237.9096">
		<stop  offset="0" style="stop-color:#248D4E"/>
		<stop  offset="1" style="stop-color:#248D4E;stop-opacity:0"/>
	</linearGradient>
	<path fill="url(#SVGID_16_)" d="M197.7,222.9c0,0-1-2.5-3-1.3c-2,1.3-2.3,4.7-2.3,4.7l0.5,15.4c3.8-1.9,6.9-5.2,6.9-5.2
		L197.7,222.9z"/>
	<g>
		<defs>
			<path id="SVGID_506_" d="M197.7,222.9c0,0-1-2.5-3-1.3c-2,1.3-2.3,4.7-2.3,4.7l0.5,15.4c3.8-1.9,6.9-5.2,6.9-5.2L197.7,222.9z"/>
		</defs>
		<clipPath id="SVGID_17_">
			<use xlink:href="#SVGID_506_"  overflow="visible"/>
		</clipPath>
		<linearGradient id="SVGID_18_" gradientUnits="userSpaceOnUse" x1="192.049" y1="226.8366" x2="197.5221" y2="227.8016">
			<stop  offset="0" style="stop-color:#248D4E"/>
			<stop  offset="0.1989" style="stop-color:#38A059"/>
			<stop  offset="1" style="stop-color:#A5F592"/>
		</linearGradient>
		<path clip-path="url(#SVGID_17_)" fill="url(#SVGID_18_)" d="M197.4,235.8l3.7,1.2l-2.5-17.6l-5.1,1c0,0-2.2,1.1,0.4,0.6
			C196.6,220.5,196.3,225.5,197.4,235.8z"/>
	</g>
	<g>
		<defs>
			<path id="SVGID_509_" d="M197.7,222.9c0,0-1-2.5-3-1.3c-2,1.3-2.3,4.7-2.3,4.7l0.5,15.4c3.8-1.9,6.9-5.2,6.9-5.2L197.7,222.9z"/>
		</defs>
		<clipPath id="SVGID_19_">
			<use xlink:href="#SVGID_509_"  overflow="visible"/>
		</clipPath>
		<linearGradient id="SVGID_20_" gradientUnits="userSpaceOnUse" x1="192.049" y1="226.8366" x2="197.5221" y2="227.8016">
			<stop  offset="0" style="stop-color:#248D4E"/>
			<stop  offset="1" style="stop-color:#248D4E;stop-opacity:0"/>
		</linearGradient>
		<path opacity="0.5" clip-path="url(#SVGID_19_)" fill="url(#SVGID_20_)" d="M197.4,235.8l3.7,1.2l-2.5-17.6l-5.1,1
			c0,0-2.2,1.1,0.4,0.6C196.6,220.5,196.3,225.5,197.4,235.8z"/>
	</g>
	<linearGradient id="SVGID_21_" gradientUnits="userSpaceOnUse" x1="194.9865" y1="171.7908" x2="192.6917" y2="176.1144">
		<stop  offset="0" style="stop-color:#BCFF9D"/>
		<stop  offset="1" style="stop-color:#52B86E"/>
	</linearGradient>
	<path fill="url(#SVGID_21_)" d="M190.6,172.5c-0.6,0-1.2,0.7-1.2,1.6s0.5,1.6,1.2,1.6h6.9v-3.2H190.6z"/>
	<linearGradient id="SVGID_22_" gradientUnits="userSpaceOnUse" x1="198.2541" y1="175.5407" x2="196.7605" y2="178.1278">
		<stop  offset="0" style="stop-color:#BCFF9D"/>
		<stop  offset="1" style="stop-color:#52B86E"/>
	</linearGradient>
	<ellipse fill="url(#SVGID_22_)" cx="197.5" cy="176.8" rx="1.2" ry="1.6"/>
	<g>
		
			<linearGradient id="SVGID_23_" gradientUnits="userSpaceOnUse" x1="-202.6281" y1="-575.012" x2="-217.3715" y2="-522.4548" gradientTransform="matrix(0.5017 -0.865 -0.865 -0.5017 -148.9102 -270.1996)">
			<stop  offset="0" style="stop-color:#BCFF9D"/>
			<stop  offset="1" style="stop-color:#52B86E"/>
		</linearGradient>
		<polygon fill="url(#SVGID_23_)" points="235.5,185.8 227.7,199.3 204.5,183.8 210.5,173.5 		"/>
		
			<linearGradient id="SVGID_24_" gradientUnits="userSpaceOnUse" x1="-207.1902" y1="-533.4471" x2="-217.5047" y2="-531.8641" gradientTransform="matrix(0.5017 -0.865 -0.865 -0.5017 -148.9102 -270.1996)">
			<stop  offset="0" style="stop-color:#BCFF9D"/>
			<stop  offset="1" style="stop-color:#52B86E"/>
		</linearGradient>
		<polygon fill="url(#SVGID_24_)" points="209.5,173.5 203.2,183.8 204.5,183.8 210.5,173.5 		"/>
		
			<linearGradient id="SVGID_25_" gradientUnits="userSpaceOnUse" x1="250.9052" y1="574.8708" x2="249.0806" y2="578.0311" gradientTransform="matrix(0.9664 -0.2569 0.2569 0.9664 -186.3288 -316.0115)">
			<stop  offset="0" style="stop-color:#BCFF9D"/>
			<stop  offset="1" style="stop-color:#52B86E"/>
		</linearGradient>
		<path fill="url(#SVGID_25_)" d="M207,178l-3.3-1.9l-0.1-0.1l-3.3-1.9l-0.8,1.5l3.3,1.9l0.1,0.1l3.3,1.9c0.3,0.2,0.7,0,0.9-0.4
			C207.3,178.6,207.2,178.2,207,178z"/>
		
			<linearGradient id="SVGID_26_" gradientUnits="userSpaceOnUse" x1="-209.7131" y1="-525.5574" x2="-210.3717" y2="-524.4166" gradientTransform="matrix(0.5017 -0.865 -0.865 -0.5017 -148.9102 -270.1996)">
			<stop  offset="0" style="stop-color:#BCFF9D"/>
			<stop  offset="1" style="stop-color:#52B86E"/>
		</linearGradient>
		<path fill="url(#SVGID_26_)" d="M200.3,174.1c-0.3-0.2-0.7,0-0.9,0.4c-0.2,0.4-0.2,0.9,0.1,1s0.7,0,0.9-0.4
			S200.5,174.3,200.3,174.1z"/>
		
			<linearGradient id="SVGID_27_" gradientUnits="userSpaceOnUse" x1="267.2678" y1="612.8459" x2="246.8544" y2="571.409" gradientTransform="matrix(0.9664 -0.2569 0.2569 0.9664 -186.3288 -316.0115)">
			<stop  offset="0" style="stop-color:#BCFF9D"/>
			<stop  offset="0.4644" style="stop-color:#8BDE87"/>
			<stop  offset="0.6367" style="stop-color:#79D27F"/>
			<stop  offset="1" style="stop-color:#52B86E"/>
		</linearGradient>
		<polygon fill="url(#SVGID_27_)" points="227.7,199.3 226.3,199.3 203.2,183.8 204.5,183.8 		"/>
	</g>
	<g>
		
			<linearGradient id="SVGID_28_" gradientUnits="userSpaceOnUse" x1="-195.8199" y1="-498.5629" x2="-231.6868" y2="-510.1841" gradientTransform="matrix(0.865 0.5017 -0.5017 0.865 148.1888 697.4323)">
			<stop  offset="0" style="stop-color:#BCFF9D"/>
			<stop  offset="1" style="stop-color:#52B86E"/>
		</linearGradient>
		<polygon fill="url(#SVGID_28_)" points="228.2,138.6 214.7,130.8 198.4,162.5 208.7,168.4 		"/>
		
			<linearGradient id="SVGID_29_" gradientUnits="userSpaceOnUse" x1="-207.204" y1="-1604.536" x2="-223.587" y2="-1588.8514" gradientTransform="matrix(0.865 0.5017 -0.2479 0.4274 -1.9757 956.3472)">
			<stop  offset="0" style="stop-color:#BCFF9D"/>
			<stop  offset="1" style="stop-color:#52B86E"/>
		</linearGradient>
		<polygon fill="url(#SVGID_29_)" points="207,168.4 197,162.5 198.4,162.5 208.7,168.4 		"/>
		
			<linearGradient id="SVGID_30_" gradientUnits="userSpaceOnUse" x1="248.6193" y1="566.7318" x2="251.0554" y2="569.342" gradientTransform="matrix(0.9664 -0.2569 0.2569 0.9664 -186.3288 -316.0115)">
			<stop  offset="0" style="stop-color:#BCFF9D"/>
			<stop  offset="1" style="stop-color:#52B86E"/>
		</linearGradient>
		<path fill="url(#SVGID_30_)" d="M203.1,165.3c-0.4-0.2-0.8-0.2-1,0.1l-1.9,3.2l0,0l-1.9,3.2l1.4,0.8l1.9-3.2l0,0l1.9-3.2
			C203.7,165.9,203.5,165.5,203.1,165.3z"/>
		
			<linearGradient id="SVGID_31_" gradientUnits="userSpaceOnUse" x1="-219.1571" y1="-480.3899" x2="-219.7798" y2="-479.3114" gradientTransform="matrix(0.865 0.5017 -0.5017 0.865 148.1888 697.4323)">
			<stop  offset="0" style="stop-color:#BCFF9D"/>
			<stop  offset="1" style="stop-color:#52B86E"/>
		</linearGradient>
		<path fill="url(#SVGID_31_)" d="M199.8,172.6c-0.2,0.3-0.6,0.3-1,0.1c-0.4-0.2-0.6-0.6-0.4-0.9c0.2-0.3,0.6-0.3,1-0.1
			S199.9,172.4,199.8,172.6z"/>
		
			<linearGradient id="SVGID_32_" gradientUnits="userSpaceOnUse" x1="261.7696" y1="544.2822" x2="251.8559" y2="566.3028" gradientTransform="matrix(0.9664 -0.2569 0.2569 0.9664 -186.3288 -316.0115)">
			<stop  offset="0" style="stop-color:#DDFFAA"/>
			<stop  offset="1" style="stop-color:#52B86E"/>
		</linearGradient>
		<polygon fill="url(#SVGID_32_)" points="197,162.5 198.4,162.5 214.7,130.8 213.6,130.8 		"/>
	</g>
	<g>
		
			<linearGradient id="SVGID_33_" gradientUnits="userSpaceOnUse" x1="199.7263" y1="952.993" x2="196.6773" y2="947.712" gradientTransform="matrix(1 0 0 -1 -0.7763 1124.2585)">
			<stop  offset="0" style="stop-color:#BCFF9D"/>
			<stop  offset="1" style="stop-color:#52B86E"/>
		</linearGradient>
		<path fill="url(#SVGID_33_)" d="M196.8,176.8c-1.1,0-2-1.2-2-2.8c0-1.5,0.9-2.8,2-2.8h2.1v5.6H196.8z"/>
		
			<linearGradient id="SVGID_34_" gradientUnits="userSpaceOnUse" x1="201.0013" y1="952.4951" x2="198.3844" y2="947.9623" gradientTransform="matrix(1 0 0 -1 -0.7763 1124.2585)">
			<stop  offset="0" style="stop-color:#BCFF9D"/>
			<stop  offset="1" style="stop-color:#52B86E"/>
		</linearGradient>
		<ellipse fill="url(#SVGID_34_)" cx="198.9" cy="174" rx="2" ry="2.8"/>
	</g>
	<g>
		
			<linearGradient id="SVGID_35_" gradientUnits="userSpaceOnUse" x1="-222.4009" y1="1790.4197" x2="-203.5608" y2="1741.9047" gradientTransform="matrix(0.5017 -0.865 0.865 0.5017 -1240.2107 -903.1283)">
			<stop  offset="0" style="stop-color:#BCFF9D"/>
			<stop  offset="1" style="stop-color:#52B86E"/>
		</linearGradient>
		<polygon fill="url(#SVGID_35_)" points="169.2,147.7 161.3,161.2 186.3,173.6 192.3,163.3 		"/>
		
			<linearGradient id="SVGID_36_" gradientUnits="userSpaceOnUse" x1="-210.0661" y1="1745.9089" x2="-210.0082" y2="1751.2268" gradientTransform="matrix(0.5017 -0.865 0.865 0.5017 -1240.2107 -903.1283)">
			<stop  offset="0" style="stop-color:#DEFFB2"/>
			<stop  offset="1" style="stop-color:#52B86E"/>
		</linearGradient>
		<polygon fill="url(#SVGID_36_)" points="169.2,147.7 161.3,161.2 160,161.2 167.8,147.7 		"/>
		
			<linearGradient id="SVGID_37_" gradientUnits="userSpaceOnUse" x1="242.2298" y1="566.1718" x2="240.3861" y2="569.3651" gradientTransform="matrix(0.9664 -0.2569 0.2569 0.9664 -186.3288 -316.0115)">
			<stop  offset="0" style="stop-color:#BCFF9D"/>
			<stop  offset="1" style="stop-color:#52B86E"/>
		</linearGradient>
		<path fill="url(#SVGID_37_)" d="M196.4,171.9l-3.4-2l-0.1,0l-3.4-2l-0.9,1.5l3.4,2l0,0l0,0l0,0l0,0l3.4,2c0.3,0.2,0.7,0,0.9-0.4
			C196.7,172.5,196.7,172,196.4,171.9z"/>
		
			<linearGradient id="SVGID_38_" gradientUnits="userSpaceOnUse" x1="208.6294" y1="553.8914" x2="245.17" y2="568.0712" gradientTransform="matrix(0.9664 -0.2569 0.2569 0.9664 -186.3288 -316.0115)">
			<stop  offset="0" style="stop-color:#BCFF9D"/>
			<stop  offset="1" style="stop-color:#52B86E"/>
		</linearGradient>
		<polygon fill="url(#SVGID_38_)" points="160,161.2 161.3,161.2 186.3,173.6 184.9,173.6 		"/>
	</g>
	<g>
		
			<linearGradient id="SVGID_39_" gradientUnits="userSpaceOnUse" x1="-195.5534" y1="1714.2267" x2="-240.1339" y2="1709.0529" gradientTransform="matrix(0.865 0.5017 0.5017 -0.865 -484.7399 1788.7329)">
			<stop  offset="0" style="stop-color:#BCFF9D"/>
			<stop  offset="1" style="stop-color:#52B86E"/>
		</linearGradient>
		<polygon fill="url(#SVGID_39_)" points="182,217 168.6,209.2 187.6,179.9 197.9,185.9 		"/>
		
			<linearGradient id="SVGID_40_" gradientUnits="userSpaceOnUse" x1="-235.6528" y1="1686.1274" x2="-206.3895" y2="1700.54" gradientTransform="matrix(0.865 0.5017 0.5017 -0.865 -484.7399 1788.7329)">
			<stop  offset="0" style="stop-color:#BCFF9D"/>
			<stop  offset="1" style="stop-color:#52B86E"/>
		</linearGradient>
		<polygon fill="url(#SVGID_40_)" points="182,217 168.6,209.2 167.2,209.2 180.7,217 		"/>
		
			<linearGradient id="SVGID_41_" gradientUnits="userSpaceOnUse" x1="239.6214" y1="575.3694" x2="242.4651" y2="578.1172" gradientTransform="matrix(0.9664 -0.2569 0.2569 0.9664 -186.3288 -316.0115)">
			<stop  offset="0" style="stop-color:#BCFF9D"/>
			<stop  offset="1" style="stop-color:#52B86E"/>
		</linearGradient>
		<path fill="url(#SVGID_41_)" d="M196.9,175.9c-0.4-0.2-0.8-0.2-1,0.1l-1.9,3.2l-0.1,0.1l-1.9,3.2l1.4,0.8l1.9-3.3l1.9-3.2
			C197.4,176.6,197.3,176.2,196.9,175.9z"/>
		
			<linearGradient id="SVGID_42_" gradientUnits="userSpaceOnUse" x1="218.8392" y1="586.6996" x2="226.6675" y2="587.7438" gradientTransform="matrix(0.9664 -0.2569 0.2569 0.9664 -186.3288 -316.0115)">
			<stop  offset="0" style="stop-color:#CBFF9D"/>
			<stop  offset="1" style="stop-color:#52B86E"/>
		</linearGradient>
		<polygon fill="url(#SVGID_42_)" points="167.2,209.2 168.6,209.2 187.6,179.9 186.4,179.9 		"/>
	</g>
	<g opacity="0.15">
		
			<radialGradient id="SVGID_43_" cx="356.1344" cy="1619.6547" r="8.1536" gradientTransform="matrix(-0.8564 -0.5089 8.907729e-002 -0.1499 375.7142 570.1529)" gradientUnits="userSpaceOnUse">
			<stop  offset="0" style="stop-color:#248D4E"/>
			<stop  offset="1" style="stop-color:#248D4E;stop-opacity:0"/>
		</radialGradient>
		<path opacity="0.5" fill="url(#SVGID_43_)" d="M210.2,143.3c-0.8,1.4,0.6,3.7,3.2,5.3c2.6,1.5,5.4,1.7,6.2,0.3L210.2,143.3z"/>
		
			<radialGradient id="SVGID_44_" cx="365.271" cy="1619.6547" r="8.1536" gradientTransform="matrix(-0.8564 -0.5089 8.907729e-002 -0.1499 386.4611 569.8841)" gradientUnits="userSpaceOnUse">
			<stop  offset="0" style="stop-color:#248D4E"/>
			<stop  offset="1" style="stop-color:#248D4E;stop-opacity:0"/>
		</radialGradient>
		<path opacity="0.5" fill="url(#SVGID_44_)" d="M213.1,138.3c-0.8,1.4,0.6,3.7,3.2,5.3c2.6,1.5,5.4,1.7,6.2,0.3L213.1,138.3z"/>
		
			<radialGradient id="SVGID_45_" cx="346.9978" cy="1619.6547" r="8.1536" gradientTransform="matrix(-0.8564 -0.5089 8.907729e-002 -0.1499 364.9674 570.4217)" gradientUnits="userSpaceOnUse">
			<stop  offset="0" style="stop-color:#248D4E"/>
			<stop  offset="1" style="stop-color:#248D4E;stop-opacity:0"/>
		</radialGradient>
		<path opacity="0.5" fill="url(#SVGID_45_)" d="M207.3,148.2c-0.8,1.4,0.6,3.7,3.2,5.3c2.6,1.5,5.4,1.7,6.2,0.3L207.3,148.2z"/>
		
			<radialGradient id="SVGID_46_" cx="337.8612" cy="1619.6547" r="8.1536" gradientTransform="matrix(-0.8564 -0.5089 8.907729e-002 -0.1499 354.2206 570.6905)" gradientUnits="userSpaceOnUse">
			<stop  offset="0" style="stop-color:#248D4E"/>
			<stop  offset="1" style="stop-color:#248D4E;stop-opacity:0"/>
		</radialGradient>
		<path opacity="0.5" fill="url(#SVGID_46_)" d="M204.4,153.1c-0.8,1.4,0.6,3.7,3.2,5.3c2.6,1.5,5.4,1.7,6.2,0.3L204.4,153.1z"/>
	</g>
	<g opacity="0.15">
		
			<radialGradient id="SVGID_47_" cx="264.4677" cy="1619.5669" r="8.1536" gradientTransform="matrix(-0.8564 -0.5089 8.907729e-002 -0.1499 267.8253 572.792)" gradientUnits="userSpaceOnUse">
			<stop  offset="0" style="stop-color:#248D4E"/>
			<stop  offset="1" style="stop-color:#248D4E;stop-opacity:0"/>
		</radialGradient>
		<path opacity="0.5" fill="url(#SVGID_47_)" d="M180.8,192.6c-0.8,1.4,0.6,3.7,3.2,5.3c2.6,1.5,5.4,1.7,6.2,0.3L180.8,192.6z"/>
		
			<radialGradient id="SVGID_48_" cx="273.6043" cy="1619.5669" r="8.1536" gradientTransform="matrix(-0.8564 -0.5089 8.907729e-002 -0.1499 278.5721 572.5232)" gradientUnits="userSpaceOnUse">
			<stop  offset="0" style="stop-color:#248D4E"/>
			<stop  offset="1" style="stop-color:#248D4E;stop-opacity:0"/>
		</radialGradient>
		<path opacity="0.5" fill="url(#SVGID_48_)" d="M183.7,187.6c-0.8,1.4,0.6,3.7,3.2,5.3c2.6,1.5,5.4,1.7,6.2,0.3L183.7,187.6z"/>
		
			<radialGradient id="SVGID_49_" cx="255.3311" cy="1619.5669" r="8.1536" gradientTransform="matrix(-0.8564 -0.5089 8.907729e-002 -0.1499 257.0785 573.0608)" gradientUnits="userSpaceOnUse">
			<stop  offset="0" style="stop-color:#248D4E"/>
			<stop  offset="1" style="stop-color:#248D4E;stop-opacity:0"/>
		</radialGradient>
		<path opacity="0.5" fill="url(#SVGID_49_)" d="M177.9,197.5c-0.8,1.4,0.6,3.7,3.2,5.3c2.6,1.5,5.4,1.7,6.2,0.3L177.9,197.5z"/>
		
			<radialGradient id="SVGID_50_" cx="246.1945" cy="1619.5669" r="8.1536" gradientTransform="matrix(-0.8564 -0.5089 8.907729e-002 -0.1499 246.3316 573.3296)" gradientUnits="userSpaceOnUse">
			<stop  offset="0" style="stop-color:#248D4E"/>
			<stop  offset="1" style="stop-color:#248D4E;stop-opacity:0"/>
		</radialGradient>
		<path opacity="0.5" fill="url(#SVGID_50_)" d="M175,202.4c-0.8,1.4,0.6,3.7,3.2,5.3c2.6,1.5,5.4,1.7,6.2,0.3L175,202.4z"/>
	</g>
	<g opacity="0.15">
		
			<radialGradient id="SVGID_51_" cx="-3868.2581" cy="1576.5812" r="8.1536" gradientTransform="matrix(-0.5208 0.8492 -0.1101 -6.748907e-002 -1623.9292 3575.2017)" gradientUnits="userSpaceOnUse">
			<stop  offset="0" style="stop-color:#248D4E"/>
			<stop  offset="1" style="stop-color:#248D4E;stop-opacity:0"/>
		</radialGradient>
		<path opacity="0.5" fill="url(#SVGID_51_)" d="M214.1,188.7c1,0.6,3.1-1,4.7-3.5c1.6-2.6,2-5.2,1-5.8L214.1,188.7z"/>
		
			<radialGradient id="SVGID_52_" cx="-3859.1216" cy="1576.5812" r="8.1536" gradientTransform="matrix(-0.5208 0.8492 -0.1101 -6.748907e-002 -1622.7819 3565.2288)" gradientUnits="userSpaceOnUse">
			<stop  offset="0" style="stop-color:#248D4E"/>
			<stop  offset="1" style="stop-color:#248D4E;stop-opacity:0"/>
		</radialGradient>
		<path opacity="0.5" fill="url(#SVGID_52_)" d="M210.5,186.5c1,0.6,3.1-1,4.7-3.5c1.6-2.6,2-5.2,1-5.8L210.5,186.5z"/>
		
			<radialGradient id="SVGID_53_" cx="-3877.3948" cy="1576.5812" r="8.1536" gradientTransform="matrix(-0.5208 0.8492 -0.1101 -6.748907e-002 -1625.0765 3585.1746)" gradientUnits="userSpaceOnUse">
			<stop  offset="0" style="stop-color:#248D4E"/>
			<stop  offset="1" style="stop-color:#248D4E;stop-opacity:0"/>
		</radialGradient>
		<path opacity="0.5" fill="url(#SVGID_53_)" d="M217.7,190.9c1,0.6,3.1-1,4.7-3.5c1.6-2.6,2-5.2,1-5.8L217.7,190.9z"/>
		
			<radialGradient id="SVGID_54_" cx="-3886.5313" cy="1576.5812" r="8.1536" gradientTransform="matrix(-0.5208 0.8492 -0.1101 -6.748907e-002 -1626.2239 3595.1475)" gradientUnits="userSpaceOnUse">
			<stop  offset="0" style="stop-color:#248D4E"/>
			<stop  offset="1" style="stop-color:#248D4E;stop-opacity:0"/>
		</radialGradient>
		<path opacity="0.5" fill="url(#SVGID_54_)" d="M221.3,193.1c1,0.6,3.1-1,4.7-3.5c1.6-2.6,2-5.2,1-5.8L221.3,193.1z"/>
	</g>
	<g opacity="0.15">
		
			<radialGradient id="SVGID_55_" cx="-3764.8154" cy="1574.7778" r="8.1536" gradientTransform="matrix(-0.5208 0.8492 -0.1101 -6.748907e-002 -1612.0768 3463.6997)" gradientUnits="userSpaceOnUse">
			<stop  offset="0" style="stop-color:#248D4E"/>
			<stop  offset="1" style="stop-color:#248D4E;stop-opacity:0"/>
		</radialGradient>
		<path opacity="0.5" fill="url(#SVGID_55_)" d="M172.3,165.1c1,0.6,3.1-1,4.7-3.5c1.6-2.6,2-5.2,1-5.8L172.3,165.1z"/>
		
			<radialGradient id="SVGID_56_" cx="-3755.679" cy="1574.7778" r="8.1536" gradientTransform="matrix(-0.5208 0.8492 -0.1101 -6.748907e-002 -1610.9294 3453.7268)" gradientUnits="userSpaceOnUse">
			<stop  offset="0" style="stop-color:#248D4E"/>
			<stop  offset="1" style="stop-color:#248D4E;stop-opacity:0"/>
		</radialGradient>
		<path opacity="0.5" fill="url(#SVGID_56_)" d="M168.6,162.9c1,0.6,3.1-1,4.7-3.5c1.6-2.6,2-5.2,1-5.8L168.6,162.9z"/>
		
			<radialGradient id="SVGID_57_" cx="-3773.9521" cy="1574.7778" r="8.1536" gradientTransform="matrix(-0.5208 0.8492 -0.1101 -6.748907e-002 -1613.2241 3473.6726)" gradientUnits="userSpaceOnUse">
			<stop  offset="0" style="stop-color:#248D4E"/>
			<stop  offset="1" style="stop-color:#248D4E;stop-opacity:0"/>
		</radialGradient>
		<path opacity="0.5" fill="url(#SVGID_57_)" d="M175.9,167.4c1,0.6,3.1-1,4.7-3.5c1.6-2.6,2-5.2,1-5.8L175.9,167.4z"/>
		
			<radialGradient id="SVGID_58_" cx="-3783.0886" cy="1574.7778" r="8.1536" gradientTransform="matrix(-0.5208 0.8492 -0.1101 -6.748907e-002 -1614.3715 3483.6458)" gradientUnits="userSpaceOnUse">
			<stop  offset="0" style="stop-color:#248D4E"/>
			<stop  offset="1" style="stop-color:#248D4E;stop-opacity:0"/>
		</radialGradient>
		<path opacity="0.5" fill="url(#SVGID_58_)" d="M179.5,169.6c1,0.6,3.1-1,4.7-3.5c1.6-2.6,2-5.2,1-5.8L179.5,169.6z"/>
	</g>
	<linearGradient id="SVGID_59_" gradientUnits="userSpaceOnUse" x1="115.5623" y1="235.1434" x2="135.7314" y2="232.2419">
		<stop  offset="0" style="stop-color:#BCFF9D"/>
		<stop  offset="0.3598" style="stop-color:#84DA84"/>
		<stop  offset="0.6385" style="stop-color:#60C174"/>
		<stop  offset="0.7864" style="stop-color:#52B86E"/>
		<stop  offset="0.8317" style="stop-color:#57BB70"/>
		<stop  offset="0.889" style="stop-color:#67C575"/>
		<stop  offset="0.9525" style="stop-color:#81D67F"/>
		<stop  offset="1" style="stop-color:#99E587"/>
	</linearGradient>
	<path fill="url(#SVGID_59_)" d="M136.4,242.5c0,8.9-4.6,11-10.2,11c-5.6,0-10.2-2.1-10.2-11c0-8.9,4.6-29,10.2-29
		C131.9,213.5,136.4,233.7,136.4,242.5z"/>
	
		<radialGradient id="SVGID_60_" cx="114.8829" cy="245.7782" r="18.072" gradientTransform="matrix(0.9962 0 0 1.7598 8.7373 -199.6099)" gradientUnits="userSpaceOnUse">
		<stop  offset="0" style="stop-color:#B1FF8D;stop-opacity:0"/>
		<stop  offset="1" style="stop-color:#DCFFBD"/>
	</radialGradient>
	<path opacity="0.2" fill="url(#SVGID_60_)" d="M136.4,242.5c0,8.9-4.6,11-10.2,11c-5.6,0-10.2-2.1-10.2-11c0-8.9,4.6-29,10.2-29
		C131.9,213.5,136.4,233.7,136.4,242.5z"/>
	<linearGradient id="SVGID_61_" gradientUnits="userSpaceOnUse" x1="129.2987" y1="251.7773" x2="119.3391" y2="214.6076">
		<stop  offset="0" style="stop-color:#5CBF61;stop-opacity:0"/>
		<stop  offset="1" style="stop-color:#F6FFB6"/>
	</linearGradient>
	<path opacity="0.8" fill="url(#SVGID_61_)" d="M136.4,242.5c0,8.9-4.6,11-10.2,11c-5.6,0-10.2-2.1-10.2-11c0-8.9,4.6-29,10.2-29
		C131.9,213.5,136.4,233.7,136.4,242.5z"/>
	<linearGradient id="SVGID_62_" gradientUnits="userSpaceOnUse" x1="89.9279" y1="240.771" x2="139.6201" y2="326.8405">
		<stop  offset="0" style="stop-color:#000000"/>
		<stop  offset="0.1443" style="stop-color:#000000;stop-opacity:0.8557"/>
		<stop  offset="1" style="stop-color:#000000;stop-opacity:0"/>
	</linearGradient>
	<polygon opacity="0.2" fill="url(#SVGID_62_)" points="102.4,233.6 121.7,331.9 130.9,331.9 106.6,233.6 	"/>
	<linearGradient id="SVGID_63_" gradientUnits="userSpaceOnUse" x1="103.6661" y1="234.5473" x2="105.1523" y2="226.1188">
		<stop  offset="0" style="stop-color:#B1FF9D"/>
		<stop  offset="0.4469" style="stop-color:#6DCF7E"/>
		<stop  offset="0.8177" style="stop-color:#3BAC68"/>
		<stop  offset="1" style="stop-color:#289E5F"/>
	</linearGradient>
	<path fill="url(#SVGID_63_)" d="M102.4,226.4v7c0,0.7,0.9,1.3,2.1,1.3c1.2,0,2.1-0.6,2.1-1.3v-7H102.4z"/>
	<linearGradient id="SVGID_64_" gradientUnits="userSpaceOnUse" x1="91.9843" y1="207.1196" x2="115.5524" y2="203.7291">
		<stop  offset="0" style="stop-color:#BCFF9D"/>
		<stop  offset="0.3598" style="stop-color:#84DA84"/>
		<stop  offset="0.6385" style="stop-color:#60C174"/>
		<stop  offset="0.7864" style="stop-color:#52B86E"/>
		<stop  offset="0.8317" style="stop-color:#57BB70"/>
		<stop  offset="0.889" style="stop-color:#67C575"/>
		<stop  offset="0.9525" style="stop-color:#81D67F"/>
		<stop  offset="1" style="stop-color:#99E587"/>
	</linearGradient>
	<path fill="url(#SVGID_64_)" d="M116.4,215.8c0,10.4-5.3,12.8-11.9,12.8s-11.9-2.5-11.9-12.8s5.3-33.9,11.9-33.9
		S116.4,205.4,116.4,215.8z"/>
	
		<radialGradient id="SVGID_65_" cx="92.5022" cy="217.2697" r="21.1177" gradientTransform="matrix(0.9962 0 0 1.7598 8.7373 -177.8385)" gradientUnits="userSpaceOnUse">
		<stop  offset="0" style="stop-color:#B1FF8D;stop-opacity:0"/>
		<stop  offset="1" style="stop-color:#DCFFBD"/>
	</radialGradient>
	<path opacity="0.2" fill="url(#SVGID_65_)" d="M116.4,215.8c0,10.4-5.3,12.8-11.9,12.8s-11.9-2.5-11.9-12.8s5.3-33.9,11.9-33.9
		S116.4,205.4,116.4,215.8z"/>
	<linearGradient id="SVGID_66_" gradientUnits="userSpaceOnUse" x1="108.0357" y1="226.5567" x2="96.3976" y2="183.123">
		<stop  offset="0" style="stop-color:#5CBF61;stop-opacity:0"/>
		<stop  offset="1" style="stop-color:#F6FFB6"/>
	</linearGradient>
	<path opacity="0.8" fill="url(#SVGID_66_)" d="M116.4,215.8c0,10.4-5.3,12.8-11.9,12.8c-6.6,0-11.9-2.5-11.9-12.8
		s5.3-33.9,11.9-33.9C111.1,181.9,116.4,205.4,116.4,215.8z"/>
</g>
</svg>
