<?xml version="1.0" encoding="utf-8"?>
<!-- Generator: Adobe Illustrator 17.1.0, SVG Export Plug-In . SVG Version: 6.00 Build 0)  -->
<!DOCTYPE svg PUBLIC "-//W3C//DTD SVG 1.1//EN" "http://www.w3.org/Graphics/SVG/1.1/DTD/svg11.dtd">
<svg version="1.1" id="图层_1" xmlns="http://www.w3.org/2000/svg" xmlns:xlink="http://www.w3.org/1999/xlink" x="0px" y="0px"
	 viewBox="0 0 320 380" enable-background="new 0 0 320 380" xml:space="preserve">
<g>
	
		<radialGradient id="SVGID_1_" cx="-184.923" cy="419.5687" r="103.6604" gradientTransform="matrix(0.8674 0 0 1.1246 317.1587 -284.6871)" gradientUnits="userSpaceOnUse">
		<stop  offset="0" style="stop-color:#FFFFC9"/>
		<stop  offset="1" style="stop-color:#FFFFBE;stop-opacity:0"/>
	</radialGradient>
	<rect y="185.7" opacity="0.3" fill="url(#SVGID_1_)" width="320" height="123.7"/>
	<g>
		<linearGradient id="SVGID_2_" gradientUnits="userSpaceOnUse" x1="138.3692" y1="204.2144" x2="168.3568" y2="286.6046">
			<stop  offset="0" style="stop-color:#000000"/>
			<stop  offset="0.147" style="stop-color:#000000;stop-opacity:0.853"/>
			<stop  offset="1" style="stop-color:#000000;stop-opacity:0"/>
		</linearGradient>
		<polygon opacity="0.2" fill="url(#SVGID_2_)" points="67.6,208 114.3,268.3 233.8,268.3 177.1,208 		"/>
		<linearGradient id="SVGID_3_" gradientUnits="userSpaceOnUse" x1="104.2254" y1="217.1232" x2="104.2254" y2="208.5816">
			<stop  offset="0" style="stop-color:#F19A35"/>
			<stop  offset="9.768426e-003" style="stop-color:#F19A35"/>
			<stop  offset="1" style="stop-color:#E4782D"/>
		</linearGradient>
		<circle fill="url(#SVGID_3_)" cx="104.2" cy="212.9" r="4.3"/>
		<linearGradient id="SVGID_4_" gradientUnits="userSpaceOnUse" x1="92.5457" y1="217.1232" x2="92.5457" y2="208.5816">
			<stop  offset="0" style="stop-color:#F19A35"/>
			<stop  offset="9.768426e-003" style="stop-color:#F19A35"/>
			<stop  offset="1" style="stop-color:#E4782D"/>
		</linearGradient>
		<circle fill="url(#SVGID_4_)" cx="92.5" cy="212.9" r="4.3"/>
		<g>
			<linearGradient id="SVGID_5_" gradientUnits="userSpaceOnUse" x1="170.3923" y1="197.5114" x2="172.3452" y2="186.4356">
				<stop  offset="0" style="stop-color:#FFE883"/>
				<stop  offset="1" style="stop-color:#FFFFB5"/>
			</linearGradient>
			<polygon fill="url(#SVGID_5_)" points="183.6,197.5 172.6,186.5 159.1,186.5 170.1,197.5 			"/>
			<linearGradient id="SVGID_6_" gradientUnits="userSpaceOnUse" x1="151.1674" y1="212.1612" x2="151.1674" y2="177.6311">
				<stop  offset="0" style="stop-color:#FFB73B"/>
				<stop  offset="1" style="stop-color:#FFE474"/>
			</linearGradient>
			<polygon fill="url(#SVGID_6_)" points="156.7,212.2 145.7,201.2 145.7,177.6 156.7,188.6 			"/>
			<linearGradient id="SVGID_7_" gradientUnits="userSpaceOnUse" x1="156.9247" y1="188.6599" x2="158.8777" y2="177.5841">
				<stop  offset="0" style="stop-color:#FFE883"/>
				<stop  offset="1" style="stop-color:#FFFFB5"/>
			</linearGradient>
			<polygon fill="url(#SVGID_7_)" points="170.1,188.6 159.1,177.6 145.7,177.6 156.7,188.6 			"/>
		</g>
		<g>
			<linearGradient id="SVGID_8_" gradientUnits="userSpaceOnUse" x1="147.6645" y1="209.1285" x2="154.4792" y2="205.194">
				<stop  offset="0" style="stop-color:#F19A35"/>
				<stop  offset="0.2935" style="stop-color:#F5A941"/>
				<stop  offset="1" style="stop-color:#FFCB5C"/>
			</linearGradient>
			<rect x="148" y="204.6" fill="url(#SVGID_8_)" width="6.1" height="5.1"/>
			<linearGradient id="SVGID_9_" gradientUnits="userSpaceOnUse" x1="145.5902" y1="209.7157" x2="145.5902" y2="199.7802">
				<stop  offset="0" style="stop-color:#FFB73B"/>
				<stop  offset="1" style="stop-color:#FFE474"/>
			</linearGradient>
			<polygon fill="url(#SVGID_9_)" points="148,209.7 143.2,204.9 143.2,199.8 148,204.6 			"/>
			<linearGradient id="SVGID_10_" gradientUnits="userSpaceOnUse" x1="148.2261" y1="204.646" x2="149.091" y2="199.7409">
				<stop  offset="0" style="stop-color:#FFE883"/>
				<stop  offset="1" style="stop-color:#FFFFB5"/>
			</linearGradient>
			<polygon fill="url(#SVGID_10_)" points="154.1,204.6 149.3,199.8 143.2,199.8 148,204.6 			"/>
		</g>
		<g>
			<linearGradient id="SVGID_11_" gradientUnits="userSpaceOnUse" x1="71.2666" y1="214.176" x2="71.2666" y2="164.4245">
				<stop  offset="0" style="stop-color:#FFB73B"/>
				<stop  offset="1" style="stop-color:#FFE474"/>
			</linearGradient>
			<polygon fill="url(#SVGID_11_)" points="64,199.7 78.5,214.2 78.5,178.9 64,164.4 			"/>
			<linearGradient id="SVGID_12_" gradientUnits="userSpaceOnUse" x1="106.8835" y1="179.3248" x2="110.176" y2="160.6518">
				<stop  offset="0" style="stop-color:#FFE883"/>
				<stop  offset="1" style="stop-color:#FFFFB5"/>
			</linearGradient>
			<polygon fill="url(#SVGID_12_)" points="64,164.4 78.5,178.9 152.4,178.9 138,164.4 			"/>
		</g>
		<linearGradient id="SVGID_13_" gradientUnits="userSpaceOnUse" x1="172.8286" y1="215.0773" x2="172.8286" y2="206.5356">
			<stop  offset="0" style="stop-color:#F19A35"/>
			<stop  offset="9.768426e-003" style="stop-color:#F19A35"/>
			<stop  offset="1" style="stop-color:#E4782D"/>
		</linearGradient>
		<circle fill="url(#SVGID_13_)" cx="172.8" cy="210.8" r="4.3"/>
		<linearGradient id="SVGID_14_" gradientUnits="userSpaceOnUse" x1="155.0005" y1="209.2897" x2="181.5658" y2="193.9523">
			<stop  offset="0" style="stop-color:#F19A35"/>
			<stop  offset="0.2935" style="stop-color:#F5A941"/>
			<stop  offset="1" style="stop-color:#FFCB5C"/>
		</linearGradient>
		<path fill="url(#SVGID_14_)" d="M170.1,197.5v-8.9h-13.5v23.5h13.5h1.2c0,2.4,1.9,4.3,4.3,4.3c2.4,0,4.3-1.9,4.3-4.3h3.7v-14.7
			H170.1z"/>
		<linearGradient id="SVGID_15_" gradientUnits="userSpaceOnUse" x1="80.0999" y1="216.9383" x2="150.8335" y2="176.1002">
			<stop  offset="0" style="stop-color:#F19A35"/>
			<stop  offset="0.2935" style="stop-color:#F5A941"/>
			<stop  offset="1" style="stop-color:#FFCB5C"/>
		</linearGradient>
		<path fill="url(#SVGID_15_)" d="M78.5,178.9v35.3h12.3c0,2.4,1.9,4.3,4.3,4.3c2.4,0,4.3-1.9,4.3-4.3h2.8c0,2.4,1.9,4.3,4.3,4.3
			c2.4,0,4.3-1.9,4.3-4.3h41.8v-35.3H78.5z"/>
	</g>
	<g>
		<linearGradient id="SVGID_16_" gradientUnits="userSpaceOnUse" x1="232.7971" y1="207.2087" x2="246.154" y2="243.9065">
			<stop  offset="0" style="stop-color:#000000"/>
			<stop  offset="0.147" style="stop-color:#000000;stop-opacity:0.853"/>
			<stop  offset="1" style="stop-color:#000000;stop-opacity:0"/>
		</linearGradient>
		<polygon opacity="0.2" fill="url(#SVGID_16_)" points="201.3,208.9 222.1,235.7 275.3,235.7 250.1,208.9 		"/>
		<linearGradient id="SVGID_17_" gradientUnits="userSpaceOnUse" x1="217.8293" y1="215.2178" x2="217.8293" y2="208.4017">
			<stop  offset="0" style="stop-color:#F19A35"/>
			<stop  offset="9.768426e-003" style="stop-color:#F19A35"/>
			<stop  offset="1" style="stop-color:#E4782D"/>
		</linearGradient>
		<circle fill="url(#SVGID_17_)" cx="217.8" cy="211.8" r="3.4"/>
		<linearGradient id="SVGID_18_" gradientUnits="userSpaceOnUse" x1="247.0579" y1="215.2178" x2="247.0579" y2="208.4017">
			<stop  offset="0" style="stop-color:#F19A35"/>
			<stop  offset="9.768426e-003" style="stop-color:#F19A35"/>
			<stop  offset="1" style="stop-color:#E4782D"/>
		</linearGradient>
		<circle fill="url(#SVGID_18_)" cx="247.1" cy="211.8" r="3.4"/>
		<linearGradient id="SVGID_19_" gradientUnits="userSpaceOnUse" x1="241.7853" y1="196.6014" x2="243.3713" y2="187.6066">
			<stop  offset="0" style="stop-color:#FFE883"/>
			<stop  offset="1" style="stop-color:#FFFFB5"/>
		</linearGradient>
		<polygon fill="url(#SVGID_19_)" points="242.5,196.7 233.2,187.5 242.7,187.5 251.9,196.7 		"/>
		<linearGradient id="SVGID_20_" gradientUnits="userSpaceOnUse" x1="240.6656" y1="209.9485" x2="256.2486" y2="200.9516">
			<stop  offset="0" style="stop-color:#F19A35"/>
			<stop  offset="0.2935" style="stop-color:#F5A941"/>
			<stop  offset="1" style="stop-color:#FFCB5C"/>
		</linearGradient>
		<path fill="url(#SVGID_20_)" d="M251.9,196.7h-9.4v16.4h3.6c0,1.8,1.5,3.3,3.3,3.3c1.8,0,3.3-1.5,3.3-3.3h3.6v-12L251.9,196.7z"/>
		<linearGradient id="SVGID_21_" gradientUnits="userSpaceOnUse" x1="209.5607" y1="211.4534" x2="243.4247" y2="191.902">
			<stop  offset="0" style="stop-color:#F19A35"/>
			<stop  offset="0.2935" style="stop-color:#F5A941"/>
			<stop  offset="1" style="stop-color:#FFCB5C"/>
		</linearGradient>
		<path fill="url(#SVGID_21_)" d="M210.5,190.3v22.8h6.4c0,1.8,1.5,3.3,3.3,3.3c1.8,0,3.3-1.5,3.3-3.3h18.8v-22.8H210.5z"/>
		<linearGradient id="SVGID_22_" gradientUnits="userSpaceOnUse" x1="205.8859" y1="213.0905" x2="205.8859" y2="181.0254">
			<stop  offset="0" style="stop-color:#FFB73B"/>
			<stop  offset="1" style="stop-color:#FFE474"/>
		</linearGradient>
		<polygon fill="url(#SVGID_22_)" points="210.5,213.1 201.3,203.9 201.3,181 210.5,190.3 		"/>
		<linearGradient id="SVGID_23_" gradientUnits="userSpaceOnUse" x1="220.74" y1="192.0696" x2="223.0056" y2="179.2208">
			<stop  offset="0" style="stop-color:#FFE883"/>
			<stop  offset="1" style="stop-color:#FFFFB5"/>
		</linearGradient>
		<polygon fill="url(#SVGID_23_)" points="210.5,190.3 201.3,181 233.2,181 242.5,190.3 		"/>
	</g>
	
		<linearGradient id="SVGID_24_" gradientUnits="userSpaceOnUse" x1="-2542.7358" y1="1239.9362" x2="-2479.4993" y2="1223.9369" gradientTransform="matrix(-0.7169 0.6971 0.6971 0.7169 -2623.4854 1065.0938)">
		<stop  offset="0" style="stop-color:#FFFFBA"/>
		<stop  offset="1" style="stop-color:#FFFFC2;stop-opacity:0"/>
	</linearGradient>
	<path opacity="0.5" fill="url(#SVGID_24_)" d="M7.2,176.1c0.2-1.2,0.7-2.4,1.7-3.4c2.3-2.2,6-2.2,8.2,0.1c0,0,0,0,0,0.1
		c0.2-0.2,0.4-0.5,0.6-0.7c2.5-2.4,6.5-2.5,9-0.1c1.6-0.8,3.6-0.5,4.8,0.8c0.6,0.6,1,1.4,1.1,2.2c1.3,0.1,2.7,0.6,3.7,1.7
		c1.6,1.7,2,4.1,1.1,6.1c0.6,0.1,1.2,0.4,1.7,0.9c0.8,0.8,1.1,1.9,0.8,3c1.6-0.7,3.5-0.3,4.7,0.9c0.3,0.4,0.6,0.8,0.8,1.2
		c1.4-0.7,3.2-0.5,4.4,0.7c0.2,0.2,0.4,0.5,0.6,0.8c0.1-0.1,0.1-0.2,0.2-0.2c1.5-1.4,3.8-1.4,5.2,0.1c0.9,0.9,1.2,2.1,1,3.2
		c1.5-0.3,3.1,0.1,4.2,1.2c1.2,1.2,1.5,3,1.1,4.5c0.8,0,1.7,0.2,2.3,0.9c0.9,0.9,1.1,2.2,0.6,3.3c1.2-0.7,2.8-0.5,3.8,0.6
		c0.1,0.1,0.1,0.2,0.2,0.2c0.2-0.4,0.4-0.9,0.8-1.2c1.2-1.2,3.2-1.2,4.5,0.1c0.2,0.2,0.3,0.3,0.4,0.5c0.9,0.1,1.9,0.6,2.6,1.3
		c1.2,1.2,1.5,2.9,1.1,4.3l0.2,4.5H7.2V176.1z"/>
	<linearGradient id="SVGID_25_" gradientUnits="userSpaceOnUse" x1="205.6345" y1="197.8622" x2="182.6038" y2="211.1591">
		<stop  offset="0" style="stop-color:#FFFFC2"/>
		<stop  offset="1" style="stop-color:#FFFFAA;stop-opacity:0"/>
	</linearGradient>
	<path opacity="0.5" fill="url(#SVGID_25_)" d="M183.8,193c0.4-1,1.5-1.8,2.7-1.8c1.6,0,2.9,1.3,2.9,2.9c1.2,0,2.1,1,2.1,2.1
		c0,0.5-0.2,0.9-0.4,1.3c0.7-0.5,1.6-0.9,2.6-0.9c1.7,0,3.1,1,3.8,2.4c0.5-1.4,1.8-2.4,3.4-2.4c0.8,0,1.5,0.2,2,0.6
		c0.3-0.3,0.7-0.4,1.2-0.4c1,0,1.8,0.8,1.8,1.8c0,0.4-0.1,0.8-0.4,1.1c1.4,0.4,2.4,1.7,2.4,3.2c0,0.4-0.1,0.8-0.2,1.1
		c1.6,0.1,2.9,1.4,2.9,3.1c0,0.3,0,0.6-0.1,0.9l0.1,5.1h-26.7V193z"/>
	<g>
		<linearGradient id="SVGID_26_" gradientUnits="userSpaceOnUse" x1="140.5326" y1="228.6652" x2="151.709" y2="259.3722">
			<stop  offset="0" style="stop-color:#000000"/>
			<stop  offset="0.147" style="stop-color:#000000;stop-opacity:0.853"/>
			<stop  offset="1" style="stop-color:#000000;stop-opacity:0"/>
		</linearGradient>
		<polygon opacity="0.2" fill="url(#SVGID_26_)" points="114.1,230.1 131.6,252.5 176.1,252.5 155,230.1 		"/>
		<linearGradient id="SVGID_27_" gradientUnits="userSpaceOnUse" x1="151.9963" y1="236.4389" x2="151.9963" y2="229.973">
			<stop  offset="0" style="stop-color:#F19A35"/>
			<stop  offset="9.768426e-003" style="stop-color:#F19A35"/>
			<stop  offset="1" style="stop-color:#E4782D"/>
		</linearGradient>
		<circle fill="url(#SVGID_27_)" cx="152" cy="233.2" r="3.2"/>
		<linearGradient id="SVGID_28_" gradientUnits="userSpaceOnUse" x1="125.0711" y1="236.4389" x2="125.0711" y2="229.973">
			<stop  offset="0" style="stop-color:#F19A35"/>
			<stop  offset="9.768426e-003" style="stop-color:#F19A35"/>
			<stop  offset="1" style="stop-color:#E4782D"/>
		</linearGradient>
		<circle fill="url(#SVGID_28_)" cx="125.1" cy="233.2" r="3.2"/>
		<linearGradient id="SVGID_29_" gradientUnits="userSpaceOnUse" x1="150.1668" y1="226.3751" x2="151.0815" y2="221.1882">
			<stop  offset="0" style="stop-color:#FFE883"/>
			<stop  offset="1" style="stop-color:#FFFFB5"/>
		</linearGradient>
		<polygon fill="url(#SVGID_29_)" points="159.5,227.8 153.2,221.6 141.8,219.8 148,226 		"/>
		<linearGradient id="SVGID_30_" gradientUnits="userSpaceOnUse" x1="116.9165" y1="234.0462" x2="116.9165" y2="220.3309">
			<stop  offset="0" style="stop-color:#FFB73B"/>
			<stop  offset="1" style="stop-color:#FFE474"/>
		</linearGradient>
		<polygon fill="url(#SVGID_30_)" points="120,234 113.8,227.8 113.8,220.3 120,226.6 		"/>
		<linearGradient id="SVGID_31_" gradientUnits="userSpaceOnUse" x1="118.6053" y1="226.3225" x2="119.7212" y2="219.9939">
			<stop  offset="0" style="stop-color:#FFE883"/>
			<stop  offset="1" style="stop-color:#FFFFB5"/>
		</linearGradient>
		<polygon fill="url(#SVGID_31_)" points="120,226.6 113.8,220.3 118.3,219.7 124.6,226 		"/>
		<linearGradient id="SVGID_32_" gradientUnits="userSpaceOnUse" x1="122.8418" y1="225.9855" x2="122.8418" y2="214.2063">
			<stop  offset="0" style="stop-color:#FFB73B"/>
			<stop  offset="1" style="stop-color:#FFE474"/>
		</linearGradient>
		<polygon fill="url(#SVGID_32_)" points="124.6,226 118.4,219.7 121.1,214.2 127.3,220.4 		"/>
		<linearGradient id="SVGID_33_" gradientUnits="userSpaceOnUse" x1="131.9238" y1="221.2594" x2="133.3114" y2="213.3902">
			<stop  offset="0" style="stop-color:#FFE883"/>
			<stop  offset="1" style="stop-color:#FFFFB5"/>
		</linearGradient>
		<polygon fill="url(#SVGID_33_)" points="144.2,220.4 137.9,214.2 121.1,214.2 127.3,220.4 		"/>
		<linearGradient id="SVGID_34_" gradientUnits="userSpaceOnUse" x1="123.016" y1="239.2095" x2="155.2963" y2="220.5724">
			<stop  offset="0" style="stop-color:#F19A35"/>
			<stop  offset="0.2935" style="stop-color:#F5A941"/>
			<stop  offset="1" style="stop-color:#FFCB5C"/>
		</linearGradient>
		<path fill="url(#SVGID_34_)" d="M148,226l-3.8-5.5h-16.9l-2.7,5.5l-4.6,0.5v7.5h3.3c0,1.8,1.4,3.2,3.2,3.2c1.8,0,3.2-1.4,3.2-3.2
			H148h2.5c0,1.8,1.4,3.2,3.2,3.2c1.8,0,3.2-1.4,3.2-3.2h2.5v-6.3L148,226z"/>
	</g>
	<g>
		<linearGradient id="SVGID_35_" gradientUnits="userSpaceOnUse" x1="257.2173" y1="227.6593" x2="268.3937" y2="258.3663">
			<stop  offset="0" style="stop-color:#000000"/>
			<stop  offset="0.147" style="stop-color:#000000;stop-opacity:0.853"/>
			<stop  offset="1" style="stop-color:#000000;stop-opacity:0"/>
		</linearGradient>
		<polygon opacity="0.2" fill="url(#SVGID_35_)" points="230.8,229.1 248.2,251.5 292.8,251.5 271.7,229.1 		"/>
		<linearGradient id="SVGID_36_" gradientUnits="userSpaceOnUse" x1="268.6809" y1="235.433" x2="268.6809" y2="228.9671">
			<stop  offset="0" style="stop-color:#F19A35"/>
			<stop  offset="9.768426e-003" style="stop-color:#F19A35"/>
			<stop  offset="1" style="stop-color:#E4782D"/>
		</linearGradient>
		<circle fill="url(#SVGID_36_)" cx="268.7" cy="232.2" r="3.2"/>
		<linearGradient id="SVGID_37_" gradientUnits="userSpaceOnUse" x1="241.7557" y1="235.433" x2="241.7557" y2="228.9671">
			<stop  offset="0" style="stop-color:#F19A35"/>
			<stop  offset="9.768426e-003" style="stop-color:#F19A35"/>
			<stop  offset="1" style="stop-color:#E4782D"/>
		</linearGradient>
		<circle fill="url(#SVGID_37_)" cx="241.8" cy="232.2" r="3.2"/>
		<linearGradient id="SVGID_38_" gradientUnits="userSpaceOnUse" x1="266.8515" y1="225.3692" x2="267.7661" y2="220.1823">
			<stop  offset="0" style="stop-color:#FFE883"/>
			<stop  offset="1" style="stop-color:#FFFFB5"/>
		</linearGradient>
		<polygon fill="url(#SVGID_38_)" points="276.1,226.8 269.9,220.6 258.5,218.8 264.7,225 		"/>
		<linearGradient id="SVGID_39_" gradientUnits="userSpaceOnUse" x1="233.6011" y1="233.0403" x2="233.6011" y2="219.325">
			<stop  offset="0" style="stop-color:#FFB73B"/>
			<stop  offset="1" style="stop-color:#FFE474"/>
		</linearGradient>
		<polygon fill="url(#SVGID_39_)" points="236.7,233 230.5,226.8 230.5,219.3 236.7,225.6 		"/>
		<linearGradient id="SVGID_40_" gradientUnits="userSpaceOnUse" x1="235.2899" y1="225.3166" x2="236.4058" y2="218.988">
			<stop  offset="0" style="stop-color:#FFE883"/>
			<stop  offset="1" style="stop-color:#FFFFB5"/>
		</linearGradient>
		<polygon fill="url(#SVGID_40_)" points="236.7,225.6 230.4,219.3 235,218.7 241.3,225 		"/>
		<linearGradient id="SVGID_41_" gradientUnits="userSpaceOnUse" x1="239.5265" y1="224.9796" x2="239.5265" y2="213.2004">
			<stop  offset="0" style="stop-color:#FFB73B"/>
			<stop  offset="1" style="stop-color:#FFE474"/>
		</linearGradient>
		<polygon fill="url(#SVGID_41_)" points="241.3,225 235.1,218.7 237.8,213.2 244,219.4 		"/>
		<linearGradient id="SVGID_42_" gradientUnits="userSpaceOnUse" x1="248.6084" y1="220.2535" x2="249.996" y2="212.3843">
			<stop  offset="0" style="stop-color:#FFE883"/>
			<stop  offset="1" style="stop-color:#FFFFB5"/>
		</linearGradient>
		<polygon fill="url(#SVGID_42_)" points="260.9,219.4 254.6,213.2 237.7,213.2 244,219.4 		"/>
		<linearGradient id="SVGID_43_" gradientUnits="userSpaceOnUse" x1="239.7007" y1="238.2036" x2="271.981" y2="219.5665">
			<stop  offset="0" style="stop-color:#F19A35"/>
			<stop  offset="0.2935" style="stop-color:#F5A941"/>
			<stop  offset="1" style="stop-color:#FFCB5C"/>
		</linearGradient>
		<path fill="url(#SVGID_43_)" d="M264.7,225l-3.8-5.5H244l-2.7,5.5l-4.6,0.5v7.5h3.3c0,1.8,1.4,3.2,3.2,3.2c1.8,0,3.2-1.4,3.2-3.2
			h18.3h2.5c0,1.8,1.4,3.2,3.2,3.2c1.8,0,3.2-1.4,3.2-3.2h2.5v-6.3L264.7,225z"/>
	</g>
	<g>
		<linearGradient id="SVGID_44_" gradientUnits="userSpaceOnUse" x1="203.7613" y1="227.7694" x2="215.0906" y2="258.8964">
			<stop  offset="0" style="stop-color:#000000"/>
			<stop  offset="0.147" style="stop-color:#000000;stop-opacity:0.853"/>
			<stop  offset="1" style="stop-color:#000000;stop-opacity:0"/>
		</linearGradient>
		<polygon opacity="0.2" fill="url(#SVGID_44_)" points="177,229.2 194.7,252 239.8,252 218.4,229.2 		"/>
		<linearGradient id="SVGID_45_" gradientUnits="userSpaceOnUse" x1="188.412" y1="234.8472" x2="188.412" y2="228.031">
			<stop  offset="0" style="stop-color:#F19A35"/>
			<stop  offset="9.768426e-003" style="stop-color:#F19A35"/>
			<stop  offset="1" style="stop-color:#E4782D"/>
		</linearGradient>
		<circle fill="url(#SVGID_45_)" cx="188.4" cy="231.4" r="3.4"/>
		<linearGradient id="SVGID_46_" gradientUnits="userSpaceOnUse" x1="215.4313" y1="234.8472" x2="215.4313" y2="228.031">
			<stop  offset="0" style="stop-color:#F19A35"/>
			<stop  offset="9.768426e-003" style="stop-color:#F19A35"/>
			<stop  offset="1" style="stop-color:#E4782D"/>
		</linearGradient>
		<circle fill="url(#SVGID_46_)" cx="215.4" cy="231.4" r="3.4"/>
		<linearGradient id="SVGID_47_" gradientUnits="userSpaceOnUse" x1="213.5924" y1="222.4585" x2="214.6892" y2="216.238">
			<stop  offset="0" style="stop-color:#FFE883"/>
			<stop  offset="1" style="stop-color:#FFFFB5"/>
		</linearGradient>
		<polygon fill="url(#SVGID_47_)" points="223.1,223.2 216.4,216.5 205.2,215.5 211.9,222.2 		"/>
		<linearGradient id="SVGID_48_" gradientUnits="userSpaceOnUse" x1="180.9953" y1="222.1435" x2="180.9953" y2="208.7486">
			<stop  offset="0" style="stop-color:#FFBA50"/>
			<stop  offset="1" style="stop-color:#FFEC86"/>
		</linearGradient>
		<polygon fill="url(#SVGID_48_)" points="183.5,222.1 176.8,215.4 178.5,208.7 185.2,215.4 		"/>
		<linearGradient id="SVGID_49_" gradientUnits="userSpaceOnUse" x1="180.1214" y1="231.9323" x2="180.1214" y2="215.4558">
			<stop  offset="0" style="stop-color:#FFB73B"/>
			<stop  offset="1" style="stop-color:#FFE474"/>
		</linearGradient>
		<polygon fill="url(#SVGID_49_)" points="183.5,222.2 176.8,215.5 176.8,225.2 183.5,231.9 		"/>
		<linearGradient id="SVGID_50_" gradientUnits="userSpaceOnUse" x1="192.0566" y1="216.6519" x2="193.6628" y2="207.5427">
			<stop  offset="0" style="stop-color:#FFE883"/>
			<stop  offset="1" style="stop-color:#FFFFB5"/>
		</linearGradient>
		<polygon fill="url(#SVGID_50_)" points="185.2,215.4 178.5,208.7 200.5,208.7 207.2,215.4 		"/>
		<linearGradient id="SVGID_51_" gradientUnits="userSpaceOnUse" x1="185.2674" y1="235.0354" x2="218.7523" y2="215.7029">
			<stop  offset="0" style="stop-color:#F19A35"/>
			<stop  offset="0.2935" style="stop-color:#F5A941"/>
			<stop  offset="1" style="stop-color:#FFCB5C"/>
		</linearGradient>
		<path fill="url(#SVGID_51_)" d="M223.1,223.3l-11.3-1.1l0,0l-4.6-6.7h-22l-1.8,6.7v9.8h3.2c0,0,0,0,0,0c0,2,1.6,3.6,3.6,3.6
			s3.6-1.6,3.6-3.6c0,0,0,0,0,0h18h2.1c0,0,0,0,0,0c0,2,1.6,3.6,3.6,3.6s3.6-1.6,3.6-3.6c0,0,0,0,0,0h2.1V223.3z"/>
	</g>
	<linearGradient id="SVGID_52_" gradientUnits="userSpaceOnUse" x1="236.0497" y1="223.022" x2="222.281" y2="230.9713">
		<stop  offset="0" style="stop-color:#FFF3C3"/>
		<stop  offset="1" style="stop-color:#FFFFBC;stop-opacity:0"/>
	</linearGradient>
	<path opacity="0.5" fill="url(#SVGID_52_)" d="M236.7,231.2c0-1.1-0.9-1.9-1.9-1.9c-0.9,0-1.7,0.7-1.9,1.5
		c-0.4-1.5-1.8-2.7-3.4-2.7c-0.6,0-1.1,0.1-1.6,0.4c-0.1-0.6-0.6-1.1-1.3-1.1c-0.1,0-0.2,0-0.3,0c0.7-0.4,1.2-1.1,1.2-2
		c0-0.8-0.4-1.5-1-1.9c0.1-0.3,0.2-0.6,0.2-0.9c0-1.4-1.1-2.5-2.5-2.5c-1,0-1.9,0.6-2.3,1.5c-0.2-0.2-0.5-0.3-0.8-0.3
		c-0.7,0-1.3,0.6-1.3,1.3V233h17V231.2z"/>
	<linearGradient id="SVGID_53_" gradientUnits="userSpaceOnUse" x1="182.8003" y1="221.9329" x2="169.0316" y2="229.8822">
		<stop  offset="0" style="stop-color:#FFF3C3"/>
		<stop  offset="1" style="stop-color:#FFFFBC;stop-opacity:0"/>
	</linearGradient>
	<path opacity="0.5" fill="url(#SVGID_53_)" d="M183.5,230.1c0-1.1-0.9-1.9-1.9-1.9c-0.9,0-1.7,0.7-1.9,1.5
		c-0.4-1.5-1.8-2.7-3.4-2.7c-0.6,0-1.1,0.1-1.6,0.4c-0.1-0.6-0.6-1.1-1.3-1.1c-0.1,0-0.2,0-0.3,0c0.7-0.4,1.2-1.1,1.2-2
		c0-0.8-0.4-1.5-1-1.9c0.1-0.3,0.2-0.6,0.2-0.9c0-1.4-1.1-2.5-2.5-2.5c-1,0-1.9,0.6-2.3,1.5c-0.2-0.2-0.5-0.3-0.8-0.3
		c-0.7,0-1.3,0.6-1.3,1.3V232h17V230.1z"/>
	<linearGradient id="SVGID_54_" gradientUnits="userSpaceOnUse" x1="119.365" y1="224.0279" x2="105.5964" y2="231.9772">
		<stop  offset="0" style="stop-color:#FFF3C3"/>
		<stop  offset="1" style="stop-color:#FFFFBC;stop-opacity:0"/>
	</linearGradient>
	<path opacity="0.5" fill="url(#SVGID_54_)" d="M120,232.2c0-1.1-0.9-1.9-1.9-1.9c-0.9,0-1.7,0.7-1.9,1.5c-0.4-1.5-1.8-2.7-3.4-2.7
		c-0.6,0-1.1,0.1-1.6,0.4c-0.1-0.6-0.6-1.1-1.3-1.1c-0.1,0-0.2,0-0.3,0c0.7-0.4,1.2-1.1,1.2-2c0-0.8-0.4-1.5-1-1.9
		c0.1-0.3,0.2-0.6,0.2-0.9c0-1.4-1.1-2.5-2.5-2.5c-1,0-1.9,0.6-2.3,1.5c-0.2-0.2-0.5-0.3-0.8-0.3c-0.7,0-1.3,0.6-1.3,1.3V234h17
		V232.2z"/>
</g>
</svg>
