<?xml version="1.0" encoding="utf-8"?>
<!-- Generator: Adobe Illustrator 17.1.0, SVG Export Plug-In . SVG Version: 6.00 Build 0)  -->
<!DOCTYPE svg PUBLIC "-//W3C//DTD SVG 1.1//EN" "http://www.w3.org/Graphics/SVG/1.1/DTD/svg11.dtd">
<svg version="1.1" id="图层_1" xmlns="http://www.w3.org/2000/svg" xmlns:xlink="http://www.w3.org/1999/xlink" x="0px" y="0px"
	 viewBox="0 0 320 380" enable-background="new 0 0 320 380" xml:space="preserve">
<g>
	
		<radialGradient id="SVGID_1_" cx="148.5992" cy="406.9049" r="90.258" gradientTransform="matrix(0.9962 0 0 1.1246 8.7373 -295.125)" gradientUnits="userSpaceOnUse">
		<stop  offset="0" style="stop-color:#FFDFA9"/>
		<stop  offset="1" style="stop-color:#FFD8A9;stop-opacity:0"/>
	</radialGradient>
	<rect x="0" y="161.2" opacity="0.3" fill="url(#SVGID_1_)" width="320" height="107.7"/>
	<linearGradient id="SVGID_2_" gradientUnits="userSpaceOnUse" x1="155.0889" y1="164.9607" x2="269.1121" y2="362.4546">
		<stop  offset="0" style="stop-color:#000000"/>
		<stop  offset="0.1443" style="stop-color:#000000;stop-opacity:0.8557"/>
		<stop  offset="1" style="stop-color:#000000;stop-opacity:0"/>
	</linearGradient>
	<polygon opacity="0.2" fill="url(#SVGID_2_)" points="110.3,190.8 201.6,338.6 313.9,336.6 213.1,224.5 	"/>
	<g>
		<linearGradient id="SVGID_3_" gradientUnits="userSpaceOnUse" x1="181.1776" y1="180.8337" x2="198.1047" y2="163.9067">
			<stop  offset="0" style="stop-color:#FF8133"/>
			<stop  offset="1" style="stop-color:#FFE8A8"/>
		</linearGradient>
		<polyline fill="url(#SVGID_3_)" points="166.2,165.9 192.2,191.9 213.1,178.9 187.1,152.9 166.2,165.9 		"/>
		<linearGradient id="SVGID_4_" gradientUnits="userSpaceOnUse" x1="109.6103" y1="148.5205" x2="138.6678" y2="148.0133">
			<stop  offset="0" style="stop-color:#E9CF8F"/>
			<stop  offset="0.4184" style="stop-color:#EBA76B"/>
			<stop  offset="0.7312" style="stop-color:#EC8E54"/>
			<stop  offset="0.8276" style="stop-color:#EC965D"/>
			<stop  offset="0.9843" style="stop-color:#ECAB75"/>
			<stop  offset="1" style="stop-color:#ECAE78"/>
		</linearGradient>
		<path fill="url(#SVGID_4_)" d="M136.1,102.9c0-2.7-4.9-4.9-10.9-4.9c-6,0-10.9,2.2-10.9,4.9c0,0,0,0,0,0l-4.1,87.8
			c0,4.3,6.5,7.7,14.5,7.7s14.5-3.4,14.5-7.7L136.1,102.9z"/>
		<linearGradient id="SVGID_5_" gradientUnits="userSpaceOnUse" x1="127.5428" y1="107.7115" x2="123.043" y2="98.0617">
			<stop  offset="0" style="stop-color:#FFB583"/>
			<stop  offset="1" style="stop-color:#FFE5BA"/>
		</linearGradient>
		<ellipse fill="url(#SVGID_5_)" cx="125.3" cy="102.8" rx="10.8" ry="4.8"/>
		<linearGradient id="SVGID_6_" gradientUnits="userSpaceOnUse" x1="131.7823" y1="109.348" x2="116.7575" y2="94.3232">
			<stop  offset="0" style="stop-color:#E99C55"/>
			<stop  offset="1" style="stop-color:#EC6835"/>
		</linearGradient>
		<ellipse fill="url(#SVGID_6_)" cx="125.3" cy="102.8" rx="9" ry="3.7"/>
		<linearGradient id="SVGID_7_" gradientUnits="userSpaceOnUse" x1="159.9057" y1="181.2442" x2="178.7208" y2="162.4291">
			<stop  offset="0" style="stop-color:#FF8133"/>
			<stop  offset="1" style="stop-color:#FFE8A8"/>
		</linearGradient>
		<polyline fill="url(#SVGID_7_)" points="145.4,165.9 171.3,191.9 192.2,178.9 166.2,152.9 145.4,165.9 		"/>
		<linearGradient id="SVGID_8_" gradientUnits="userSpaceOnUse" x1="152.3477" y1="210.0491" x2="111.8396" y2="169.541">
			<stop  offset="0" style="stop-color:#E97C49"/>
			<stop  offset="1" style="stop-color:#F8D497"/>
		</linearGradient>
		<polyline fill="url(#SVGID_8_)" points="124.5,165.9 150.5,191.8 150.5,224.5 124.5,198.5 124.5,165.9 		"/>
		<linearGradient id="SVGID_9_" gradientUnits="userSpaceOnUse" x1="143.2176" y1="189.9131" x2="152.6189" y2="154.8272">
			<stop  offset="0" style="stop-color:#FFB166"/>
			<stop  offset="1" style="stop-color:#FFE5B0"/>
		</linearGradient>
		<polyline fill="url(#SVGID_9_)" points="124.5,165.9 150.5,191.9 171.3,178.9 145.4,152.9 124.5,165.9 		"/>
		<linearGradient id="SVGID_10_" gradientUnits="userSpaceOnUse" x1="194.55" y1="229.0886" x2="167.9149" y2="171.9695">
			<stop  offset="0" style="stop-color:#E99C55"/>
			<stop  offset="0.1125" style="stop-color:#E99652"/>
			<stop  offset="0.6621" style="stop-color:#EB7E44"/>
			<stop  offset="1" style="stop-color:#EC753F"/>
		</linearGradient>
		<polygon fill="url(#SVGID_10_)" points="192.2,191.7 192.2,178.9 171.3,191.7 171.3,178.9 150.5,191.7 150.5,191.7 150.5,224.5 
			213.1,224.5 213.1,191.7 213.1,178.9 		"/>
	</g>
	<linearGradient id="SVGID_11_" gradientUnits="userSpaceOnUse" x1="139.6416" y1="111.1817" x2="170.4764" y2="-3.8952">
		<stop  offset="0" style="stop-color:#FFFFFF"/>
		<stop  offset="1" style="stop-color:#FFFFFF;stop-opacity:0"/>
	</linearGradient>
	<path opacity="0.3" fill="url(#SVGID_11_)" d="M131.6,105.5c1.6-0.7,2.4-1.7,2.4-3.6c0-1-0.3-1.9-0.8-2.7c0.3,0.1,0.5,0.1,0.8,0.1
		c1.6,0,3-1.3,3-3c0-0.1,0-0.3,0-0.4c0,0,0,0,0,0c2.1,0,3.8-1.7,3.8-3.8c0-1.2-0.6-2.3-1.5-3c1.2-1,2-2.5,2-4.3
		c0-1.6-0.7-3.1-1.9-4.1c2.4-0.6,4.1-2.8,4.1-5.3c0-0.2,0-0.4,0-0.6c0.3,0.1,0.6,0.1,0.9,0.1c2.8,0,5-2.2,5-5c0,0,0,0,0,0
		c0.6,0.4,1.3,0.6,2.1,0.6c2.1,0,3.9-1.7,3.9-3.9c0-0.3,0-0.5-0.1-0.8c0.6,0.2,1.2,0.2,1.8,0.2c3.8,0,6.9-3.1,6.9-6.9
		c0-2.4-1.2-4.5-3-5.7c0.9-0.8,1.5-2,1.5-3.4c0-1.1-0.4-2-1-2.8c4.2-1.1,7.3-4.9,7.3-9.4c0-0.2,0-0.5,0-0.7c0.4,0.1,0.8,0.1,1.2,0.1
		c3.3,0,5.9-2.5,6.2-5.7c4.9-0.3,8.7-4.3,8.7-9.2c0-0.1,0-0.2,0-0.3c1.4,0.7,3,1.1,4.7,1.1c6,0,10.9-4.9,10.9-10.9
		c0-6-4.9-10.9-10.9-10.9c-1.7,0-3.4,0.4-4.8,1.1c-12.5-5.3-25.1-1.6-30.9,0.8c-1.2-1-2.8-1.5-4.5-1.5c-4,0-7.2,3.2-7.2,7.2
		c0,0,0,0.1,0,0.1c-0.4-0.1-0.7-0.1-1.1-0.1c-4.3,0-7.9,3.4-8.1,7.7c-2.1,0.7-3.6,2.6-3.6,4.9c0,1.1,0.4,2.1,0.9,3
		c-1.1,1.2-1.8,2.8-1.8,4.6c0,2.9,1.8,5.3,4.3,6.4c-0.5,0.6-0.7,1.4-0.7,2.3c0,1.4,0.7,2.6,1.8,3.4c-2,0.8-3.4,2.7-3.4,4.9
		c0,0.6,0.1,1.2,0.3,1.7c-1.9,0.6-3.3,2.3-3.3,4.4c0,0.4,0.1,0.8,0.2,1.2c-0.1,0-0.3,0-0.4,0c-2.5,0-4.6,2-4.6,4.6
		c0,1.5,0.7,2.9,1.9,3.7c-1.6,1-2.7,2.7-2.7,4.8c0,2.1,1.2,4,3,4.9c-0.8,0.7-1.3,1.7-1.3,2.8c0,1.5,1,2.9,2.3,3.4
		c-1.6,0.5-2.8,2-2.8,3.8c0,0.1,0,0.3,0,0.4c-0.5-0.3-1.1-0.4-1.7-0.4c-2.2,0-3.9,1.8-3.9,3.9c0,0.3,0,0.6,0.1,0.8
		c-0.7,0.9-1.2,2.1-1.2,3.4c0,2.1,1.1,3.8,2.8,4.8c-0.2,0.6-0.4,1.3-0.4,2c0,1.7,0.8,3.2,2,4.2c-1.9,0.5-3.4,1.7-3.4,3.7
		c0,0,1.9,2.1,7.1,2.2S131.6,105.5,131.6,105.5z"/>
	<g>
		<linearGradient id="SVGID_12_" gradientUnits="userSpaceOnUse" x1="180.6481" y1="201.992" x2="181.7258" y2="206.0143">
			<stop  offset="0" style="stop-color:#DF6C44"/>
			<stop  offset="1" style="stop-color:#B15331"/>
		</linearGradient>
		<rect x="177.7" y="202.2" fill="url(#SVGID_12_)" width="6.9" height="3.5"/>
		<linearGradient id="SVGID_13_" gradientUnits="userSpaceOnUse" x1="178.3304" y1="204.6439" x2="184.8986" y2="208.4361">
			<stop  offset="0" style="stop-color:#FFB166"/>
			<stop  offset="1" style="stop-color:#FAB67F"/>
		</linearGradient>
		<polygon fill="url(#SVGID_13_)" points="184.6,205.7 185.8,206.9 177.7,206.9 177.7,205.7 		"/>
		<linearGradient id="SVGID_14_" gradientUnits="userSpaceOnUse" x1="183.9106" y1="203.4506" x2="186.8104" y2="205.1248">
			<stop  offset="0" style="stop-color:#E97C49"/>
			<stop  offset="1" style="stop-color:#F4B975"/>
		</linearGradient>
		<polygon fill="url(#SVGID_14_)" points="185.8,202.2 185.8,206.9 184.6,205.7 184.6,202.2 		"/>
	</g>
	<g>
		<linearGradient id="SVGID_15_" gradientUnits="userSpaceOnUse" x1="160.4521" y1="201.4647" x2="161.7865" y2="206.4445">
			<stop  offset="0" style="stop-color:#DF6C44"/>
			<stop  offset="1" style="stop-color:#B15331"/>
		</linearGradient>
		<rect x="157.7" y="202.2" fill="url(#SVGID_15_)" width="6.9" height="3.5"/>
		<linearGradient id="SVGID_16_" gradientUnits="userSpaceOnUse" x1="158.2757" y1="204.6439" x2="164.8439" y2="208.4361">
			<stop  offset="0" style="stop-color:#FFB166"/>
			<stop  offset="1" style="stop-color:#FAB67F"/>
		</linearGradient>
		<polygon fill="url(#SVGID_16_)" points="164.6,205.7 165.7,206.9 157.7,206.9 157.7,205.7 		"/>
		<linearGradient id="SVGID_17_" gradientUnits="userSpaceOnUse" x1="163.8559" y1="203.4506" x2="166.7557" y2="205.1248">
			<stop  offset="0" style="stop-color:#E97C49"/>
			<stop  offset="1" style="stop-color:#F4B975"/>
		</linearGradient>
		<polygon fill="url(#SVGID_17_)" points="165.7,202.2 165.7,206.9 164.6,205.7 164.6,202.2 		"/>
	</g>
</g>
</svg>
