<?xml version="1.0" encoding="utf-8"?>
<!-- Generator: Adobe Illustrator 17.1.0, SVG Export Plug-In . SVG Version: 6.00 Build 0)  -->
<!DOCTYPE svg PUBLIC "-//W3C//DTD SVG 1.1//EN" "http://www.w3.org/Graphics/SVG/1.1/DTD/svg11.dtd">
<svg version="1.1" id="图层_1" xmlns="http://www.w3.org/2000/svg" xmlns:xlink="http://www.w3.org/1999/xlink" x="0px" y="0px"
	 viewBox="0 0 32 32" enable-background="new 0 0 32 32" xml:space="preserve">
<g>
	<path fill="#FFFFFF" d="M24,20.5c-3-1.2-1.4-2.2-1.4-2.2h0c2.5-1.3,4.3-4.2,4.3-7.3c0-4.1-2.3-7.5-7-7.5s-7,3.3-7,7.5
		c0,3.1,1.8,6.1,4.3,7.3h0c0,0,1.7,1.1-1.4,2.3c-6.7,0.9-8.4,4-8.4,8.5c0,0-0.1,0.8,1.1,0.8c1.2,0,21.8,0,22.9,0c1.1,0,1.1-1,1.1-1
		C32.4,24.3,30.7,21.3,24,20.5z"/>
	<path fill="#FFFFFF" d="M9.5,8.1c0.4,0,0.8-0.3,0.8-0.8c0-0.4-0.3-0.8-0.8-0.8H5.7V2.8c0-0.4-0.3-0.8-0.8-0.8
		c-0.4,0-0.8,0.3-0.8,0.8v3.8H0.4C0,6.6-0.3,6.9-0.3,7.4c0,0.4,0.3,0.8,0.8,0.8h3.8v3.8c0,0.4,0.3,0.8,0.8,0.8
		c0.4,0,0.8-0.3,0.8-0.8V8.1H9.5z"/>
</g>
</svg>
