<?xml version="1.0" encoding="utf-8"?>
<!-- Generator: Adobe Illustrator 17.1.0, SVG Export Plug-In . SVG Version: 6.00 Build 0)  -->
<!DOCTYPE svg PUBLIC "-//W3C//DTD SVG 1.1//EN" "http://www.w3.org/Graphics/SVG/1.1/DTD/svg11.dtd">
<svg version="1.1" id="图层_1" xmlns="http://www.w3.org/2000/svg" xmlns:xlink="http://www.w3.org/1999/xlink" x="0px" y="0px"
	 viewBox="0 0 88 88" enable-background="new 0 0 88 88" xml:space="preserve">
<g>
	<g opacity="0.1">
		<path d="M64.9,41L64.9,41 M64.9,41L64.9,41L64.9,41L64.9,41 M64.8,40.9L64.8,40.9 M64.4,40.5L64.4,40.5 M57.4,22.5
			C57.4,22.5,57.4,22.5,57.4,22.5C57.4,22.5,57.4,22.5,57.4,22.5c-2.8,0-5.5,1.1-7.6,3.2c-2.1,2.1-3.2,4.9-3.2,7.6
			c0,2.8,1.1,5.5,3.2,7.6c0.2,0.2,0.6,0.4,0.9,0.4c0.3,0,0.6-0.1,0.9-0.4c0.5-0.5,0.5-1.3,0-1.8c-1.6-1.6-2.4-3.7-2.4-5.9
			c0-2.1,0.8-4.2,2.4-5.9c1.6-1.6,3.7-2.4,5.9-2.4c2.1,0,4.2,0.8,5.9,2.4c1.6,1.6,2.4,3.7,2.4,5.9c0,2.1-0.8,4.2-2.4,5.9l0,0
			c0,0-0.1,0.1-0.1,0.1c-0.5,0.5-0.5,1.3,0,1.8c0.2,0.2,0.6,0.3,0.9,0.3c0.3,0,0.6-0.1,0.9-0.4c0,0,0.1-0.1,0.1-0.1
			c2.1-2.1,3.2-4.9,3.2-7.6c0-2.8-1.1-5.5-3.2-7.6C62.9,23.5,60.1,22.5,57.4,22.5"/>
		<path d="M57.4,16.7C57.4,16.7,57.4,16.7,57.4,16.7C57.4,16.7,57.4,16.7,57.4,16.7c-4.2,0-8.5,1.6-11.7,4.9l0,0
			c-3.2,3.2-4.9,7.5-4.9,11.7c0,4.2,1.6,8.5,4.9,11.7c0.2,0.2,0.6,0.4,0.9,0.4c0.3,0,0.6-0.1,0.9-0.4c0.5-0.5,0.5-1.3,0-1.8
			c-2.7-2.7-4.1-6.3-4.1-9.9c0-3.6,1.4-7.2,4.1-9.9l0,0c2.7-2.8,6.3-4.1,9.9-4.1c3.6,0,7.2,1.4,9.9,4.1c2.7,2.7,4.1,6.3,4.1,9.9
			c0,3.6-1.4,7.2-4.1,9.9c-0.5,0.5-0.5,1.3,0,1.8c0.2,0.2,0.6,0.4,0.9,0.4c0.3,0,0.6-0.1,0.9-0.4v0c3.2-3.2,4.8-7.5,4.8-11.7
			c0-4.2-1.6-8.5-4.8-11.7C65.8,18.3,61.6,16.7,57.4,16.7"/>
	</g>
	<path opacity="0.2" d="M64.5,50.2h-5.8V37.4c1.8-0.6,3.1-2.2,3.1-4.2c0-2.4-2-4.4-4.4-4.4c-2.4,0-4.4,2-4.4,4.4
		c0,2,1.4,3.7,3.2,4.2v12.8H23.6c-5.3,0-9.6,4.3-9.6,9.6v1.9c0,5.3,4.3,9.6,9.6,9.6h40.9c5.3,0,9.6-4.3,9.6-9.6v-1.9
		C74,54.6,69.7,50.2,64.5,50.2z M23.8,65c-2.3,0-4.2-1.9-4.2-4.2c0-2.3,1.9-4.2,4.2-4.2s4.2,1.9,4.2,4.2C28.1,63.1,26.2,65,23.8,65z
		 M50.2,63.5c-1.5,0-2.8-1.2-2.8-2.8c0-1.5,1.2-2.7,2.8-2.7c1.5,0,2.8,1.2,2.8,2.7C52.9,62.3,51.7,63.5,50.2,63.5z M57.6,63.5
		c-1.5,0-2.7-1.2-2.7-2.8c0-1.5,1.2-2.7,2.7-2.7c1.5,0,2.8,1.2,2.8,2.7C60.3,62.3,59.1,63.5,57.6,63.5z M65,63.5
		c-1.5,0-2.7-1.2-2.7-2.8c0-1.5,1.2-2.7,2.7-2.7c1.5,0,2.8,1.2,2.8,2.7C67.7,62.3,66.5,63.5,65,63.5z"/>
</g>
</svg>
